<svg width="16" height="16" viewBox="0 0 16 16" fill="none" xmlns="http://www.w3.org/2000/svg">
<path d="M8.9424 8.9423L7.05779 7.05769C7.02318 7.02307 6.96164 7.03077 6.93472 7.07307L5.03088 10.8615C4.98857 10.9308 5.06934 11.0115 5.13857 10.9692L8.92702 9.06538C8.96933 9.03846 8.97702 8.97692 8.9424 8.9423Z" fill="white"/>
<path d="M8 0C3.58077 0 0 3.58077 0 8C0 12.4192 3.58077 16 8 16C12.4192 16 16 12.4192 16 8C16 3.58077 12.4192 0 8 0ZM9.56154 9.58846L3.42308 12.6846C3.35385 12.7269 3.27308 12.6462 3.31538 12.5769L6.41538 6.43846C6.42308 6.42692 6.43077 6.41923 6.44231 6.41154L12.5769 3.31538C12.6462 3.27308 12.7269 3.35385 12.6846 3.42308L9.58462 9.56154C9.58077 9.57308 9.57308 9.58077 9.56154 9.58846Z" fill="white"/>
</svg>
