<svg width="22" height="16" viewBox="0 0 22 16" fill="none" xmlns="http://www.w3.org/2000/svg">
<g clip-path="url(#clip0)">
<path d="M8.13112 8.04368C10.4044 8.04368 12.153 6.20765 12.153 4.02186C12.153 1.83606 10.317 0 8.13112 0C5.85793 0 4.02186 1.83606 4.02186 4.02186C4.02186 6.20765 5.85793 8.04368 8.13112 8.04368ZM8.13112 9.9672C5.42077 9.9672 0 11.3662 0 13.989V16H16.2623V13.989C16.2623 11.3662 10.8415 9.9672 8.13112 9.9672Z" fill="white"/>
<path d="M14.3388 4.02186C14.3388 5.5082 13.7268 6.9071 12.765 7.95629C12.9399 7.95629 13.2021 8.04368 13.377 8.04368C15.6503 8.04368 17.3989 6.20765 17.3989 4.02186C17.3989 1.83606 15.5629 0 13.377 0C13.1148 0 12.9399 0 12.765 0.087432C13.7268 1.13662 14.3388 2.44809 14.3388 4.02186Z" fill="white"/>
<path d="M16 10.317C16.3498 10.4918 16.612 10.7541 16.8743 11.0164C17.8361 11.8907 18.3606 12.9399 18.3606 14.0765V16.0874H21.5082V13.989C21.5082 12.0656 18.623 10.8415 16 10.317Z" fill="white"/>
</g>
<defs>
<clipPath id="clip0">
<rect width="21.6" height="16" fill="white"/>
</clipPath>
</defs>
</svg>
