<svg width="20" height="20" viewBox="0 0 20 20" fill="none" xmlns="http://www.w3.org/2000/svg">
<g clip-path="url(#clip0)">
<path d="M18.1721 5.88318H7.51368C6.50363 5.88318 5.68115 6.70565 5.68115 7.7157V15.1373C5.68115 16.1473 6.50363 16.9649 7.51368 16.9649H13.6125C13.7471 16.9649 13.8819 17.0226 13.978 17.1189L17.0081 19.9133C17.1765 20.0769 17.4555 20.0095 17.4555 19.7739V17.3401C17.4555 17.0515 17.6383 16.9601 17.9269 16.9601H17.975C18.985 16.9601 19.9999 16.1473 19.9999 15.1324V7.7157C20.0046 6.70084 19.1823 5.88318 18.1721 5.88318Z" fill="white"/>
<path d="M6.07346 4.70266H14.606V1.56189C14.606 0.696124 13.9037 -0.00610352 13.038 -0.00610352H1.56189C0.696124 -0.00610352 -0.00610352 0.696124 -0.00610352 1.56189V9.50764C-0.00610352 10.3734 0.696124 11.0756 1.56189 11.0756H4.50066V6.27066C4.50547 5.4049 5.2077 4.70266 6.07346 4.70266Z" fill="white"/>
</g>
<defs>
<clipPath id="clip0">
<rect width="20" height="20" fill="white"/>
</clipPath>
</defs>
</svg>
