<svg width="20" height="20" viewBox="0 0 20 20" fill="none" xmlns="http://www.w3.org/2000/svg">
<g clip-path="url(#clip0)">
<path d="M18.0769 0.434809H16.1538V1.73916C16.1538 1.97829 15.9808 2.17394 15.7692 2.17394H15C14.7885 2.17394 14.6154 1.97829 14.6154 1.73916V0.434809H5.38462V1.73916C5.38462 1.97829 5.21154 2.17394 5 2.17394H4.23077C4.01923 2.17394 3.84615 1.97829 3.84615 1.73916V0.434809H1.92308C0.865385 0.434809 0 1.41307 0 2.60872V17.3913C0 18.587 0.865385 19.5652 1.92308 19.5652H18.0769C19.1346 19.5652 20 18.587 20 17.3913V2.60872C20 1.41307 19.1346 0.434809 18.0769 0.434809ZM18.4615 16.7392C18.4615 17.337 18.0288 17.8261 17.5 17.8261H2.5C1.97115 17.8261 1.53846 17.337 1.53846 16.7392V6.95655C1.53846 6.71742 1.71154 6.52177 1.92308 6.52177H18.0769C18.2885 6.52177 18.4615 6.71742 18.4615 6.95655V16.7392ZM5.38462 -0.869539C5.38462 -1.10867 5.21154 -1.30432 5 -1.30432H4.23077C4.01923 -1.30432 3.84615 -1.10867 3.84615 -0.869539V0.434809H5.38462V-0.869539ZM16.1538 -0.869539C16.1538 -1.10867 15.9808 -1.30432 15.7692 -1.30432H15C14.7885 -1.30432 14.6154 -1.10867 14.6154 -0.869539V0.434809H16.1538V-0.869539Z" fill="white"/>
</g>
<defs>
<clipPath id="clip0">
<rect width="20" height="20" fill="white"/>
</clipPath>
</defs>
</svg>
