<svg width="16" height="16" viewBox="0 0 16 16" fill="none" xmlns="http://www.w3.org/2000/svg">
<g clip-path="url(#clip0)">
<path d="M14.4615 0.347847H12.9231V1.39133C12.9231 1.58263 12.7846 1.73915 12.6154 1.73915H12C11.8308 1.73915 11.6923 1.58263 11.6923 1.39133V0.347847H4.30769V1.39133C4.30769 1.58263 4.16923 1.73915 4 1.73915H3.38462C3.21538 1.73915 3.07692 1.58263 3.07692 1.39133V0.347847H1.53846C0.692308 0.347847 0 1.13046 0 2.08698V13.9131C0 14.8696 0.692308 15.6522 1.53846 15.6522H14.4615C15.3077 15.6522 16 14.8696 16 13.9131V2.08698C16 1.13046 15.3077 0.347847 14.4615 0.347847ZM14.7692 13.3913C14.7692 13.8696 14.4231 14.2609 14 14.2609H2C1.57692 14.2609 1.23077 13.8696 1.23077 13.3913V5.56524C1.23077 5.37393 1.36923 5.21741 1.53846 5.21741H14.4615C14.6308 5.21741 14.7692 5.37393 14.7692 5.56524V13.3913ZM4.30769 -0.695631C4.30769 -0.886935 4.16923 -1.04346 4 -1.04346H3.38462C3.21538 -1.04346 3.07692 -0.886935 3.07692 -0.695631V0.347847H4.30769V-0.695631ZM12.9231 -0.695631C12.9231 -0.886935 12.7846 -1.04346 12.6154 -1.04346H12C11.8308 -1.04346 11.6923 -0.886935 11.6923 -0.695631V0.347847H12.9231V-0.695631Z" fill="white"/>
</g>
<defs>
<clipPath id="clip0">
<rect width="16" height="16" fill="white"/>
</clipPath>
</defs>
</svg>
