<svg width="20" height="20" viewBox="0 0 20 20" fill="none" xmlns="http://www.w3.org/2000/svg">
<g clip-path="url(#clip0)">
<path fill-rule="evenodd" clip-rule="evenodd" d="M9.01473 2.25369C5.2807 2.25369 2.25369 5.2807 2.25369 9.01473C2.25369 12.7488 5.2807 15.7757 9.01473 15.7757C12.7488 15.7757 15.7757 12.7488 15.7757 9.01473C15.7757 5.2807 12.7488 2.25369 9.01473 2.25369ZM0 9.01473C0 4.03603 4.03603 0 9.01473 0C13.9934 0 18.0295 4.03603 18.0295 9.01473C18.0295 13.9934 13.9934 18.0295 9.01473 18.0295C4.03603 18.0295 0 13.9934 0 9.01473Z" fill="white"/>
<path fill-rule="evenodd" clip-rule="evenodd" d="M13.7871 13.7887C14.2271 13.3485 14.9406 13.3485 15.3806 13.7887L19.6697 18.0777C20.1097 18.5178 20.1097 19.2312 19.6697 19.6713C19.2296 20.1113 18.5161 20.1113 18.0761 19.6713L13.7871 15.3823C13.347 14.9422 13.347 14.2287 13.7871 13.7887Z" fill="white"/>
</g>
<defs>
<clipPath id="clip0">
<rect width="20" height="20" fill="white"/>
</clipPath>
</defs>
</svg>
