<svg width="27" height="20" viewBox="0 0 27 20" fill="none" xmlns="http://www.w3.org/2000/svg">
<g clip-path="url(#clip0)">
<path d="M10.1639 10.0546C13.0055 10.0546 15.1913 7.75956 15.1913 5.02732C15.1913 2.29508 12.8962 0 10.1639 0C7.32241 0 5.02732 2.29508 5.02732 5.02732C5.02732 7.75956 7.32241 10.0546 10.1639 10.0546ZM10.1639 12.459C6.77596 12.459 0 14.2077 0 17.4863V20H20.3279V17.4863C20.3279 14.2077 13.5519 12.459 10.1639 12.459Z" fill="white"/>
<path d="M17.9235 5.02732C17.9235 6.88525 17.1585 8.63388 15.9563 9.94536C16.1749 9.94536 16.5027 10.0546 16.7213 10.0546C19.5629 10.0546 21.7486 7.75956 21.7486 5.02732C21.7486 2.29508 19.4536 0 16.7213 0C16.3935 0 16.1749 0 15.9563 0.10929C17.1585 1.42077 17.9235 3.06011 17.9235 5.02732Z" fill="white"/>
<path d="M20 12.8962C20.4372 13.1148 20.765 13.4426 21.0929 13.7705C22.2951 14.8634 22.9508 16.1749 22.9508 17.5956V20.1093H26.8852V17.4863C26.8852 15.082 23.2787 13.5519 20 12.8962Z" fill="white"/>
</g>
<defs>
<clipPath id="clip0">
<rect width="26.8852" height="20" fill="white"/>
</clipPath>
</defs>
</svg>
