<svg width="20" height="20" viewBox="0 0 20 20" fill="none" xmlns="http://www.w3.org/2000/svg">
<g clip-path="url(#clip0)">
<path d="M19.9942 7.6C19.8831 7.5 19.8831 7.4 19.772 7.3L11.8854 0.6C11.33 0.2 10.6636 0 9.99709 0C9.4417 0 8.77523 0.2 8.21983 0.6L0.333236 7.2C0.222158 7.3 0.111079 7.4 0.111079 7.5C0 7.7 0 7.8 0 8V18.2C0 19.3 1.11079 20 2.55481 20H6.33149C7.66444 20 8.8863 19.3 8.8863 18.1V17C8.77523 16.5 9.33062 16 9.99709 16C10.6636 16 11.219 16.5 11.219 17.1V18.2C11.219 19.4 12.3297 20.1 13.7738 20.1H17.5505C18.8834 20.1 20.1053 19.4 20.1053 18.2V8C20.1053 7.9 20.1053 7.7 19.9942 7.6Z" fill="white"/>
</g>
<defs>
<clipPath id="clip0">
<rect width="20" height="20" fill="white"/>
</clipPath>
</defs>
</svg>
