<svg width="20" height="20" viewBox="0 0 20 20" fill="none" xmlns="http://www.w3.org/2000/svg">
<path d="M11.178 11.1779L8.82221 8.82217C8.77894 8.7789 8.70202 8.78852 8.66836 8.8414L6.28856 13.577C6.23568 13.6635 6.33664 13.7645 6.42318 13.7116L11.1587 11.3318C11.2116 11.2981 11.2212 11.2212 11.178 11.1779Z" fill="white"/>
<path d="M10 0C4.47596 0 0 4.47596 0 10C0 15.524 4.47596 20 10 20C15.524 20 20 15.524 20 10C20 4.47596 15.524 0 10 0ZM11.9519 11.9856L4.27885 15.8558C4.19231 15.9087 4.09135 15.8077 4.14423 15.7212L8.01923 8.04808C8.02885 8.03365 8.03846 8.02404 8.05288 8.01442L15.7212 4.14423C15.8077 4.09135 15.9087 4.19231 15.8558 4.27885L11.9808 11.9519C11.976 11.9663 11.9663 11.976 11.9519 11.9856Z" fill="white"/>
</svg>
