<svg width="16" height="16" viewBox="0 0 16 16" fill="none" xmlns="http://www.w3.org/2000/svg">
<g clip-path="url(#clip0)">
<path d="M15.2 6.08C15.12 6 15.12 5.92 15.04 5.84L9.36005 0.48C8.96005 0.16 8.48005 0 8.00005 0C7.60005 0 7.12005 0.16 6.72005 0.48L1.04005 5.76C0.960049 5.84 0.880049 5.92 0.880049 6C0.800049 6.16 0.800049 6.24 0.800049 6.4V14.56C0.800049 15.44 1.60005 16 2.64005 16H5.36005C6.32005 16 7.20005 15.44 7.20005 14.48V13.6C7.12005 13.2 7.52005 12.8 8.00005 12.8C8.48005 12.8 8.88005 13.2 8.88005 13.68V14.56C8.88005 15.52 9.68005 16.08 10.72 16.08H13.44C14.4 16.08 15.28 15.52 15.28 14.56V6.4C15.28 6.32 15.28 6.16 15.2 6.08Z" fill="white"/>
</g>
<defs>
<clipPath id="clip0">
<rect width="16" height="16" fill="white"/>
</clipPath>
</defs>
</svg>
