<svg width="168" height="40" viewBox="0 0 168 40" fill="none" xmlns="http://www.w3.org/2000/svg">
<path d="M56.0865 13.1801H60.3243C62.746 13.1801 64.3892 13.7069 65.6865 14.8484C67.2433 16.3411 68.1081 18.4483 68.0216 20.6434C68.1081 22.9263 67.2433 25.1214 65.6 26.7019C64.1297 27.9312 62.3135 28.5458 60.4108 28.458H56V13.1801H56.0865ZM59.1135 25.8239H59.7189C61.0162 25.9117 62.227 25.5605 63.2649 24.7702C64.3892 23.7166 64.9946 22.2239 64.9081 20.7312C64.9081 17.7459 63.0919 15.7264 60.2378 15.7264H59.1135V25.8239Z" fill="#FD4D4D"/>
<path d="M80.9946 23.1896C80.9946 26.2627 78.4865 28.7212 75.4594 28.7212H75.3729C72.4324 28.8968 69.9243 26.5261 69.7513 23.5408C69.7513 23.3652 69.7513 23.2774 69.7513 23.1018C69.6648 20.1165 71.9135 17.5701 74.854 17.4823C75.027 17.4823 75.2 17.4823 75.3729 17.4823C78.4 17.3945 80.9081 19.7652 80.9946 22.8384C80.9946 22.9262 80.9946 23.1018 80.9946 23.1896ZM72.5189 23.1018C72.4324 24.6823 73.5567 25.9993 75.1135 26.0871C76.6702 26.1749 77.9675 25.0335 78.054 23.453C78.054 23.3652 78.054 23.2774 78.054 23.1018C78.054 21.1701 77.0162 20.0287 75.2865 20.0287C73.7297 20.0287 72.5189 21.1701 72.4324 22.7506C72.5189 22.9262 72.5189 23.014 72.5189 23.1018Z" fill="#FD4D4D"/>
<path d="M91.2867 17.834H94.0543V27.5802C94.0543 29.7753 93.6219 31.0045 92.6705 31.9704C91.4597 33.024 89.9029 33.6387 88.3462 33.5509C86.4435 33.6387 84.6273 32.8484 83.2435 31.4436L84.9732 29.5997C85.7516 30.5655 86.9624 31.0923 88.1732 31.0923C89.73 31.2679 91.0273 30.1265 91.2002 28.546C91.2002 28.3704 91.2002 28.1948 91.2002 27.9314V26.8778C90.3354 28.0192 88.9516 28.6338 87.5678 28.6338C84.7137 28.6338 82.6381 26.2631 82.6381 23.1022C82.6381 19.6778 84.7137 17.3949 87.8273 17.3949C89.1246 17.3071 90.4218 17.9218 91.2002 19.0632L91.2867 17.834ZM85.7516 23.0144C85.5786 24.5949 86.7894 25.9997 88.3462 26.0875C89.211 26.1753 90.0759 25.8241 90.6813 25.1217C91.1137 24.5949 91.2867 23.8924 91.2002 23.19C91.2867 22.312 91.0273 21.4339 90.4218 20.7315C89.9029 20.2047 89.211 19.9412 88.5191 19.9412C86.9624 19.9412 85.7516 21.1705 85.7516 22.6632C85.7516 22.8388 85.7516 22.9266 85.7516 23.0144Z" fill="#FD4D4D"/>
<path d="M99.1567 23.8043C99.4162 25.297 100.8 26.3506 102.357 26.175C103.135 26.0872 103.913 25.5604 104.346 24.858L106.941 25.5604C105.989 27.5799 104.086 28.8091 101.924 28.8091C98.9838 28.9847 96.3892 26.614 96.3027 23.5409C96.3027 23.3653 96.3027 23.2775 96.3027 23.1019C96.1297 20.1165 98.3784 17.658 101.319 17.4824C101.492 17.4824 101.578 17.4824 101.751 17.4824C104.692 17.3946 107.286 19.6775 107.373 22.7507C107.373 22.9263 107.373 23.1019 107.373 23.2775V23.8043H99.1567ZM104.346 22.136C104.173 20.819 103.049 19.8531 101.665 19.8531C100.368 19.7653 99.2432 20.7312 99.0702 22.136H104.346Z" fill="#FD4D4D"/>
<path d="M112.562 28.3702H109.449V13.1801H112.562V19.5898H118.27V13.1801H121.384V28.3702H118.27V22.1361H112.562V28.3702Z" fill="#FD4D4D"/>
<path d="M134.443 23.1896C134.443 26.2627 131.935 28.7212 128.908 28.7212H128.822C125.881 28.8968 123.287 26.5261 123.2 23.5408C123.2 23.3652 123.2 23.2774 123.2 23.1018C123.114 20.1165 125.362 17.5701 128.303 17.4823C128.476 17.4823 128.649 17.4823 128.822 17.4823C131.849 17.3945 134.357 19.7652 134.443 22.8384C134.443 22.9262 134.443 23.1018 134.443 23.1896ZM126.054 23.1018C125.968 24.6823 127.092 25.9993 128.649 26.0871C130.205 26.1749 131.503 25.0335 131.589 23.453C131.589 23.3652 131.589 23.2774 131.589 23.1018C131.589 21.1701 130.551 20.0287 128.822 20.0287C127.265 20.0287 126.054 21.1701 125.968 22.7506C126.054 22.9262 126.054 23.014 126.054 23.1018Z" fill="#FD4D4D"/>
<path d="M145.514 17.8335V24.5066C145.514 26.0871 145.168 26.9651 144.303 27.6675C143.351 28.4578 142.141 28.809 140.93 28.7212C139.632 28.809 138.422 28.37 137.47 27.5797C136.692 26.7895 136.26 25.648 136.346 24.5066V17.8335H139.2V24.331C139.114 25.2968 139.719 26.1749 140.67 26.2627C140.757 26.2627 140.843 26.2627 140.93 26.2627C141.795 26.3505 142.573 25.648 142.573 24.77C142.573 24.6822 142.573 24.5944 142.573 24.5066V17.8335H145.514Z" fill="#FD4D4D"/>
<path d="M152.605 20.9069V20.7313C152.605 20.1166 152.087 19.6776 151.308 19.6776C150.53 19.6776 150.184 20.0288 150.184 20.6434C150.184 20.9069 150.27 21.1703 150.443 21.3459C150.789 21.6093 150.789 21.6093 152.259 22.0483C154.595 22.7507 155.546 23.7166 155.546 25.3849C155.546 27.4043 153.903 28.8092 151.481 28.8092C149.06 28.8092 147.503 27.4922 147.416 25.3849H150.184C150.357 26.2629 150.703 26.7019 151.568 26.7019C152.173 26.7897 152.605 26.3507 152.692 25.7361C152.692 25.7361 152.692 25.7361 152.692 25.6483C152.692 25.0336 152.259 24.6824 150.789 24.2434C148.541 23.541 147.503 22.5751 147.503 20.9069C147.503 18.8874 149.06 17.5703 151.481 17.5703C153.903 17.5703 155.287 18.7996 155.373 20.9947L152.605 20.9069Z" fill="#FD4D4D"/>
<path d="M159.784 23.8043C160.043 25.297 161.427 26.3506 162.984 26.175C163.762 26.0872 164.54 25.5604 164.973 24.858L167.567 25.5604C166.616 27.5799 164.713 28.8092 162.551 28.8092C159.611 28.897 157.016 26.5263 156.93 23.5409C156.93 23.4531 156.93 23.2775 156.93 23.1897C156.757 20.2044 159.005 17.7459 161.946 17.5703C162.119 17.5703 162.292 17.5703 162.378 17.5703C165.405 17.4825 167.913 19.7654 168 22.8385C168 23.0141 168 23.1897 168 23.3653V23.8921H159.784V23.8043ZM164.973 22.1361C164.8 20.819 163.676 19.8532 162.292 19.8532C160.995 19.7654 159.87 20.7312 159.697 22.1361H164.973Z" fill="#FD4D4D"/>
<path d="M10.0006 0H29.3993C34.9418 0 39.3999 4.52599 39.3999 10.1529V29.8471C39.3999 35.474 34.9418 40 29.3993 40H10.0006C4.45809 40 0 35.474 0 29.8471V10.1529C0 4.52599 4.45809 0 10.0006 0Z" fill="#EFE7DC"/>
<path d="M5.30153 22.1408C5.18104 21.2845 5.663 20.4282 6.38593 20.0613C7.95229 19.0827 9.88011 18.9604 11.567 19.6943C12.1694 20.0613 12.7718 20.3059 13.3743 20.7952C13.9767 21.1622 14.2177 22.0185 13.8562 22.7524C13.3743 23.6087 12.8923 24.3426 12.1694 25.0766C10.844 26.7891 8.43424 27.0337 6.62691 25.6882C6.50642 25.5659 6.26544 25.4435 6.14495 25.1989C5.54251 24.3426 5.18104 23.2417 5.30153 22.1408Z" fill="black"/>
<path d="M25.664 17.6147C24.9411 17.4924 24.3387 17.4924 23.7362 17.2477C23.1338 17.0031 22.8928 16.3915 23.0133 15.6575C23.3747 13.945 24.8206 12.7217 26.5075 12.3548C28.3148 11.9878 30.1221 12.9664 30.9655 14.6789C31.086 14.9236 30.8451 15.4129 30.8451 15.7798H30.6041V14.8012L29.3992 16.2691C28.6763 17.0031 27.7123 17.3701 26.6279 17.2477C26.146 17.2477 26.0255 16.8808 26.0255 16.3915C26.0255 15.7798 26.0255 15.2905 26.146 14.6789C26.2665 14.1896 26.5075 13.578 26.7484 13.0887C26.0255 12.7217 25.0616 13.3334 24.3387 14.5566C23.8567 15.5352 24.2182 16.3915 25.664 17.6147Z" fill="black"/>
<path d="M22.6518 31.315C20.6035 31.9266 18.5551 33.0275 16.2659 32.5382C15.9044 32.4159 15.5429 32.2935 15.1815 32.1712C13.4946 31.4373 11.6873 30.948 9.87994 30.8257C8.43408 30.581 7.1087 30.0917 5.90381 29.3578C6.14479 29.2354 6.38576 29.2354 6.62674 29.2354C7.83163 28.9908 9.15701 29.2354 10.3619 29.7247C11.8078 30.4587 13.2536 30.8257 14.6995 31.6819C15.6634 32.0489 16.7478 32.1712 17.7117 31.8042C18.7961 31.5596 19.76 31.315 20.8444 31.0703C21.4469 31.0703 22.0493 31.0703 22.6518 31.0703V31.315Z" fill="black"/>
<path d="M13.2538 10.8867C12.8924 9.78583 11.567 9.17421 10.4826 9.6635C10.3621 9.6635 10.3621 9.6635 10.2416 9.78583C9.27769 10.1528 8.79573 11.0091 8.67524 11.9877C8.67524 12.11 8.67524 12.3546 8.55476 12.477C8.31378 13.5779 8.67525 13.9448 9.75965 14.0672C10.1211 14.0672 10.4826 14.0672 10.844 14.0672C11.9284 14.0672 12.8924 13.3332 13.2538 12.2323C13.3743 11.8653 13.3743 11.376 13.2538 10.8867ZM10.3621 13.8225C9.63916 13.7002 9.1572 13.0886 9.1572 12.477C9.27769 11.2537 10.1211 10.2751 11.326 10.1528C9.39818 11.0091 9.63916 12.3546 10.3621 13.8225Z" fill="black"/>
</svg>
