<svg xmlns="http://www.w3.org/2000/svg" xmlns:xlink="http://www.w3.org/1999/xlink" width="1000" height="1000" viewBox="0 0 1000 1000"><defs><style>.cls-1{fill:#fff;}.cls-2{fill:url(#linear-gradient);}.cls-3{fill:#0b0e11;}.cls-4{fill:none;}</style><linearGradient id="linear-gradient" y1="492.99" x2="1000" y2="492.99" gradientUnits="userSpaceOnUse"><stop offset="0" stop-color="#2f3241"/><stop offset="0.26" stop-color="#2e3847"/><stop offset="0.59" stop-color="#294856"/><stop offset="0.96" stop-color="#236270"/><stop offset="1" stop-color="#226573"/></linearGradient><symbol id="The_One_And_Only_Doge" data-name="The One And Only Doge" viewBox="0 0 1000 1000"><rect class="cls-1" width="1000" height="1000" rx="250"/><path class="cls-2" d="M750,0H250C111.93,0,0,111.93,0,250V550.58c5-7.28,49.44-69.83,106.26-69.83,52,0,53.32,20.71,53.32,20.71l198.54,31.2S393,491.89,491.41,491.89c119.72,0,398.15,99.3,398.15,331.32,0,69-22.78,122.14-56.88,162.78C930.12,951.85,1000,859.09,1000,750V250C1000,111.93,888.07,0,750,0Z"/><path class="cls-3" d="M215.31,716.48c62.18,0,104.87,84.92,226.91,84.92,69.15,0,116.48-21.81,116.48-21.81s-18.1,61.25-116.94,61.25c-143.39,0-201.86-96.52-232.48-96.52-26,0-39,16.71-69.15,16.71s-33.87-15.32-33.87-15.32C154.21,745.71,173.7,716.48,215.31,716.48Z"/><path class="cls-3" d="M679.81,296.52c73.78,0,117.87,63.58,117.87,102.55,0,13.46-28.45,81.68-109.27,81.68-46.17,0-120.43-43.31-120.43-88.17C568,342.77,626.91,296.52,679.81,296.52Z"/><circle class="cls-1" cx="638.51" cy="236.2" r="38.52"/><circle class="cls-1" cx="345.7" cy="208.35" r="38.52"/><path class="cls-3" d="M191.64,343.85c0,17.64,9.28,69.61,66.36,69.61s77-57.08,77-71.46-3.71-79.82-56.15-79.82C232,262.18,191.64,312.76,191.64,343.85Z"/><path class="cls-1" d="M250.81,293.74s-21.35,23-21.35,48c0,27.19,6.27,40.83,6.27,40.83-9.76,0-25.61-32.6-25.61-40C210.12,326.39,240.48,293.74,250.81,293.74Z"/><ellipse class="cls-1" cx="242.92" cy="324.29" rx="24.12" ry="17.66" transform="translate(-138.88 459.94) rotate(-72.72)"/><path class="cls-3" d="M326.71,617.88c-9.12-6.53-9.09-22.17.06-34.93s24-17.8,33.06-11.26a14.64,14.64,0,0,1,2.08,1.85,44.93,44.93,0,0,0,2.83-14.85c0-62.17-91.43-69.59-142.94-69.59-24.59,0-97.91,5.1-97.91,68.68,0,71,55.22,109.51,96.06,109.51,39.22,0,80.52-21.8,108.93-48.12A14.94,14.94,0,0,1,326.71,617.88Z"/><ellipse class="cls-1" cx="200.05" cy="534.11" rx="52.73" ry="11.6"/><path class="cls-1" d="M589.84,391.19c0,9.2,35,50.88,57.74,50.88-7.43-13.58-12.79-32.2-11.94-49.24,0-51.86,45.1-71.09,45.1-71.09C618.09,321.74,589.84,382,589.84,391.19Z"/><ellipse class="cls-1" cx="662.14" cy="362.65" rx="23.63" ry="25.99"/><line class="cls-4" x1="229.46" x2="790.25"/><line class="cls-4" x1="1000" y1="766.59" x2="1000" y2="208.35"/><ellipse class="cls-3" cx="569.44" cy="395.37" rx="13.07" ry="17.25"/><ellipse class="cls-3" cx="329.22" cy="364.04" rx="15.62" ry="11.83" transform="translate(-125.42 549.01) rotate(-70.01)"/></symbol></defs><g id="Layer_2" data-name="Layer 2"><g id="Layer_1-2" data-name="Layer 1"><use width="1000" height="1000" xlink:href="#The_One_And_Only_Doge"/></g></g></svg>