<svg width="28" height="20" viewBox="0 0 28 20" fill="none" xmlns="http://www.w3.org/2000/svg">
<mask id="mask0" mask-type="alpha" maskUnits="userSpaceOnUse" x="0" y="0" width="28" height="20">
<rect width="28" height="20" rx="2" fill="white"/>
</mask>
<g mask="url(#mask0)">
<rect width="28" height="20" fill="#EE343C"/>
<path fill-rule="evenodd" clip-rule="evenodd" d="M12.3865 4.38646C12.1618 4.16175 11.8097 4.12689 11.5453 4.30316L10.9559 4.6961C10.5299 4.98004 10.5697 5.61817 11.0275 5.84709L12.2982 6.4824C12.524 6.59533 12.6667 6.82617 12.6667 7.07869V7.33333C12.6667 7.70152 12.3682 8 12 8H11.4907C11.3872 8 11.2852 7.9759 11.1926 7.92962L9.09645 6.88156C8.8398 6.75323 8.52981 6.80353 8.32691 7.00644L7.98738 7.34596C7.66562 7.66772 7.75365 8.21015 8.16064 8.41365L9.10458 8.88562C9.50357 9.08511 9.53819 9.64121 9.16703 9.88865C8.73637 10.1758 8.86782 10.8402 9.37536 10.9417L9.9373 11.0541C10.4768 11.162 10.6346 11.8574 10.1944 12.1875L9.6913 12.5649C9.36307 12.811 9.53717 13.3333 9.94745 13.3333C9.98236 13.3333 10.0171 13.3291 10.051 13.3206L11.3128 13.0051C11.7912 12.8855 12.1661 13.4175 11.8926 13.8278C11.6535 14.1864 11.9106 14.6667 12.3415 14.6667H12.925C13.1688 14.6667 13.3854 14.8227 13.4625 15.0541C13.6347 15.5707 14.3653 15.5707 14.5375 15.0541C14.6147 14.8227 14.8312 14.6667 15.0751 14.6667H15.6585C16.0895 14.6667 16.3465 14.1864 16.1075 13.8278C15.8339 13.4175 16.2088 12.8855 16.6872 13.0051L17.949 13.3206C17.9829 13.3291 18.0177 13.3333 18.0526 13.3333C18.4628 13.3333 18.6369 12.811 18.3087 12.5649L17.8056 12.1875C17.3654 11.8574 17.5232 11.162 18.0627 11.0541L18.6247 10.9417C19.1322 10.8402 19.2636 10.1758 18.833 9.88865C18.4618 9.64121 18.4964 9.08511 18.8954 8.88562L19.8394 8.41365C20.2464 8.21015 20.3344 7.66772 20.0126 7.34596L19.6731 7.00644C19.4702 6.80353 19.1602 6.75323 18.9036 6.88156L16.8074 7.92962C16.7149 7.9759 16.6128 8 16.5093 8H16C15.6318 8 15.3333 7.70152 15.3333 7.33333V7.07869C15.3333 6.82617 15.476 6.59534 15.7018 6.48242C16.0944 6.28612 16.5621 6.05229 16.9727 5.84697C17.4306 5.61805 17.4701 4.98004 17.0442 4.6961L16.4548 4.30316C16.1903 4.12689 15.8383 4.16175 15.6136 4.38646L14.4714 5.5286C14.2111 5.78895 13.789 5.78894 13.5286 5.5286L12.3865 4.38646Z" fill="#262626"/>
</g>
</svg>
