<svg width="28" height="20" viewBox="0 0 28 20" fill="none" xmlns="http://www.w3.org/2000/svg">
<rect width="28" height="20" rx="2" fill="white"/>
<mask id="mask0" mask-type="alpha" maskUnits="userSpaceOnUse" x="0" y="0" width="28" height="20">
<rect width="28" height="20" rx="2" fill="white"/>
</mask>
<g mask="url(#mask0)">
<rect width="28" height="20" fill="#0B36B2"/>
<g filter="url(#filter0_d)">
<path fill-rule="evenodd" clip-rule="evenodd" d="M22.6667 20V0H8.66669L22.6667 20Z" fill="#FFD045"/>
</g>
<path fill-rule="evenodd" clip-rule="evenodd" d="M17.3333 18.6667L16.3905 18.9428L16.6667 18L16.3905 17.0572L17.3333 17.3333L18.2761 17.0572L18 18L18.2761 18.9428L17.3333 18.6667Z" fill="white"/>
<path fill-rule="evenodd" clip-rule="evenodd" d="M14.6666 14.6667L13.7238 14.9428L14 14L13.7238 13.0572L14.6666 13.3333L15.6095 13.0572L15.3333 14L15.6095 14.9428L14.6666 14.6667Z" fill="white"/>
<path fill-rule="evenodd" clip-rule="evenodd" d="M12 10.6667L11.0572 10.9428L11.3334 10L11.0572 9.0572L12 9.33334L12.9428 9.0572L12.6667 10L12.9428 10.9428L12 10.6667Z" fill="white"/>
<path fill-rule="evenodd" clip-rule="evenodd" d="M9.33333 6.66667L8.39052 6.94281L8.66667 6.00001L8.39052 5.0572L9.33333 5.33334L10.2761 5.0572L10 6.00001L10.2761 6.94281L9.33333 6.66667Z" fill="white"/>
<path fill-rule="evenodd" clip-rule="evenodd" d="M6.66665 2.66667L5.72384 2.94281L5.99998 2.00001L5.72384 1.0572L6.66665 1.33334L7.60946 1.0572L7.33331 2.00001L7.60946 2.94281L6.66665 2.66667Z" fill="white"/>
</g>
<defs>
<filter id="filter0_d" x="8.66669" y="0" width="14" height="20" filterUnits="userSpaceOnUse" color-interpolation-filters="sRGB">
<feFlood flood-opacity="0" result="BackgroundImageFix"/>
<feColorMatrix in="SourceAlpha" type="matrix" values="0 0 0 0 0 0 0 0 0 0 0 0 0 0 0 0 0 0 127 0"/>
<feOffset/>
<feColorMatrix type="matrix" values="0 0 0 0 0 0 0 0 0 0 0 0 0 0 0 0 0 0 0.06 0"/>
<feBlend mode="normal" in2="BackgroundImageFix" result="effect1_dropShadow"/>
<feBlend mode="normal" in="SourceGraphic" in2="effect1_dropShadow" result="shape"/>
</filter>
</defs>
</svg>
