<svg width="28" height="20" viewBox="0 0 28 20" fill="none" xmlns="http://www.w3.org/2000/svg">
<rect width="28" height="20" rx="2" fill="white"/>
<mask id="mask0" mask-type="alpha" maskUnits="userSpaceOnUse" x="0" y="0" width="28" height="20">
<rect width="28" height="20" rx="2" fill="white"/>
</mask>
<g mask="url(#mask0)">
<rect width="28" height="20" fill="#19BFBF"/>
<path fill-rule="evenodd" clip-rule="evenodd" d="M13.3333 14.6666L12.7588 13.5176C12.7023 13.4046 12.5869 13.3333 12.4607 13.3333H12.1381C12.0497 13.3333 11.9649 13.2982 11.9024 13.2357L9.43096 10.7643C9.36845 10.7017 9.33333 10.617 9.33333 10.5286V9.47136C9.33333 9.38296 9.29821 9.29817 9.2357 9.23566L8.06529 8.06525C8.02257 8.02253 7.99226 7.969 7.97761 7.91039L7.37771 5.51081C7.35007 5.40025 7.26786 5.31147 7.15974 5.27543L5.35581 4.67412C5.34084 4.66913 5.32625 4.66309 5.31215 4.65603L4.18426 4.09209C4.07133 4.03563 4 3.92021 4 3.79395V2.99996C4 2.81586 4.14924 2.66663 4.33333 2.66663H5.19526C5.28367 2.66663 5.36845 2.70174 5.43096 2.76426L5.90237 3.23566C5.96488 3.29817 6.04967 3.33329 6.13807 3.33329H7.19526C7.28367 3.33329 7.36845 3.29817 7.43096 3.23566L7.90237 2.76426C7.96488 2.70174 8.04967 2.66663 8.13807 2.66663H10.588C10.6397 2.66663 10.6908 2.67867 10.737 2.70182L11.9296 3.2981C11.9759 3.32124 12.0269 3.33329 12.0787 3.33329H13.2546C13.3064 3.33329 13.3574 3.32124 13.4037 3.2981L14.5963 2.70182C14.6426 2.67867 14.6936 2.66663 14.7454 2.66663H17C17.1841 2.66663 17.3333 2.81586 17.3333 2.99996V3.66663C17.3333 3.85072 17.1841 3.99996 17 3.99996H16.3333C16.1492 3.99996 16 4.1492 16 4.33329V5.79395C16 5.92021 16.0713 6.03563 16.1843 6.09209L16.8509 6.42542C17.0726 6.53624 17.3333 6.37508 17.3333 6.12728V4.99996C17.3333 4.81586 17.4826 4.66663 17.6667 4.66663H19C19.1841 4.66663 19.3333 4.81586 19.3333 4.99996C19.3333 5.18405 19.4826 5.33329 19.6667 5.33329H21C21.1841 5.33329 21.3333 5.48253 21.3333 5.66663V6.61253C21.3333 6.64836 21.3276 6.68395 21.3162 6.71794L20.6915 8.59197C20.6752 8.64107 20.6476 8.68568 20.611 8.72227L18.7049 10.6284C18.6796 10.6537 18.6585 10.683 18.6425 10.715L18.0352 11.9296C18.012 11.9759 18 12.0269 18 12.0786V13C18 13.1841 17.8508 13.3333 17.6667 13.3333H17.5393C17.4131 13.3333 17.2977 13.262 17.2412 13.149L16.7588 12.1842C16.7023 12.0713 16.5869 12 16.4607 12H14.8727C14.7464 12 14.631 12.0713 14.5745 12.1842L14.0745 13.1842C14.0276 13.2781 14.0276 13.3885 14.0745 13.4824L14.5745 14.4824C14.631 14.5953 14.7464 14.6666 14.8727 14.6666H15.8619C15.9503 14.6666 16.0351 14.7017 16.0976 14.7643L17.2357 15.9023C17.2982 15.9648 17.3333 16.0496 17.3333 16.138V17C17.3333 17.1841 17.1841 17.3333 17 17.3333H16.206C16.0798 17.3333 15.9643 17.262 15.9079 17.149L15.4255 16.1842C15.369 16.0713 15.2536 16 15.1273 16H14.206C14.0798 16 13.9643 15.9286 13.9079 15.8157L13.3333 14.6666Z" fill="white"/>
</g>
</svg>
