<svg width="28" height="20" viewBox="0 0 28 20" fill="none" xmlns="http://www.w3.org/2000/svg">
<rect width="28" height="20" rx="2" fill="white"/>
<mask id="mask0" mask-type="alpha" maskUnits="userSpaceOnUse" x="0" y="0" width="28" height="20">
<rect width="28" height="20" rx="2" fill="white"/>
</mask>
<g mask="url(#mask0)">
<rect width="28" height="20" fill="url(#paint0_linear)"/>
<path fill-rule="evenodd" clip-rule="evenodd" d="M13.4445 3.33329C13.3723 3.33329 13.3022 3.35669 13.2445 3.39996L10.7205 5.2929C10.685 5.31956 10.6445 5.33884 10.6014 5.34962L8.03551 5.99108C8.01192 5.99698 7.98904 6.00545 7.96729 6.01632L5.43273 7.2836C5.36822 7.31586 5.31591 7.36816 5.28366 7.43267L4.08652 9.82694C4.03303 9.93393 4.04096 10.0614 4.10731 10.1609L5.27736 11.916C5.31387 11.9707 5.33335 12.0351 5.33335 12.1009V13.8619C5.33335 13.9503 5.36847 14.0351 5.43098 14.0976L6.49679 15.1634C6.59825 15.2649 6.75324 15.29 6.88157 15.2258L10.5963 13.3685C10.6426 13.3453 10.6936 13.3333 10.7454 13.3333H13.2127C13.2906 13.3333 13.3662 13.3606 13.4261 13.4106L17.2406 16.5894C17.3005 16.6393 17.3761 16.6666 17.454 16.6666H19.8216C19.9331 16.6666 20.0371 16.6109 20.099 16.5182L22.6107 12.7506C22.6472 12.6958 22.6667 12.6315 22.6667 12.5657V10.1009C22.6667 10.0351 22.6472 9.97074 22.6107 9.91598L20 5.99996L18.0971 2.82846C18.0369 2.72806 17.9284 2.66663 17.8113 2.66663H17.3927C17.1248 2.66663 16.9906 2.99056 17.1801 3.18002C17.2716 3.27155 17.2943 3.41139 17.2364 3.52717L16.7588 4.48236C16.7023 4.59529 16.5869 4.66663 16.4607 4.66663H14.8727C14.7464 4.66663 14.631 4.59529 14.5745 4.48236L14.0921 3.51755C14.0357 3.40463 13.9203 3.33329 13.794 3.33329H13.4445ZM19.3333 17.3333H18L18.431 17.7643C18.5612 17.8944 18.7722 17.8944 18.9024 17.7643L19.3333 17.3333Z" fill="white"/>
</g>
<defs>
<linearGradient id="paint0_linear" x1="0" y1="0" x2="0" y2="20" gradientUnits="userSpaceOnUse">
<stop stop-color="#19BFBF"/>
<stop offset="1" stop-color="#10ACAC"/>
</linearGradient>
</defs>
</svg>
