<svg width="28" height="20" viewBox="0 0 28 20" fill="none" xmlns="http://www.w3.org/2000/svg">
<rect width="28" height="20" rx="2" fill="white"/>
<mask id="mask0" mask-type="alpha" maskUnits="userSpaceOnUse" x="0" y="0" width="28" height="20">
<rect width="28" height="20" rx="2" fill="white"/>
</mask>
<g mask="url(#mask0)">
<path fill-rule="evenodd" clip-rule="evenodd" d="M0 14.6667H28V9.33334H0V14.6667Z" fill="#0748AE"/>
<path fill-rule="evenodd" clip-rule="evenodd" d="M0 20H28V14.6667H0V20Z" fill="#DE2035"/>
<path fill-rule="evenodd" clip-rule="evenodd" d="M0 9.33333H28V0H0V9.33333Z" fill="#FFD935"/>
<path fill-rule="evenodd" clip-rule="evenodd" d="M12.3999 8C11.7523 8.48651 11.3333 9.26108 11.3333 10.1335C11.3333 11.6062 12.5272 12.8002 14 12.8002C15.4728 12.8002 16.6667 11.6062 16.6667 10.1335C16.6667 9.26108 16.2477 8.48651 15.6 8L14.6667 10.8002H13.3333L12.3999 8Z" fill="#FFD935"/>
<path fill-rule="evenodd" clip-rule="evenodd" d="M14 7.33334L14.6667 10.6667H13.3333L14 7.33334Z" fill="#5FC0DC"/>
<path opacity="0.66" d="M17.3333 6.00001L15.3333 5.33334L14 6.66668L12.6667 5.33334L10.6667 6.00001" stroke="#3F2821" stroke-width="0.666667" stroke-linecap="round" stroke-linejoin="round"/>
</g>
</svg>
