<svg width="28" height="20" viewBox="0 0 28 20" fill="none" xmlns="http://www.w3.org/2000/svg">
<rect width="28" height="20" rx="2" fill="white"/>
<mask id="mask0" mask-type="alpha" maskUnits="userSpaceOnUse" x="0" y="0" width="28" height="20">
<rect width="28" height="20" rx="2" fill="white"/>
</mask>
<g mask="url(#mask0)">
<path fill-rule="evenodd" clip-rule="evenodd" d="M0 5.33333H28V0H0V5.33333Z" fill="#DD172C"/>
<path fill-rule="evenodd" clip-rule="evenodd" d="M0 20H28V14.6667H0V20Z" fill="#DD172C"/>
<path fill-rule="evenodd" clip-rule="evenodd" d="M0 14.6667H28V5.33334H0V14.6667Z" fill="#FFD133"/>
<path fill-rule="evenodd" clip-rule="evenodd" d="M7.33334 9.33333H8.66668V10H7.33334V9.33333Z" fill="#FFEDB1"/>
<path d="M6.05901 9.36101C6.04281 9.16667 6.19618 8.99999 6.39119 8.99999H8.27546C8.47047 8.99999 8.62383 9.16666 8.60764 9.36101L8.43636 11.4164C8.39317 11.9347 7.9599 12.3333 7.43981 12.3333H7.22683C6.70675 12.3333 6.27348 11.9347 6.23029 11.4164L6.05901 9.36101Z" stroke="#A41517" stroke-width="0.666667"/>
<path fill-rule="evenodd" clip-rule="evenodd" d="M6 10H8.66667V10.6667H8L7.33333 12L6.66667 10.6667H6V10Z" fill="#A41517"/>
<rect x="4" y="8" width="1.33333" height="4.66667" rx="0.666667" fill="#A41517"/>
<rect x="9.33334" y="8" width="1.33333" height="4.66667" rx="0.666667" fill="#A41517"/>
<path d="M6 7.73332C6 7.14422 6.47756 6.66666 7.06667 6.66666H7.6C8.1891 6.66666 8.66667 7.14422 8.66667 7.73332C8.66667 7.8806 8.54728 7.99999 8.4 7.99999H6.26667C6.11939 7.99999 6 7.8806 6 7.73332Z" fill="#A41517"/>
</g>
</svg>
