<svg width="28" height="20" viewBox="0 0 28 20" fill="none" xmlns="http://www.w3.org/2000/svg">
<rect width="28" height="20" rx="2" fill="white"/>
<mask id="mask0" mask-type="alpha" maskUnits="userSpaceOnUse" x="0" y="0" width="28" height="20">
<rect width="28" height="20" rx="2" fill="white"/>
</mask>
<g mask="url(#mask0)">
<rect width="28" height="20" fill="#07319C"/>
<path fill-rule="evenodd" clip-rule="evenodd" d="M17.3333 10C17.3333 8.90627 17.3333 7.61316 17.3333 6.66583C17.3333 5.92945 17.9303 5.33334 18.6667 5.33334H22.6667C23.4031 5.33334 24 5.92945 24 6.66583C24 7.61316 24 8.90627 24 10C24 13.3333 20.6667 14.6667 20.6667 14.6667C20.6667 14.6667 17.3333 13.3333 17.3333 10Z" fill="#0072C4"/>
<mask id="mask1" mask-type="alpha" maskUnits="userSpaceOnUse" x="17" y="5" width="7" height="10">
<path fill-rule="evenodd" clip-rule="evenodd" d="M17.3333 10C17.3333 8.90627 17.3333 7.61316 17.3333 6.66583C17.3333 5.92945 17.9303 5.33334 18.6667 5.33334H22.6667C23.4031 5.33334 24 5.92945 24 6.66583C24 7.61316 24 8.90627 24 10C24 13.3333 20.6667 14.6667 20.6667 14.6667C20.6667 14.6667 17.3333 13.3333 17.3333 10Z" fill="white"/>
</mask>
<g mask="url(#mask1)">
<path fill-rule="evenodd" clip-rule="evenodd" d="M18.8691 9.26772C18.186 9.95778 19.5249 9.87026 19.5249 9.87026L20.4785 9.56493C20.4785 9.56493 20.9072 9.6168 21.1966 9.70404C21.3883 9.76183 21.9218 10 21.9218 10C21.9218 10 23.0485 9.77509 22.6524 9.26772C22.2562 8.76034 19.5523 8.57765 18.8691 9.26772Z" fill="#005121"/>
<path fill-rule="evenodd" clip-rule="evenodd" d="M21.7099 8.55085C21.7374 8.54463 21.8014 8.54603 21.8252 8.57511C21.8627 8.62057 21.9394 8.60546 21.9769 8.64927C22.0142 8.6932 22.0577 8.73371 22.0577 8.79619C22.0577 8.85866 22.0504 9.01359 22.0517 9.04762C22.0537 9.10006 22.0627 9.10819 22.1166 9.10679C22.1817 9.10514 22.2714 9.10006 22.2742 8.98362C22.2762 8.90247 22.1954 8.85181 22.1719 8.56317C22.2073 8.53282 22.2388 8.50578 22.227 8.46539C22.2151 8.42489 22.2939 8.40457 22.2861 8.34374C22.2781 8.28305 22.3648 8.24584 22.3294 8.17841C22.2939 8.11085 22.3726 8.10755 22.3412 8.05346C22.3097 7.99949 22.3923 7.95212 22.3569 7.90501C22.3215 7.85765 22.4042 7.81384 22.3609 7.75644C22.3175 7.69905 22.3845 7.66527 22.3412 7.62133C22.3688 7.57752 22.3451 7.45257 22.2584 7.38171C22.1719 7.31073 22.0498 7.27365 21.9788 7.2466C21.8468 7.19632 21.6008 7.21955 21.4274 7.23987C21.2541 7.26006 20.9311 7.28038 20.8326 7.26692C20.7342 7.25346 20.5019 7.23987 20.3187 7.27022C20.256 7.28063 20.1848 7.26184 20.1474 7.22641C20.1175 7.19809 20.1002 7.20114 20.0726 7.20279C20.0451 7.20444 20.0292 7.19593 20.0154 7.16216C19.9911 7.10273 19.9368 7.14362 19.9111 7.06933C19.8939 7.01968 19.8046 7.0626 19.7772 7.02044C19.7495 6.97828 19.7162 6.9732 19.6412 6.97828C19.6374 6.95289 19.596 6.93435 19.5585 6.94108C19.5645 6.89892 19.5231 6.86514 19.4542 6.86679C19.4621 6.81447 19.3657 6.77397 19.3163 6.80609C19.2849 6.76724 19.2218 6.77562 19.2061 6.80609C19.1726 6.76724 19.0662 6.77905 19.0406 6.8212C18.9954 6.79593 18.9074 6.85803 18.9147 6.95632C18.9166 6.98336 18.9184 7.01143 18.8732 7.02044C18.7886 7.03733 18.7394 7.13181 18.6664 7.14527C18.5937 7.15885 18.5208 7.18247 18.507 7.22298C18.4932 7.26349 18.5188 7.30578 18.4913 7.32597C18.4637 7.34628 18.5089 7.36482 18.5227 7.37485C18.5365 7.38501 18.5581 7.4019 18.5621 7.42552C18.5677 7.45905 18.623 7.46908 18.6803 7.43225C18.7039 7.41714 18.7452 7.46273 18.8122 7.4306C18.8791 7.3986 18.9742 7.41549 18.9579 7.46781C18.9501 7.49308 18.9677 7.52012 18.9895 7.54539C19.0111 7.57066 19.0436 7.64698 19.0249 7.69054C18.9974 7.75466 19.0525 7.79022 19.0387 7.84749C19.0249 7.90501 19.0465 7.95733 19.0171 8.03492C18.9874 8.11251 18.987 8.20965 19.0308 8.23746C19.0919 8.27632 19.055 8.35327 19.1076 8.38603C19.1508 8.41295 19.1254 8.47886 19.2061 8.49905C19.2868 8.51936 19.2396 8.57333 19.3242 8.58514C19.4089 8.59695 19.4384 8.65778 19.527 8.64419C19.5923 8.63428 19.6267 8.65016 19.6648 8.66514C19.6726 8.71924 19.6551 8.91771 19.6511 8.96838C19.6476 9.0132 19.6236 9.0847 19.6236 9.12876C19.6236 9.15568 19.6787 9.16241 19.7418 9.16241C19.8046 9.16241 19.8323 9.13714 19.8165 9.06628C19.8008 8.9953 19.7969 8.82247 19.8009 8.71441C19.8556 8.7407 19.9076 8.77752 19.9052 8.81816C19.9012 8.88393 19.9022 9.00203 19.8913 9.06286C19.8836 9.10679 19.8953 9.176 19.8993 9.22159C19.9033 9.23835 20.0095 9.2367 20.0529 9.22159C20.0962 9.20635 20.0962 9.16584 20.0922 8.98184C20.0902 8.89079 19.9937 8.79771 20.1159 8.75225C20.175 8.73028 20.2577 8.67962 20.2892 8.63251C20.3206 8.58514 20.3897 8.60368 20.4388 8.62743C20.488 8.65105 20.5668 8.68711 20.6162 8.67124C20.6791 8.65105 20.7461 8.70159 20.8012 8.67124C20.8563 8.64089 20.9273 8.6932 20.9725 8.65612C21.0178 8.61892 21.0966 8.65435 21.1301 8.61892C21.1636 8.58349 21.3014 8.63924 21.3507 8.592C21.3999 8.54463 21.4668 8.60546 21.5122 8.57003C21.524 8.56063 21.5381 8.5586 21.5535 8.55974C21.5517 8.63962 21.5368 8.76673 21.5338 8.80635C21.5302 8.8513 21.5062 8.92266 21.5062 8.9666C21.5062 8.99365 21.5614 9.00038 21.6243 9.00038C21.6874 9.00038 21.715 8.97511 21.6993 8.90425C21.6834 8.83339 21.7061 8.65905 21.7099 8.55085Z" fill="#A3A3A3"/>
<path fill-rule="evenodd" clip-rule="evenodd" d="M18.5233 7.31999C18.5496 7.30082 18.5252 7.26095 18.5384 7.2226C18.5516 7.18437 18.6213 7.16203 18.6911 7.14933C18.7609 7.1365 18.808 7.04723 18.8892 7.03123C18.9325 7.02272 18.9307 6.99618 18.9288 6.97066C18.9219 6.87783 19.0061 6.81917 19.0495 6.84317C19.0739 6.80317 19.1759 6.79199 19.2079 6.82869C19.223 6.79999 19.2833 6.79199 19.3135 6.82869C19.3606 6.79847 19.4531 6.83669 19.4455 6.88609C19.5116 6.88457 19.5511 6.91644 19.5455 6.95631C19.5813 6.94996 19.6209 6.96749 19.6248 6.99136C19.6187 7.0306 19.7083 7.04063 19.6668 7.06603C19.6305 7.08825 19.596 7.07949 19.5547 7.04914C19.5133 7.01866 19.3754 7.04571 19.3557 7.06095C19.336 7.07618 19.3144 7.08291 19.2985 7.0711C19.2828 7.0593 19.2455 7.04063 19.2277 7.04241C19.2099 7.04406 19.1726 7.04406 19.1508 7.00863C19.1292 6.9732 19.0741 6.96812 19.0643 6.98158C19.0545 6.99504 19.0859 7.04406 19.1175 7.0626C19.1489 7.08126 19.1332 7.11669 19.1707 7.13688C19.1951 7.15022 19.1726 7.19593 19.1588 7.22298C19.1451 7.25003 19.0919 7.24152 19.0879 7.22133C19.084 7.20114 19.0701 7.18755 19.0387 7.2179C19.0071 7.24837 18.9403 7.23987 18.9245 7.23149C18.9088 7.22298 18.8653 7.20787 18.8359 7.21625C18.8062 7.22476 18.8496 7.23822 18.8536 7.25003C18.8575 7.26183 18.8062 7.26691 18.7768 7.26691C18.7473 7.26691 18.7373 7.28368 18.7551 7.2871C18.7729 7.29053 18.8416 7.29396 18.8693 7.28037C18.8969 7.26691 18.9815 7.28037 18.9895 7.30577C18.9973 7.33104 18.9403 7.3412 18.9067 7.33777C18.8572 7.33282 18.7846 7.35974 18.7492 7.36812C18.7138 7.37663 18.6193 7.35466 18.5818 7.36482C18.5445 7.37485 18.5076 7.3351 18.5233 7.31999Z" fill="#A3A3A3"/>
<path fill-rule="evenodd" clip-rule="evenodd" d="M19.1568 7.52687C19.1214 7.54033 19.1332 7.58083 19.1648 7.59772C19.1963 7.61461 19.2671 7.62134 19.3125 7.61296C19.3577 7.60445 19.3676 7.61804 19.3381 7.63493C19.3085 7.65169 19.3833 7.65512 19.3774 7.68217C19.3716 7.70909 19.4049 7.70401 19.4365 7.70236C19.468 7.70071 19.5094 7.68039 19.5448 7.66185C19.5802 7.64331 19.6058 7.65677 19.5723 7.6889C19.539 7.7209 19.4267 7.76153 19.3381 7.75645C19.2494 7.75137 19.2021 7.77156 19.2218 7.80026C19.2415 7.82896 19.336 7.83404 19.3852 7.8188C19.4345 7.80369 19.4267 7.83074 19.3892 7.84915C19.3517 7.86782 19.2985 7.86947 19.2534 7.86782C19.208 7.86617 19.1686 7.90502 19.2277 7.92687C19.2868 7.94883 19.3657 7.93537 19.3951 7.95391C19.4248 7.97245 19.5153 7.94375 19.5172 7.97588C19.5191 8.00788 19.4916 8.01969 19.4384 8.01639C19.3852 8.01296 19.4009 8.03696 19.4405 8.05004C19.4759 8.06198 19.539 8.06198 19.5723 8.05855C19.6058 8.05525 19.596 8.0889 19.5625 8.10071C19.5291 8.11252 19.4208 8.12941 19.3676 8.12775C19.3144 8.1261 19.3399 8.15988 19.4089 8.15988C19.6196 8.15988 19.6905 8.0602 19.7437 7.99099C19.7698 7.95709 19.8205 7.93868 19.8323 7.95899C19.8442 7.97918 19.8461 7.98426 19.8225 8.00115C19.7988 8.01804 19.8046 8.0282 19.848 8.02985C19.8913 8.0315 19.9544 8.01969 19.9919 8.00966C20.0292 7.9995 20.1394 8.06337 20.0489 8.06528C19.8894 8.06871 19.6925 8.1261 19.6276 8.14972C19.5625 8.17334 19.4541 8.21779 19.3873 8.2155C19.3381 8.21385 19.3183 8.23239 19.3381 8.25436C19.3577 8.27633 19.4208 8.27633 19.4562 8.26617C19.4916 8.25601 19.4994 8.26617 19.4759 8.28636C19.4523 8.30668 19.3932 8.31506 19.3517 8.32191C19.3105 8.32864 19.2901 8.35506 19.3223 8.36572C19.3833 8.38604 19.3282 8.40458 19.3716 8.41474C19.4148 8.4249 19.3676 8.4569 19.4148 8.46706C19.4621 8.47722 19.4897 8.47214 19.5251 8.44852C19.5606 8.4249 19.5802 8.41131 19.6177 8.41474C19.6551 8.41817 19.6808 8.40115 19.7024 8.37588C19.724 8.35061 19.7969 8.30502 19.8205 8.32699C19.8442 8.34896 19.8934 8.30833 19.9033 8.33029C19.9131 8.35226 19.9544 8.3388 19.9643 8.36915C19.9751 8.40293 20.0214 8.40966 20.0529 8.39785C20.0843 8.38604 20.11 8.35734 20.11 8.31506C20.11 8.2729 20.1218 8.25601 20.1337 8.3016C20.1454 8.34718 20.1888 8.36064 20.2104 8.3388C20.232 8.31683 20.2399 8.2409 20.2242 8.20547C20.2085 8.16991 20.2064 8.12433 20.2223 8.11595C20.238 8.10756 20.2754 8.18515 20.2911 8.21893C20.307 8.25271 20.3482 8.24255 20.3503 8.20877C20.3522 8.17499 20.3897 8.1581 20.4172 8.1835C20.4448 8.20877 20.4291 8.29322 20.4369 8.33372C20.4448 8.37423 20.5215 8.32356 20.5295 8.33702C20.5374 8.35061 20.5668 8.35391 20.5787 8.32522C20.5905 8.29652 20.6181 8.27125 20.6338 8.28814C20.6497 8.30502 20.6732 8.33372 20.683 8.36572C20.6929 8.39785 20.7283 8.41474 20.75 8.38096C20.7716 8.34718 20.7874 8.28141 20.7796 8.23569C20.7716 8.19023 20.7855 8.16153 20.8051 8.18515C20.8248 8.20877 20.8228 8.2729 20.8248 8.32522C20.8268 8.37753 20.8917 8.37258 20.8917 8.29487C20.8917 8.25944 20.9114 8.25271 20.9174 8.2729C20.9233 8.29322 20.9233 8.32699 20.9292 8.3421C20.9437 8.37956 20.9943 8.35899 21 8.33372C21.006 8.30833 20.9962 8.21715 20.9843 8.17677C20.9725 8.13614 20.9962 8.10756 21.0159 8.12941C21.0356 8.15137 21.0394 8.20877 21.0434 8.2729C21.0473 8.33702 21.0886 8.34045 21.1104 8.32191C21.132 8.30325 21.132 8.24928 21.1223 8.21042C21.1123 8.17169 21.1439 8.17169 21.1577 8.19531C21.1714 8.21893 21.1951 8.20369 21.1911 8.18515C21.1873 8.16661 21.2068 8.14972 21.2265 8.17499C21.2463 8.20039 21.2403 8.25779 21.2305 8.30325C21.2206 8.34896 21.2797 8.34376 21.3073 8.30502C21.3348 8.26617 21.3211 8.15988 21.2975 8.1261C21.2738 8.09233 21.2759 8.04839 21.2895 8.00966C21.3034 7.9708 21.3291 7.96902 21.331 7.98604C21.3329 8.0028 21.3448 8.0315 21.3664 8.05347C21.388 8.07544 21.3999 8.07887 21.4037 8.04496C21.4077 8.01131 21.4274 8.01969 21.4353 8.04496C21.4433 8.07036 21.4569 8.09055 21.4766 8.06871C21.4963 8.04674 21.522 8.06363 21.5063 8.09741C21.4904 8.13118 21.4904 8.16153 21.5023 8.19531C21.5141 8.22909 21.5554 8.22401 21.5594 8.18515C21.5676 8.10439 21.5791 8.1581 21.5889 8.19353C21.5987 8.22909 21.6283 8.22731 21.6343 8.20712C21.6402 8.1868 21.6461 8.18185 21.6461 8.20369C21.6461 8.22566 21.6559 8.2442 21.6815 8.2442C21.7071 8.2442 21.7012 8.20039 21.7129 8.17334C21.7248 8.14629 21.7464 8.1835 21.776 8.24585C21.8055 8.30833 21.8271 8.24928 21.8962 8.39112C21.9243 8.4489 21.9651 8.3995 21.9631 8.37931C21.9611 8.35899 21.967 8.34553 22.0005 8.34553C22.034 8.34553 22.0615 8.3388 22.0498 8.31683C22.038 8.29487 22.0458 8.25436 22.0439 8.20877C22.042 8.16318 22.0477 8.13791 22.0537 8.16318C22.0596 8.18845 22.0793 8.22401 22.1107 8.24255C22.1423 8.26109 22.1639 8.21042 22.1383 8.17842C22.1128 8.14629 22.0774 8.07036 22.0793 8.00623C22.0808 7.95899 22.1028 7.9741 22.1028 8.00788C22.1028 8.04166 22.1225 8.10249 22.1522 8.11595C22.1817 8.12941 22.1935 8.06693 22.1797 8.03493C22.166 8.0028 22.1581 7.95899 22.1876 7.95049C22.2171 7.9421 22.1797 7.90668 22.1541 7.88128C22.1285 7.85601 22.1128 7.83074 22.1581 7.83239C22.2033 7.83404 22.166 7.80534 22.1442 7.7868C22.1225 7.76826 22.0852 7.73106 22.1442 7.73614C22.2033 7.74122 22.1837 7.71087 22.16 7.69398C22.1363 7.67709 22.1225 7.64496 22.1639 7.64674C22.2054 7.64839 22.2308 7.62807 22.227 7.61296C22.2119 7.55442 22.1128 7.48636 22.0517 7.43404C21.9907 7.38172 21.8922 7.32941 21.839 7.3209C21.7858 7.31239 21.7839 7.34629 21.7977 7.36649C21.8114 7.38668 21.839 7.40026 21.843 7.37995C21.8468 7.35975 21.8882 7.38172 21.9079 7.40864C21.9276 7.43569 21.9945 7.46947 22.036 7.49982C22.0774 7.53017 21.9808 7.51506 21.9335 7.47455C21.9065 7.45131 21.9098 7.4795 21.9454 7.51163C21.9808 7.54375 21.9354 7.55722 21.8981 7.53017C21.8606 7.50325 21.7642 7.42731 21.7031 7.37829C21.6421 7.32941 21.6322 7.34122 21.6303 7.37322C21.6283 7.40534 21.65 7.42731 21.6894 7.45423C21.7288 7.48128 21.778 7.52344 21.8154 7.55214C21.8528 7.58083 21.8214 7.59937 21.7977 7.57906C21.774 7.55887 21.6934 7.50325 21.6461 7.46439C21.5987 7.42553 21.5554 7.40699 21.526 7.41207C21.4963 7.41715 21.4984 7.44585 21.5338 7.4762C21.5692 7.50655 21.6126 7.56395 21.6126 7.59772C21.6126 7.6315 21.5811 7.65512 21.5652 7.59442C21.5495 7.5336 21.4747 7.46274 21.4196 7.40864C21.3645 7.35468 21.3092 7.34452 21.2679 7.34795C21.2265 7.35125 21.2285 7.39175 21.2285 7.42388C21.2285 7.45588 21.2009 7.43734 21.199 7.41372C21.1971 7.3901 21.1655 7.36991 21.1477 7.37156C21.1301 7.37322 21.136 7.42223 21.1301 7.4442C21.1242 7.46604 21.0966 7.48636 21.0966 7.43569C21.0966 7.38502 21.0316 7.35975 21.004 7.35798C20.9765 7.35633 20.9508 7.36649 20.9646 7.38845C20.9784 7.41029 20.9725 7.46947 20.9627 7.50325C20.9528 7.5369 20.9233 7.47785 20.9174 7.41537C20.9114 7.35302 20.819 7.30909 20.754 7.32763C20.6889 7.34629 20.7383 7.38668 20.7264 7.42553C20.7145 7.46439 20.6968 7.42896 20.6908 7.38845C20.6851 7.34795 20.6535 7.32255 20.6103 7.33271C20.5668 7.34287 20.5374 7.36306 20.5393 7.3901C20.5412 7.41715 20.5412 7.44077 20.5314 7.48458C20.5215 7.52852 20.5039 7.50655 20.5058 7.47785C20.5079 7.44915 20.498 7.40191 20.488 7.37487C20.4783 7.34795 20.4624 7.37322 20.4664 7.40699C20.4704 7.44077 20.4605 7.51836 20.4448 7.56572C20.4291 7.61296 20.4054 7.61461 20.4172 7.55049C20.4291 7.48636 20.3994 7.39175 20.37 7.34795C20.3488 7.31658 20.3011 7.30579 20.3011 7.3496C20.3011 7.39353 20.3148 7.42553 20.3503 7.45766C20.3857 7.48966 20.3581 7.56902 20.3227 7.61131C20.2871 7.65347 20.2892 7.59264 20.3011 7.54706C20.3128 7.50147 20.2479 7.48636 20.2223 7.47785C20.1966 7.46947 20.2498 7.42388 20.2617 7.36306C20.2674 7.33309 20.2596 7.31417 20.236 7.31239C20.2123 7.31074 20.1494 7.36814 20.1218 7.41029C20.1297 7.36649 20.1218 7.32763 20.0981 7.32763C20.0745 7.32763 20.0489 7.36991 20.0313 7.40026C20.0135 7.43061 19.9957 7.41372 20.0135 7.38172C20.0313 7.3496 20.0587 7.2635 20.0233 7.24496C19.9879 7.22642 19.9563 7.30236 19.919 7.28877C19.8978 7.28115 19.9268 7.23315 19.9387 7.21118C19.9504 7.18922 19.9268 7.17233 19.8737 7.21283C19.8205 7.25347 19.7969 7.31925 19.783 7.35975C19.7694 7.40026 19.6748 7.46604 19.6236 7.50147C19.5723 7.5369 19.5507 7.52344 19.5763 7.5082C19.602 7.49309 19.6531 7.44585 19.6787 7.42731C19.7043 7.40864 19.6925 7.39772 19.6433 7.42972C19.5941 7.46185 19.5045 7.52014 19.4128 7.54033C19.359 7.55226 19.3517 7.5421 19.4049 7.52687C19.4581 7.51163 19.5802 7.43899 19.6098 7.40534C19.6283 7.38414 19.5802 7.40191 19.5566 7.40699C19.5331 7.41207 19.5134 7.40534 19.5606 7.38845C19.6077 7.37156 19.7575 7.23823 19.7891 7.18922C19.8205 7.14033 19.7929 7.12166 19.7732 7.12344C19.7535 7.12509 19.726 7.1369 19.7319 7.11671C19.7378 7.09639 19.724 7.06934 19.6984 7.07785C19.6728 7.08623 19.6748 7.13525 19.6649 7.16217C19.6551 7.18922 19.5999 7.22477 19.5645 7.22477C19.5291 7.22477 19.4799 7.2315 19.4424 7.25677C19.4049 7.28204 19.3873 7.25842 19.4049 7.23823C19.4227 7.21791 19.4621 7.21283 19.5015 7.21118C19.5409 7.20953 19.5842 7.20445 19.6177 7.17233C19.6511 7.14033 19.6531 7.11493 19.6276 7.11328C19.602 7.11163 19.5585 7.08293 19.5448 7.07112C19.4748 7.01106 19.3467 7.09474 19.2966 7.14363C19.2691 7.17068 19.1745 7.24839 19.1451 7.26858C19.1154 7.28877 19.1273 7.31747 19.1765 7.27874C19.2258 7.23988 19.2415 7.26693 19.1963 7.29563C19.1508 7.32433 19.1175 7.36649 19.1332 7.38172C19.1489 7.39683 19.21 7.37829 19.2434 7.35975C19.2769 7.34122 19.2928 7.38668 19.21 7.40191C19.1544 7.4122 19.135 7.43175 19.1785 7.43404C19.212 7.43569 19.2631 7.42223 19.3105 7.39861C19.3577 7.37487 19.3951 7.38845 19.3557 7.41207C19.3163 7.43569 19.2297 7.46782 19.1864 7.46782C19.1501 7.46782 19.1923 7.51341 19.1568 7.52687Z" fill="white"/>
<path fill-rule="evenodd" clip-rule="evenodd" d="M19.3852 7.14956C19.4326 7.10023 19.4739 7.07863 19.5172 7.1141C19.5565 7.14623 19.5606 7.16023 19.5113 7.14956C19.4621 7.1389 19.4286 7.14956 19.3991 7.18143C19.3695 7.21343 19.336 7.2009 19.3852 7.14956Z" fill="#A3A3A3"/>
<path fill-rule="evenodd" clip-rule="evenodd" d="M18.6055 7.27487C18.6409 7.2394 18.6979 7.2394 18.7236 7.20047C18.7492 7.1614 18.7768 7.17567 18.7452 7.21287C18.7138 7.25007 18.6528 7.25727 18.6271 7.2838C18.6015 7.31034 18.5877 7.2926 18.6055 7.27487Z" fill="#A3A3A3"/>
<path fill-rule="evenodd" clip-rule="evenodd" d="M18.8261 7.13935C18.8474 7.13642 18.8891 7.11095 18.9147 7.08082C18.9403 7.05069 18.9954 7.04002 19.0288 7.07549C19.0623 7.11095 19.08 7.12335 19.0978 7.13055C19.1154 7.13762 19.1154 7.16069 19.0879 7.16762C19.0603 7.17482 19.023 7.18015 19.0033 7.17122C18.9836 7.16242 18.954 7.15535 18.9304 7.16069C18.9067 7.16589 18.8969 7.15535 18.9166 7.14642C18.9363 7.13762 18.9599 7.11095 18.9717 7.10029C18.9836 7.08975 19.015 7.09855 18.9974 7.10922C18.9796 7.11989 18.9874 7.14282 19.0052 7.15175C19.023 7.16069 19.0584 7.16069 19.0741 7.14469C19.0506 7.12162 19.0111 7.09149 18.9954 7.08269C18.9796 7.07375 18.9658 7.07015 18.9461 7.09149C18.9264 7.11282 18.8791 7.16415 18.834 7.16242C18.7886 7.16069 18.8005 7.14282 18.8261 7.13935Z" fill="#A3A3A3"/>
<path fill-rule="evenodd" clip-rule="evenodd" d="M20.0705 7.45736C20.053 7.48176 20.037 7.51322 20.0351 7.53802C20.0332 7.56282 20.0559 7.57976 20.0587 7.54869C20.0616 7.51762 20.0646 7.49909 20.0892 7.47602C20.1139 7.45296 20.0902 7.42989 20.0705 7.45736Z" fill="#A3A3A3"/>
<path fill-rule="evenodd" clip-rule="evenodd" d="M19.8294 7.4568C19.8498 7.44853 19.8845 7.42933 19.9012 7.4116C19.918 7.394 19.9288 7.40546 19.912 7.42493C19.8953 7.4444 19.8569 7.46746 19.8391 7.4728C19.8215 7.47813 19.8077 7.46573 19.8294 7.4568Z" fill="#A3A3A3"/>
<path fill-rule="evenodd" clip-rule="evenodd" d="M19.8599 7.55541C19.8316 7.58944 19.72 7.67033 19.6865 7.68544C19.653 7.70068 19.6649 7.72265 19.7024 7.71084C19.6748 7.73268 19.6136 7.76824 19.5744 7.77827C19.535 7.78843 19.527 7.81878 19.5861 7.80024C19.6452 7.7817 19.7279 7.73268 19.7495 7.71084C19.7713 7.68887 19.7437 7.67871 19.7772 7.65509C19.8107 7.63148 19.8726 7.5883 19.8815 7.57065C19.8953 7.54373 19.8796 7.53179 19.8599 7.55541Z" fill="#A3A3A3"/>
<path fill-rule="evenodd" clip-rule="evenodd" d="M19.7378 7.83073C19.78 7.81016 19.8588 7.73739 19.8815 7.69562C19.8953 7.67035 19.9228 7.67365 19.9012 7.7125C19.8796 7.75136 19.7988 7.82057 19.7713 7.83911C19.7437 7.85765 19.6925 7.85257 19.7378 7.83073Z" fill="#A3A3A3"/>
<path fill-rule="evenodd" clip-rule="evenodd" d="M20.6338 7.4306C20.6223 7.45435 20.62 7.50997 20.624 7.53689C20.6279 7.56393 20.6516 7.58425 20.6476 7.54374C20.6437 7.50324 20.6437 7.46273 20.6574 7.45092C20.6713 7.43898 20.6535 7.39009 20.6338 7.4306Z" fill="#A3A3A3"/>
<path fill-rule="evenodd" clip-rule="evenodd" d="M20.8741 7.53015C20.8941 7.54856 20.9036 7.63491 20.9016 7.66691C20.8997 7.69904 20.9332 7.69904 20.9311 7.65345C20.9292 7.60787 20.9252 7.55047 20.9076 7.52012C20.8898 7.48964 20.8465 7.50488 20.8741 7.53015Z" fill="#A3A3A3"/>
<path fill-rule="evenodd" clip-rule="evenodd" d="M21.0848 7.58591C21.0969 7.60801 21.1123 7.65004 21.1123 7.68039C21.1123 7.71087 21.138 7.69728 21.1399 7.66185C21.1418 7.62642 21.136 7.59607 21.1223 7.57245C21.1085 7.54883 21.067 7.55379 21.0848 7.58591Z" fill="#A3A3A3"/>
<path fill-rule="evenodd" clip-rule="evenodd" d="M21.2148 7.55951C21.204 7.53231 21.1873 7.50805 21.1753 7.51165C21.1636 7.51525 21.1714 7.54005 21.1873 7.56658C21.2028 7.59325 21.2266 7.58965 21.2148 7.55951Z" fill="#A3A3A3"/>
<path fill-rule="evenodd" clip-rule="evenodd" d="M20.3916 7.74793C20.3857 7.81866 20.3482 7.88126 20.303 7.90323C20.2577 7.9252 20.2655 7.96062 20.3206 7.9252C20.3759 7.88977 20.4172 7.82894 20.4291 7.77497C20.4408 7.72088 20.3956 7.70069 20.3916 7.74793Z" fill="#A3A3A3"/>
<path fill-rule="evenodd" clip-rule="evenodd" d="M20.2931 7.71594C20.2695 7.73956 20.2557 7.79023 20.2557 7.82896C20.2557 7.86782 20.2714 7.83912 20.2754 7.81715C20.2794 7.79518 20.2871 7.76483 20.307 7.75467C20.3266 7.74451 20.3168 7.69232 20.2931 7.71594Z" fill="#A3A3A3"/>
<path fill-rule="evenodd" clip-rule="evenodd" d="M21.9985 7.76483C22.0193 7.79899 22.0498 7.85435 22.0596 7.88635C22.0695 7.91848 22.0458 7.92686 22.038 7.89816C22.03 7.86946 21.9926 7.80534 21.9788 7.78337C21.9651 7.76153 21.9748 7.72597 21.9985 7.76483Z" fill="#A3A3A3"/>
<path d="M16 9.33333C16 9.33333 18.2679 10.0071 18.6507 10.0071C18.7583 10.0071 20.2273 9.67023 20.6677 9.67023C20.8324 9.67023 22.353 9.90101 22.75 10.0071C23.1471 10.1132 25.3354 9.33333 25.3354 9.33333" stroke="white" stroke-width="0.666667" stroke-linecap="round" stroke-linejoin="round"/>
<path d="M16 10.6667C16 10.6667 18.2679 11.3405 18.6507 11.3405C18.7583 11.3405 20.2273 11.0036 20.6677 11.0036C20.8324 11.0036 22.353 11.2344 22.75 11.3405C23.1471 11.4466 25.3354 10.6667 25.3354 10.6667" stroke="white" stroke-width="0.666667" stroke-linecap="round" stroke-linejoin="round"/>
<path d="M16 13.3333C16 13.3333 18.2679 14.0071 18.6507 14.0071C18.7583 14.0071 19.634 13.4619 20.6677 13.4619C21.7014 13.4619 22.353 13.901 22.75 14.0071C23.1471 14.1132 25.3354 13.3333 25.3354 13.3333L32.5128 14.4813" stroke="white" stroke-width="1.33333" stroke-linecap="round" stroke-linejoin="round"/>
</g>
<path d="M17.6667 10V9.9486V9.8969V9.84494V9.79273V9.74027V9.68759V9.63469V9.58158V9.52828V9.4748V9.42115V9.36735V9.3134V9.28638V9.27962V9.27286V9.25933V9.20514V9.15084V9.09645V9.04198V8.98745V8.93286V8.87822V8.82356V8.76888V8.74153V8.7347V8.72786V8.72103V8.71419V8.70736V8.70052V8.69368V8.68685V8.68001V8.67318V8.66635V8.65951V8.65268V8.64584V8.63901V8.63218V8.62535V8.61852V8.61168V8.60485V8.59802V8.59119V8.58436V8.57753V8.57071V8.56388V8.55705V8.55023V8.5434V8.53658V8.52975V8.52293V8.51611V8.50928V8.50246V8.49564V8.48883V8.48201V8.47519V8.46837V8.46156V8.45474V8.44793V8.44112V8.43431V8.4275V8.42069V8.41388V8.40708V8.40027V8.39347V8.38667V8.37986V8.37306V8.36627V8.35947V8.35267V8.34588V8.33908V8.33229V8.3255V8.31871V8.31193V8.30514V8.29836V8.29157V8.28479V8.27801V8.27124V8.26446V8.25769V8.25092V8.24414V8.23738V8.23061V8.22384V8.21708V8.21032V8.20356V8.1968V8.19005V8.18329V8.17654V8.16979V8.16305V8.1563V8.14956V8.14282V8.13608V8.12934V8.12261V8.11588V8.10915V8.10242V8.09569V8.08897V8.08225V8.07553V8.06881V8.0621V8.05539V8.04868V8.04198V8.03527V8.02857V8.02187V8.01518V8.00848V8.00179V7.99511V7.98842V7.98174V7.97506V7.96838V7.96171V7.95504V7.94837V7.9417V7.93504V7.92838V7.92172V7.91507V7.90842V7.90177V7.89513V7.88849V7.87521V7.8487V7.79584V7.74319V7.69078V7.63862V7.58671V7.53506V7.48371V7.43264V7.38188V7.33144V7.28134V7.23158V7.18217V7.13313V7.08448V7.03622V6.94093V6.84737V6.75564V6.66583C17.6667 6.11382 18.1141 5.66668 18.6667 5.66668H22.6667C23.2192 5.66668 23.6667 6.11382 23.6667 6.66583V6.67138V6.67695V6.68252V6.6881V6.69368V6.69928V6.70488V6.71049V6.7161V6.72173V6.72736V6.733V6.73865V6.7443V6.74997V6.75564V6.76132V6.767V6.77269V6.7784V6.7841V6.78982V6.79554V6.80127V6.80701V6.81275V6.8185V6.82426V6.83003V6.8358V6.84158V6.84737V6.85317V6.85897V6.86478V6.8706V6.87642V6.88225V6.88809V6.89393V6.89978V6.90564V6.91151V6.91738V6.92326V6.92914V6.93503V6.94093V6.94684V6.95275V6.95867V6.9646V6.97053V6.97647V6.98242V6.98837V6.99433V7.00029V7.00626V7.01224V7.01823V7.02422V7.03022V7.03622V7.04223V7.04825V7.05427V7.0603V7.06634V7.07238V7.07843V7.08448V7.09054V7.09661V7.10268V7.10876V7.11485V7.12094V7.12703V7.13314V7.13924V7.14536V7.15148V7.15761V7.16374V7.16988V7.17602V7.18217V7.18833V7.19449V7.20066V7.20683V7.21301V7.21919V7.22538V7.23158V7.23778V7.24398V7.2502V7.25641V7.26264V7.26887V7.2751V7.28134V7.28758V7.29383V7.30009V7.30635V7.31262V7.31889V7.32516V7.33145V7.33773V7.34402V7.35032V7.35662V7.36293V7.36924V7.37556V7.38188V7.38821V7.39454V7.40088V7.40722V7.41357V7.41992V7.42628V7.43264V7.43901V7.44538V7.45176V7.45814V7.46452V7.47091V7.47731V7.48371V7.49011V7.49652V7.50293V7.50935V7.51577V7.5222V7.52863V7.53507V7.54151V7.54795V7.5544V7.56085V7.56731V7.57377V7.58024V7.58671V7.59318V7.59966V7.60614V7.61263V7.61912V7.62561V7.63211V7.63862V7.64512V7.65163V7.65815V7.66467V7.67119V7.67772V7.68425V7.69078V7.69732V7.70386V7.71041V7.71696V7.72351V7.73007V7.73663V7.7432V7.74976V7.75634V7.76291V7.76949V7.77607V7.78266V7.78925V7.79584V7.80244V7.80904V7.81564V7.82224V7.82885V7.83547V7.84208V7.8487V7.85533V7.86195V7.86858V7.87521V7.88185V7.88849V7.89513V7.90177V7.90842V7.91507V7.92173V7.92838V7.93504V7.9417V7.94837V7.95504V7.96171V7.96838V7.97506V7.98174V7.98842V7.99511V8.00179V8.00849V8.01518V8.02187V8.02857V8.03527V8.04198V8.04868V8.05539V8.0621V8.06882V8.07553V8.08225V8.08897V8.09569V8.10242V8.10915V8.11588V8.12261V8.12934V8.13608V8.14282V8.14956V8.1563V8.16305V8.16979V8.17654V8.1833V8.19005V8.1968V8.20356V8.21032V8.21708V8.22385V8.23061V8.23738V8.24415V8.25092V8.25769V8.26446V8.27124V8.27802V8.28479V8.29158V8.29836V8.30514V8.31193V8.31871V8.3255V8.33229V8.33908V8.34588V8.35267V8.35947V8.36627V8.37306V8.37986V8.38667V8.39347V8.40027V8.40708V8.41388V8.42069V8.4275V8.43431V8.44112V8.44793V8.45475V8.46156V8.46837V8.47519V8.48201V8.48883V8.49564V8.50246V8.50929V8.51611V8.52293V8.52975V8.53658V8.5434V8.55023V8.55705V8.56388V8.57071V8.57754V8.58436V8.59119V8.59802V8.60485V8.61168V8.61852V8.62535V8.63218V8.63901V8.64585V8.65268V8.65951V8.66635V8.67318V8.68002V8.68685V8.69369V8.70052V8.70736V8.71419V8.72103V8.72786V8.7347V8.74153V8.74837V8.75521V8.76204V8.76888V8.77571V8.78255V8.78938V8.79622V8.80305V8.80989V8.81672V8.82356V8.83039V8.83723V8.84406V8.85089V8.85773V8.86456V8.87139V8.87822V8.88505V8.89188V8.89871V8.90554V8.91237V8.9192V8.92603V8.93286V8.93968V8.94651V8.95333V8.96016V8.96698V8.9738V8.98063V8.98745V8.99427V9.00109V9.00791V9.01472V9.02154V9.02836V9.03517V9.04198V9.0488V9.05561V9.06242V9.06923V9.07604V9.08284V9.08965V9.09645V9.10326V9.11006V9.11686V9.12366V9.13046V9.13725V9.14405V9.15084V9.15763V9.16442V9.17121V9.178V9.18479V9.19157V9.19836V9.20514V9.21192V9.2187V9.22547V9.23225V9.23902V9.24579V9.25256V9.25933V9.2661V9.27286V9.27962V9.28638V9.29314V9.2999V9.30665V9.3134V9.32015V9.3269V9.33365V9.34039V9.34713V9.35387V9.36061V9.36735V9.37408V9.38081V9.38754V9.39427V9.40099V9.40771V9.41443V9.42115V9.42786V9.43458V9.44129V9.44799V9.4547V9.4614V9.4681V9.4748V9.48149V9.48818V9.49487V9.50156V9.50824V9.51492V9.5216V9.52828V9.53495V9.54162V9.54829V9.55495V9.56161V9.56827V9.57492V9.58158V9.58823V9.59487V9.60152V9.60816V9.61479V9.62143V9.62806V9.63469V9.64131V9.64793V9.65455V9.66116V9.66777V9.67438V9.68099V9.68759V9.69419V9.70078V9.70737V9.71396V9.72054V9.72712V9.7337V9.74027V9.74684V9.75341V9.75997V9.76653V9.77309V9.77964V9.78619V9.79273V9.79927V9.80581V9.81234V9.81887V9.82539V9.83191V9.83843V9.84494V9.85145V9.85796V9.86446V9.87096V9.87745V9.88394V9.89042V9.8969V9.90338V9.90985V9.91632V9.92278V9.92924V9.9357V9.94215V9.9486V9.95504V9.96148V9.96791V9.97434V9.98076V9.98718V9.9936V10C23.6667 11.5427 22.8989 12.6259 22.1104 13.3356C21.7158 13.6906 21.3202 13.9479 21.0232 14.1163C20.875 14.2002 20.7523 14.2615 20.6678 14.3014C20.6674 14.3015 20.667 14.3017 20.6667 14.3019C20.6663 14.3017 20.666 14.3015 20.6656 14.3014C20.5811 14.2615 20.4584 14.2002 20.3102 14.1163C20.0131 13.9479 19.6175 13.6906 19.223 13.3356C18.4345 12.6259 17.6667 11.5427 17.6667 10Z" stroke="white" stroke-width="0.666667"/>
<mask id="mask2" mask-type="alpha" maskUnits="userSpaceOnUse" x="17" y="5" width="7" height="10">
<path d="M17.6667 10V9.9486V9.8969V9.84494V9.79273V9.74027V9.68759V9.63469V9.58158V9.52828V9.4748V9.42115V9.36735V9.3134V9.28638V9.27962V9.27286V9.25933V9.20514V9.15084V9.09645V9.04198V8.98745V8.93286V8.87822V8.82356V8.76888V8.74153V8.7347V8.72786V8.72103V8.71419V8.70736V8.70052V8.69368V8.68685V8.68001V8.67318V8.66635V8.65951V8.65268V8.64584V8.63901V8.63218V8.62535V8.61852V8.61168V8.60485V8.59802V8.59119V8.58436V8.57753V8.57071V8.56388V8.55705V8.55023V8.5434V8.53658V8.52975V8.52293V8.51611V8.50928V8.50246V8.49564V8.48883V8.48201V8.47519V8.46837V8.46156V8.45474V8.44793V8.44112V8.43431V8.4275V8.42069V8.41388V8.40708V8.40027V8.39347V8.38667V8.37986V8.37306V8.36627V8.35947V8.35267V8.34588V8.33908V8.33229V8.3255V8.31871V8.31193V8.30514V8.29836V8.29157V8.28479V8.27801V8.27124V8.26446V8.25769V8.25092V8.24414V8.23738V8.23061V8.22384V8.21708V8.21032V8.20356V8.1968V8.19005V8.18329V8.17654V8.16979V8.16305V8.1563V8.14956V8.14282V8.13608V8.12934V8.12261V8.11588V8.10915V8.10242V8.09569V8.08897V8.08225V8.07553V8.06881V8.0621V8.05539V8.04868V8.04198V8.03527V8.02857V8.02187V8.01518V8.00848V8.00179V7.99511V7.98842V7.98174V7.97506V7.96838V7.96171V7.95504V7.94837V7.9417V7.93504V7.92838V7.92172V7.91507V7.90842V7.90177V7.89513V7.88849V7.87521V7.8487V7.79584V7.74319V7.69078V7.63862V7.58671V7.53506V7.48371V7.43264V7.38188V7.33144V7.28134V7.23158V7.18217V7.13313V7.08448V7.03622V6.94093V6.84737V6.75564V6.66583C17.6667 6.11382 18.1141 5.66668 18.6667 5.66668H22.6667C23.2192 5.66668 23.6667 6.11382 23.6667 6.66583V6.67138V6.67695V6.68252V6.6881V6.69368V6.69928V6.70488V6.71049V6.7161V6.72173V6.72736V6.733V6.73865V6.7443V6.74997V6.75564V6.76132V6.767V6.77269V6.7784V6.7841V6.78982V6.79554V6.80127V6.80701V6.81275V6.8185V6.82426V6.83003V6.8358V6.84158V6.84737V6.85317V6.85897V6.86478V6.8706V6.87642V6.88225V6.88809V6.89393V6.89978V6.90564V6.91151V6.91738V6.92326V6.92914V6.93503V6.94093V6.94684V6.95275V6.95867V6.9646V6.97053V6.97647V6.98242V6.98837V6.99433V7.00029V7.00626V7.01224V7.01823V7.02422V7.03022V7.03622V7.04223V7.04825V7.05427V7.0603V7.06634V7.07238V7.07843V7.08448V7.09054V7.09661V7.10268V7.10876V7.11485V7.12094V7.12703V7.13314V7.13924V7.14536V7.15148V7.15761V7.16374V7.16988V7.17602V7.18217V7.18833V7.19449V7.20066V7.20683V7.21301V7.21919V7.22538V7.23158V7.23778V7.24398V7.2502V7.25641V7.26264V7.26887V7.2751V7.28134V7.28758V7.29383V7.30009V7.30635V7.31262V7.31889V7.32516V7.33145V7.33773V7.34402V7.35032V7.35662V7.36293V7.36924V7.37556V7.38188V7.38821V7.39454V7.40088V7.40722V7.41357V7.41992V7.42628V7.43264V7.43901V7.44538V7.45176V7.45814V7.46452V7.47091V7.47731V7.48371V7.49011V7.49652V7.50293V7.50935V7.51577V7.5222V7.52863V7.53507V7.54151V7.54795V7.5544V7.56085V7.56731V7.57377V7.58024V7.58671V7.59318V7.59966V7.60614V7.61263V7.61912V7.62561V7.63211V7.63862V7.64512V7.65163V7.65815V7.66467V7.67119V7.67772V7.68425V7.69078V7.69732V7.70386V7.71041V7.71696V7.72351V7.73007V7.73663V7.7432V7.74976V7.75634V7.76291V7.76949V7.77607V7.78266V7.78925V7.79584V7.80244V7.80904V7.81564V7.82224V7.82885V7.83547V7.84208V7.8487V7.85533V7.86195V7.86858V7.87521V7.88185V7.88849V7.89513V7.90177V7.90842V7.91507V7.92173V7.92838V7.93504V7.9417V7.94837V7.95504V7.96171V7.96838V7.97506V7.98174V7.98842V7.99511V8.00179V8.00849V8.01518V8.02187V8.02857V8.03527V8.04198V8.04868V8.05539V8.0621V8.06882V8.07553V8.08225V8.08897V8.09569V8.10242V8.10915V8.11588V8.12261V8.12934V8.13608V8.14282V8.14956V8.1563V8.16305V8.16979V8.17654V8.1833V8.19005V8.1968V8.20356V8.21032V8.21708V8.22385V8.23061V8.23738V8.24415V8.25092V8.25769V8.26446V8.27124V8.27802V8.28479V8.29158V8.29836V8.30514V8.31193V8.31871V8.3255V8.33229V8.33908V8.34588V8.35267V8.35947V8.36627V8.37306V8.37986V8.38667V8.39347V8.40027V8.40708V8.41388V8.42069V8.4275V8.43431V8.44112V8.44793V8.45475V8.46156V8.46837V8.47519V8.48201V8.48883V8.49564V8.50246V8.50929V8.51611V8.52293V8.52975V8.53658V8.5434V8.55023V8.55705V8.56388V8.57071V8.57754V8.58436V8.59119V8.59802V8.60485V8.61168V8.61852V8.62535V8.63218V8.63901V8.64585V8.65268V8.65951V8.66635V8.67318V8.68002V8.68685V8.69369V8.70052V8.70736V8.71419V8.72103V8.72786V8.7347V8.74153V8.74837V8.75521V8.76204V8.76888V8.77571V8.78255V8.78938V8.79622V8.80305V8.80989V8.81672V8.82356V8.83039V8.83723V8.84406V8.85089V8.85773V8.86456V8.87139V8.87822V8.88505V8.89188V8.89871V8.90554V8.91237V8.9192V8.92603V8.93286V8.93968V8.94651V8.95333V8.96016V8.96698V8.9738V8.98063V8.98745V8.99427V9.00109V9.00791V9.01472V9.02154V9.02836V9.03517V9.04198V9.0488V9.05561V9.06242V9.06923V9.07604V9.08284V9.08965V9.09645V9.10326V9.11006V9.11686V9.12366V9.13046V9.13725V9.14405V9.15084V9.15763V9.16442V9.17121V9.178V9.18479V9.19157V9.19836V9.20514V9.21192V9.2187V9.22547V9.23225V9.23902V9.24579V9.25256V9.25933V9.2661V9.27286V9.27962V9.28638V9.29314V9.2999V9.30665V9.3134V9.32015V9.3269V9.33365V9.34039V9.34713V9.35387V9.36061V9.36735V9.37408V9.38081V9.38754V9.39427V9.40099V9.40771V9.41443V9.42115V9.42786V9.43458V9.44129V9.44799V9.4547V9.4614V9.4681V9.4748V9.48149V9.48818V9.49487V9.50156V9.50824V9.51492V9.5216V9.52828V9.53495V9.54162V9.54829V9.55495V9.56161V9.56827V9.57492V9.58158V9.58823V9.59487V9.60152V9.60816V9.61479V9.62143V9.62806V9.63469V9.64131V9.64793V9.65455V9.66116V9.66777V9.67438V9.68099V9.68759V9.69419V9.70078V9.70737V9.71396V9.72054V9.72712V9.7337V9.74027V9.74684V9.75341V9.75997V9.76653V9.77309V9.77964V9.78619V9.79273V9.79927V9.80581V9.81234V9.81887V9.82539V9.83191V9.83843V9.84494V9.85145V9.85796V9.86446V9.87096V9.87745V9.88394V9.89042V9.8969V9.90338V9.90985V9.91632V9.92278V9.92924V9.9357V9.94215V9.9486V9.95504V9.96148V9.96791V9.97434V9.98076V9.98718V9.9936V10C23.6667 11.5427 22.8989 12.6259 22.1104 13.3356C21.7158 13.6906 21.3202 13.9479 21.0232 14.1163C20.875 14.2002 20.7523 14.2615 20.6678 14.3014C20.6674 14.3015 20.667 14.3017 20.6667 14.3019C20.6663 14.3017 20.666 14.3015 20.6656 14.3014C20.5811 14.2615 20.4584 14.2002 20.3102 14.1163C20.0131 13.9479 19.6175 13.6906 19.223 13.3356C18.4345 12.6259 17.6667 11.5427 17.6667 10Z" fill="white" stroke="white" stroke-width="0.666667"/>
</mask>
<g mask="url(#mask2)">
</g>
<path d="M0 -0.333333H-0.901086L-0.21693 0.253086L4.33333 4.15331V5.16179L-0.193746 8.39542L-0.333333 8.49513V8.66667V9.33333V9.93475L0.176666 9.616L5.42893 6.33333H6.55984L11.0821 9.56351C11.176 9.6306 11.2886 9.66667 11.404 9.66667C11.9182 9.66667 12.1548 9.02698 11.7644 8.69237L7.66667 5.18002V4.17154L12.0542 1.03762C12.2294 0.912475 12.3333 0.710428 12.3333 0.495127V0V-0.601416L11.8233 -0.282666L6.57107 3H5.44016L0.860413 -0.271244L0.773488 -0.333333H0.666667H0Z" fill="#DB1E36" stroke="white" stroke-width="0.666667"/>
<path fill-rule="evenodd" clip-rule="evenodd" d="M0 3.33333V6H4.66667V9.33333C4.66667 9.70152 4.96514 10 5.33333 10H6.66667C7.03486 10 7.33333 9.70152 7.33333 9.33333V6H12C12.3682 6 12.6667 5.70152 12.6667 5.33333V4C12.6667 3.63181 12.3682 3.33333 12 3.33333H7.33333V0H4.66667V3.33333H0Z" fill="white"/>
<path fill-rule="evenodd" clip-rule="evenodd" d="M0 4H5.33333V3.33333V0H6.66667V3.33333V4H12V5.33333H6.66667V6V9.33333H5.33333V6V5.33333H0V4Z" fill="#DB1E36"/>
</g>
</svg>
