<svg width="28" height="20" viewBox="0 0 28 20" fill="none" xmlns="http://www.w3.org/2000/svg">
<rect width="28" height="20" rx="2" fill="white"/>
<mask id="mask0" mask-type="alpha" maskUnits="userSpaceOnUse" x="0" y="0" width="28" height="20">
<rect width="28" height="20" rx="2" fill="white"/>
</mask>
<g mask="url(#mask0)">
<rect width="28" height="20" fill="#0A17A7"/>
<path fill-rule="evenodd" clip-rule="evenodd" d="M-1.28247 -1.91644L10.6667 6.14335V-1.33333H17.3333V6.14335L29.2825 -1.91644L30.7737 0.294324L21.3263 6.66667H28V13.3333H21.3263L30.7737 19.7057L29.2825 21.9165L17.3333 13.8567V21.3333H10.6667V13.8567L-1.28247 21.9165L-2.77365 19.7057L6.67374 13.3333H-9.53674e-07V6.66667H6.67374L-2.77365 0.294324L-1.28247 -1.91644Z" fill="white"/>
<path d="M18.668 6.33219L31.3333 -2" stroke="#DB1F35" stroke-width="0.666667" stroke-linecap="round"/>
<path d="M20.0128 13.6975L31.3666 21.3503" stroke="#DB1F35" stroke-width="0.666667" stroke-linecap="round"/>
<path d="M8.00552 6.31046L-3.83749 -1.67099" stroke="#DB1F35" stroke-width="0.666667" stroke-linecap="round"/>
<path d="M9.29003 13.6049L-3.83749 22.3105" stroke="#DB1F35" stroke-width="0.666667" stroke-linecap="round"/>
<path fill-rule="evenodd" clip-rule="evenodd" d="M0 12H12V20H16V12H28V8H16V0H12V8H0V12Z" fill="#E6273E"/>
</g>
</svg>
