<svg width="28" height="20" viewBox="0 0 28 20" fill="none" xmlns="http://www.w3.org/2000/svg">
<rect x="0.25" y="0.25" width="27.5" height="19.5" rx="1.75" fill="white" stroke="#F5F5F5" stroke-width="0.5"/>
<mask id="mask0" mask-type="alpha" maskUnits="userSpaceOnUse" x="0" y="0" width="28" height="20">
<rect x="0.25" y="0.25" width="27.5" height="19.5" rx="1.75" fill="white" stroke="white" stroke-width="0.5"/>
</mask>
<g mask="url(#mask0)">
<path fill-rule="evenodd" clip-rule="evenodd" d="M16 21.3333H12V12H-1.33334V7.99999H12V-1.33334H16V7.99999H29.3333V12H16V21.3333Z" fill="#FF2B37"/>
<path fill-rule="evenodd" clip-rule="evenodd" d="M21.6 4.4L20 4.66667V3.33333L21.6 3.6L21.3333 2H22.6667L22.4 3.6L24 3.33333V4.66667L22.4 4.4L22.6667 6H21.3333L21.6 4.4Z" fill="#FD0D1B"/>
<path fill-rule="evenodd" clip-rule="evenodd" d="M5.6 4.4L4 4.66667V3.33333L5.6 3.6L5.33333 2H6.66667L6.4 3.6L8 3.33333V4.66667L6.4 4.4L6.66667 6H5.33333L5.6 4.4Z" fill="#FD0D1B"/>
<path fill-rule="evenodd" clip-rule="evenodd" d="M5.6 16.4L4 16.6667V15.3333L5.6 15.6L5.33333 14H6.66667L6.4 15.6L8 15.3333V16.6667L6.4 16.4L6.66667 18H5.33333L5.6 16.4Z" fill="#FD0D1B"/>
<path fill-rule="evenodd" clip-rule="evenodd" d="M21.6 16.4L20 16.6667V15.3333L21.6 15.6L21.3333 14H22.6667L22.4 15.6L24 15.3333V16.6667L22.4 16.4L22.6667 18H21.3333L21.6 16.4Z" fill="#FD0D1B"/>
</g>
</svg>
