<svg width="28" height="20" viewBox="0 0 28 20" fill="none" xmlns="http://www.w3.org/2000/svg">
<rect width="28" height="20" rx="2" fill="white"/>
<mask id="mask0" mask-type="alpha" maskUnits="userSpaceOnUse" x="0" y="0" width="28" height="20">
<rect width="28" height="20" rx="2" fill="white"/>
</mask>
<g mask="url(#mask0)">
<path fill-rule="evenodd" clip-rule="evenodd" d="M0 20H28V0H0V20Z" fill="#F0371D"/>
<path fill-rule="evenodd" clip-rule="evenodd" d="M13.984 8.14571C14.9468 7.33983 15.0054 7.15961 15.2361 6.44961C15.3131 6.21263 15.2588 6.01798 15.1946 5.78812C15.1021 5.45666 14.9892 5.05197 15.2201 4.34149C14.1696 4.00016 12.949 4.85893 12.4939 6.2596C12.0388 7.66028 12.5215 9.07246 13.572 9.41379C13.76 9.47489 13.7389 9.43071 13.6819 9.31108C13.5817 9.10119 13.3707 8.65903 13.984 8.14571ZM11.9901 9.61761C11.5212 8.45288 11.3679 8.3415 10.7639 7.9027C10.5623 7.75623 10.3604 7.74774 10.122 7.7377C9.77819 7.72324 9.35841 7.70557 8.75404 7.26647C8.10479 8.16009 8.54436 9.58627 9.73584 10.4519C10.9273 11.3176 12.4195 11.2949 13.0688 10.4013C13.185 10.2414 13.1365 10.2477 13.0051 10.2651C12.7745 10.2955 12.2888 10.3595 11.9901 9.61761ZM18 10.2538C17.2535 10.2538 17.064 10.2538 16 9.58717C15.3223 9.16253 14.967 9.49983 14.7983 9.65995C14.7022 9.75121 14.6667 9.78491 14.6667 9.58717C14.6667 8.4826 15.8606 7.58717 17.3333 7.58717C18.8061 7.58717 20 8.4826 20 9.58717C19.2529 9.58717 18.903 9.81962 18.6163 10.01C18.4175 10.142 18.2492 10.2538 18 10.2538ZM18 9C18 9.18409 17.8508 9.33333 17.6667 9.33333C17.4826 9.33333 17.3333 9.18409 17.3333 9C17.3333 8.8159 17.4826 8.66666 17.6667 8.66666C17.8508 8.66666 18 8.8159 18 9ZM15.2521 11.9499C14.9468 13.1678 15.0054 13.3481 15.2361 14.0581C15.3131 14.295 15.4714 14.4206 15.6584 14.5689C15.9281 14.7826 16.2573 15.0437 16.4881 15.7542C17.5386 15.4128 18.0213 14.0007 17.5662 12.6C17.1111 11.1993 15.8906 10.3405 14.84 10.6819C14.652 10.743 14.695 10.7663 14.8115 10.8295C15.0159 10.9405 15.4465 11.1742 15.2521 11.9499ZM16.4285 13.6706C16.2535 13.7275 16.0654 13.6317 16.0085 13.4566C15.9516 13.2815 16.0474 13.0935 16.2225 13.0366C16.3976 12.9797 16.5857 13.0755 16.6425 13.2506C16.6994 13.4257 16.6036 13.6137 16.4285 13.6706ZM12.7738 11.9688C11.5212 12.0548 11.3679 12.1662 10.7639 12.605C10.5623 12.7514 10.4919 12.9408 10.4086 13.1645C10.2886 13.487 10.1421 13.8808 9.53775 14.3199C10.187 15.2135 11.6792 15.2362 12.8707 14.3705C14.0622 13.5048 14.5018 12.0787 13.8525 11.185C13.7363 11.0251 13.7274 11.0732 13.7032 11.2035C13.6609 11.4322 13.5717 11.9139 12.7738 11.9688ZM11.5009 13.6194C11.3927 13.4704 11.4257 13.262 11.5747 13.1538C11.7236 13.0455 11.9321 13.0786 12.0403 13.2275C12.1485 13.3764 12.1155 13.5849 11.9665 13.6931C11.8176 13.8013 11.6091 13.7683 11.5009 13.6194ZM10.0269 8.91707C10.1351 8.76814 10.3436 8.73512 10.4925 8.84333C10.6415 8.95154 10.6745 9.16 10.5663 9.30893C10.4581 9.45787 10.2496 9.49088 10.1007 9.38267C9.95175 9.27447 9.91873 9.06601 10.0269 8.91707ZM14.0436 6.06215C14.2187 6.11904 14.3145 6.30709 14.2576 6.48218C14.2007 6.65726 14.0127 6.75308 13.8376 6.69619C13.6625 6.6393 13.5667 6.45125 13.6236 6.27617C13.6805 6.10108 13.8685 6.00526 14.0436 6.06215Z" fill="white"/>
</g>
</svg>
