<svg width="28" height="20" viewBox="0 0 28 20" fill="none" xmlns="http://www.w3.org/2000/svg">
<rect x="0.25" y="0.25" width="27.5" height="19.5" rx="1.75" fill="white" stroke="#F5F5F5" stroke-width="0.5"/>
<mask id="mask0" mask-type="alpha" maskUnits="userSpaceOnUse" x="0" y="0" width="28" height="20">
<rect x="0.25" y="0.25" width="27.5" height="19.5" rx="1.75" fill="white" stroke="white" stroke-width="0.5"/>
</mask>
<g mask="url(#mask0)">
<path fill-rule="evenodd" clip-rule="evenodd" d="M0 4H28V0H0V4Z" fill="#0E46D4"/>
<path fill-rule="evenodd" clip-rule="evenodd" d="M0 20H28V16H0V20Z" fill="#0E46D4"/>
<path d="M10.3753 11.8381L10.1002 12.3333L10.6667 12.3333L17.3333 12.3333L17.8998 12.3333L17.6247 11.8381L14.2914 5.8381L14 5.31361L13.7086 5.8381L10.3753 11.8381Z" stroke="#093EC5" stroke-width="0.666667"/>
<path d="M10.3753 8.1619L10.1002 7.66668L10.6667 7.66668L17.3333 7.66668L17.8998 7.66668L17.6247 8.1619L14.2914 14.1619L14 14.6864L13.7086 14.1619L10.3753 8.1619Z" stroke="#093EC5" stroke-width="0.666667"/>
</g>
</svg>
