<svg width="28" height="20" viewBox="0 0 28 20" fill="none" xmlns="http://www.w3.org/2000/svg">
<rect width="28" height="20" rx="2" fill="#D01129"/>
<mask id="mask0" mask-type="alpha" maskUnits="userSpaceOnUse" x="0" y="0" width="28" height="20">
<rect width="28" height="20" rx="2" fill="white"/>
</mask>
<g mask="url(#mask0)">
<path fill-rule="evenodd" clip-rule="evenodd" d="M13.8881 10.0409C14.5491 10.0409 15.0849 9.47829 15.0849 8.78447C15.0849 8.09052 14.5491 7.52795 13.8881 7.52795C13.2272 7.52795 12.6915 8.09052 12.6915 8.78447C12.6915 9.47829 13.2272 10.0409 13.8881 10.0409Z" fill="#FFF101"/>
<path fill-rule="evenodd" clip-rule="evenodd" d="M12.7973 8.27931C13.1362 8.16579 13.5759 8.2979 13.8652 8.5894C14.1723 8.53069 14.4802 8.12579 14.5756 7.7653C14.4708 6.56738 13.7244 5.65986 13.4975 5.03711C13.4257 4.84029 13.093 4.53081 12.747 4.67491C12.4625 4.79344 12.3186 4.70121 11.363 5.20164C10.8463 5.47222 10.4114 5.75014 10.1822 5.79858C9.95294 5.84702 9.71108 5.8902 9.5277 5.73937C9.27546 5.53191 8.99259 5.47454 8.82599 5.31821C8.62187 5.12665 8.49092 4.98206 8.35286 4.92347C8.2148 4.86475 7.9811 4.99515 8.07977 5.30549C8.30242 6.00641 8.82727 6.11992 9.05259 6.77509C9.15896 7.08482 9.31018 7.3176 9.64816 7.08286C9.98614 6.84812 10.4638 6.53631 11.2782 6.50353C11.8251 6.48139 12.3902 6.27026 12.6499 5.92384C12.6473 6.22353 12.748 6.46916 12.7214 6.85901C12.695 7.24897 12.6992 7.73399 12.7973 8.27931Z" fill="white"/>
<path fill-rule="evenodd" clip-rule="evenodd" d="M13.4379 8.31217C13.3375 7.72244 13.5196 7.63743 13.3022 6.94617C13.1715 6.53051 13.0879 6.00954 13.0859 5.76709L12.9985 5.79376C13.0006 6.0362 13.0842 6.5573 13.2148 6.97296C13.4251 7.64134 13.2617 7.74287 13.3416 8.2822C13.3663 8.28746 13.4181 8.30483 13.4379 8.31217Z" fill="#FFF101"/>
<path fill-rule="evenodd" clip-rule="evenodd" d="M12.9234 8.2475C12.9241 8.17251 12.9196 8.09423 12.9085 8.02695C13.0622 7.98817 13.3254 8.13728 13.318 8.02646C13.3158 7.99135 13.3192 7.87783 13.3213 7.81765C13.3179 7.91172 12.952 7.75294 12.889 7.79392C12.8213 7.4508 12.9052 7.09777 12.8514 6.88236C12.9737 6.84725 13.1983 6.92383 13.1708 6.82328C13.1552 6.77178 13.1253 6.64371 13.1057 6.56358C13.1249 6.6475 12.9465 6.57802 12.8862 6.62597C12.8548 6.43991 12.809 6.08689 12.81 5.92554L12.6499 5.92383C12.6473 6.22352 12.748 6.46915 12.7214 6.859C12.695 7.24897 12.6992 7.73398 12.7973 8.2793C12.8323 8.26854 12.8901 8.25471 12.9234 8.2475Z" fill="#FFF101"/>
<path fill-rule="evenodd" clip-rule="evenodd" d="M12.5192 5.50802C12.2806 5.86974 11.7106 6.1194 11.1837 6.17457C10.5669 6.23915 10.1529 6.45469 9.84797 6.6657C9.82176 6.61616 9.77445 6.58949 9.73263 6.55683C9.28653 6.20992 9.46991 5.73983 9.63884 5.80698C9.57511 5.78105 9.53807 5.74607 9.50323 5.71977C9.44428 5.67389 9.27418 5.84967 9.2955 6.12882C9.30459 6.24772 9.40152 6.42313 9.4804 6.5161C9.3364 6.48857 9.26743 6.44992 9.18284 6.34264C9.23038 6.31157 9.29189 6.29396 9.34152 6.28992C9.32463 6.24735 9.3011 6.20013 9.2955 6.12882C9.22502 6.12821 9.13904 6.15402 9.06529 6.20662C8.88832 6.02154 8.70611 5.87389 8.60044 5.65542C8.43139 5.30545 8.60335 5.08454 8.82599 5.31818C8.62187 5.12662 8.49092 4.98203 8.35286 4.92344C8.2148 4.86472 7.9811 4.99512 8.07977 5.30545C8.30242 6.00637 8.82727 6.11989 9.05259 6.77506C9.15896 7.08478 9.31577 7.32613 9.64816 7.08282C9.69197 7.05078 9.70362 7.04319 9.74172 7.01481C9.84715 6.95084 10.0142 7.05824 9.9964 7.29175C10.0818 7.07732 10.0273 7.01163 9.9548 6.88307C9.90121 6.91304 9.90552 6.7375 9.87244 6.71438C10.0621 6.59059 10.2928 6.46643 10.5838 6.37799C10.5945 6.48282 10.622 6.59414 10.7139 6.57799C10.7632 6.56649 10.8132 6.5561 10.8658 6.54692C10.7738 6.56307 10.748 6.44123 10.7374 6.33652C10.8753 6.30325 11.0261 6.27805 11.1913 6.26386C11.3816 6.24747 11.5784 6.20686 11.7632 6.14386C11.7907 6.24441 11.8475 6.41383 11.9423 6.38056C12.0263 6.3523 12.1079 6.32038 12.1846 6.28331C12.0528 6.34925 12.001 6.16099 11.9693 6.06142C12.2101 5.95145 12.4153 5.80148 12.5379 5.62252L12.5192 5.50802Z" fill="#FFF101"/>
<path fill-rule="evenodd" clip-rule="evenodd" d="M13.5731 5.68759C13.6894 5.59291 13.7892 5.54814 13.6889 5.34765C13.5249 5.01982 13.6268 5.0187 13.2676 4.81014C12.9018 4.59803 12.948 4.58139 12.464 4.76059C12.3449 4.80463 12.3715 4.84965 12.3923 5.03093C12.4372 5.42163 12.5224 5.73627 12.6004 6.05773C12.9047 6.01602 13.3728 5.85089 13.5731 5.68759Z" fill="#FFF101"/>
<path fill-rule="evenodd" clip-rule="evenodd" d="M12.4375 5.59881C12.3737 5.407 12.3908 5.43306 12.6222 5.49153C12.6979 5.23869 12.8025 5.02528 12.8611 4.82063C12.9266 4.59152 12.9471 4.5503 13.0435 4.60644C13.1667 4.67813 13.3021 4.75384 13.3903 4.79935C13.5443 4.87861 13.5216 4.90638 13.4481 5.03238C13.3746 5.15837 13.1341 5.41373 12.9858 5.68015C13.1814 5.82474 13.2442 5.83783 13.1052 5.90009C12.9497 5.9697 12.6913 6.05593 12.5825 6.07636C12.5626 5.95049 12.4982 5.78071 12.4375 5.59881Z" fill="#FFF101"/>
<path fill-rule="evenodd" clip-rule="evenodd" d="M10.1409 7.40245L10.1255 7.59975L9.98695 7.46764L9.832 7.5781L9.84225 7.38116L9.66388 7.32453L9.81627 7.20979L9.74904 7.02679L9.92788 7.08159L10.0224 6.91217L10.0941 7.09309L10.2787 7.06385L10.1883 7.23645L10.3243 7.36979L10.1409 7.40245Z" fill="#FFF101"/>
<path fill-rule="evenodd" clip-rule="evenodd" d="M14.017 10.029C13.7538 9.7775 13.6429 9.31169 13.7388 8.90288C13.5368 8.65309 13.0488 8.57542 12.7038 8.66887C11.7681 9.36331 11.3927 10.4957 10.9925 11.0135C10.866 11.1771 10.7771 11.6343 11.0691 11.8769C11.3091 12.0763 11.305 12.2532 12.1954 12.8719C12.677 13.2065 13.1236 13.463 13.2782 13.6472C13.433 13.8314 13.5894 14.0299 13.5567 14.2719C13.5117 14.605 13.6057 14.891 13.5602 15.1205C13.5041 15.4018 13.4504 15.5933 13.4711 15.7481C13.4918 15.903 13.7161 16.0503 13.9227 15.8054C14.3895 15.2525 14.2208 14.7185 14.6486 14.1861C14.8507 13.9344 14.9672 13.6805 14.6047 13.4905C14.242 13.3007 13.746 13.0221 13.3117 12.2982C13.0201 11.812 12.5634 11.4036 12.1477 11.3407C12.3962 11.1933 12.5486 10.9788 12.8834 10.808C13.2182 10.6371 13.6162 10.391 14.017 10.029Z" fill="white"/>
<path fill-rule="evenodd" clip-rule="evenodd" d="M13.7236 9.42999C13.2875 9.81617 13.1263 9.69299 12.6648 10.2364C12.3874 10.5631 11.9995 10.8996 11.8005 11.0227L11.8662 11.0887C12.0652 10.9657 12.4531 10.6291 12.7307 10.3024C13.1769 9.77703 13.3423 9.87489 13.7473 9.5325C13.7392 9.50755 13.7275 9.45164 13.7236 9.42999Z" fill="#FFF101"/>
<path fill-rule="evenodd" clip-rule="evenodd" d="M13.9275 9.93017C13.8654 9.96699 13.8031 10.0103 13.7531 10.054C13.6443 9.9336 13.6357 9.61971 13.5481 9.68198C13.5201 9.7013 13.4248 9.75513 13.374 9.78326C13.4535 9.73935 13.5053 10.1515 13.5707 10.1883C13.3215 10.4214 12.9884 10.5216 12.8376 10.6782C12.7476 10.5845 12.6984 10.3422 12.6292 10.4174C12.5946 10.4573 12.5038 10.5484 12.4476 10.6064C12.5072 10.5469 12.539 10.7439 12.6087 10.7747C12.471 10.8963 12.2027 11.1144 12.069 11.1943L12.1477 11.3407C12.3962 11.1933 12.5486 10.9789 12.8834 10.808C13.2182 10.6371 13.6162 10.391 14.017 10.029C13.9905 10.0025 13.9501 9.95684 13.9275 9.93017Z" fill="#FFF101"/>
<path fill-rule="evenodd" clip-rule="evenodd" d="M11.8701 11.6674C12.2878 11.7035 12.7786 12.0969 13.0876 12.5485C13.4492 13.0771 13.8342 13.3457 14.1606 13.5174C14.1329 13.5661 14.1345 13.6224 14.1286 13.6768C14.0654 14.2559 13.586 14.3242 13.5569 14.137C13.5674 14.208 13.557 14.2591 13.5528 14.304C13.5444 14.3806 13.7745 14.4472 13.994 14.2883C14.0876 14.2206 14.1837 14.0448 14.2211 13.9266C14.2702 14.0712 14.2728 14.1533 14.2268 14.2838C14.1773 14.2562 14.1321 14.2089 14.1039 14.166C14.0772 14.2026 14.05 14.2476 13.994 14.2883C14.0287 14.3528 14.093 14.418 14.1733 14.4587C14.1091 14.7122 14.0785 14.9517 13.951 15.157C13.747 15.4856 13.4787 15.4398 13.5601 15.1205C13.5041 15.4018 13.4504 15.5933 13.471 15.7481C13.4917 15.903 13.716 16.0503 13.9227 15.8054C14.3894 15.2525 14.2207 14.7185 14.6485 14.1861C14.8507 13.9344 14.9715 13.6712 14.6046 13.4905C14.5561 13.4668 14.5441 13.4601 14.5017 13.4395C14.3962 13.3757 14.4013 13.17 14.6027 13.0695C14.3832 13.0991 14.3563 13.1815 14.2865 13.3117C14.3379 13.3453 14.191 13.4292 14.1884 13.471C13.9916 13.3604 13.7739 13.2127 13.5554 12.9922C13.6366 12.9302 13.7146 12.8494 13.6552 12.774C13.6211 12.7349 13.5875 12.6946 13.5536 12.6514C13.613 12.727 13.5255 12.8113 13.4443 12.8734C13.348 12.7647 13.2519 12.6401 13.1575 12.497C13.0488 12.332 12.9169 12.1735 12.7726 12.037C12.8418 11.9616 12.953 11.8253 12.8782 11.7557C12.813 11.6935 12.7458 11.6351 12.6769 11.5841C12.7971 11.671 12.6677 11.8122 12.6015 11.8908C12.3903 11.7269 12.1641 11.6152 11.9552 11.5933L11.8701 11.6674Z" fill="#FFF101"/>
<path fill-rule="evenodd" clip-rule="evenodd" d="M11.3218 10.6978C11.1854 10.6394 11.2527 10.5605 11.1375 10.752C10.9491 11.065 10.9127 10.9929 10.9204 11.4239C10.9282 11.8624 11.0093 11.7924 11.3992 12.143C11.699 11.9071 12.0568 11.5504 12.2829 11.3187C12.0964 11.0629 11.5565 10.7984 11.3218 10.6978Z" fill="#FFF101"/>
<path fill-rule="evenodd" clip-rule="evenodd" d="M11.9858 11.6963C11.8595 11.8503 11.8725 11.8218 11.805 11.582C11.5586 11.6395 11.3685 11.7059 11.1706 11.755C10.9488 11.8099 10.9046 11.8119 10.9026 11.6963C10.9002 11.5482 10.8951 11.3874 10.8884 11.2844C10.8769 11.1048 10.911 11.1114 11.0518 11.1153C11.1925 11.1191 11.4849 11.1555 11.7788 11.1571C11.8002 10.9069 11.7796 10.8433 11.9006 10.9386C12.0356 11.0451 12.236 11.2371 12.3073 11.3257C12.2134 11.4067 12.1056 11.5502 11.9858 11.6963Z" fill="#FFF101"/>
<path fill-rule="evenodd" clip-rule="evenodd" d="M14.6219 12.8829L14.7923 12.7982L14.7526 12.9901L14.9213 13.0758L14.7536 13.1649L14.796 13.3555L14.6251 13.2743L14.5078 13.4269L14.4636 13.2368L14.2766 13.2356L14.3901 13.08L14.2736 12.9269L14.4613 12.9227L14.5033 12.7324L14.6219 12.8829Z" fill="#FFF101"/>
<path fill-rule="evenodd" clip-rule="evenodd" d="M14.8502 8.04514C14.7745 8.41003 14.4456 8.74385 14.0605 8.86116C13.9555 9.16967 14.1353 9.65199 14.385 9.91927C15.4255 10.4228 16.5473 10.1979 17.1745 10.3029C17.3728 10.336 17.7943 10.1883 17.8485 9.80159C17.893 9.48367 18.0408 9.39902 18.1059 8.27988C18.1411 7.67474 18.1294 7.14031 18.204 6.90765C18.2787 6.67499 18.3641 6.4334 18.5801 6.34214C18.8773 6.21652 19.0662 5.98789 19.2784 5.91462C19.5384 5.82483 19.7231 5.77798 19.8405 5.68184C19.9579 5.58569 19.9672 5.30801 19.662 5.24257C18.9725 5.09456 18.6165 5.51499 17.9633 5.39217C17.6547 5.33419 17.387 5.35511 17.4117 5.77994C17.4364 6.20465 17.4547 6.79486 17.0746 7.55168C16.8194 8.06006 16.7109 8.67951 16.8668 9.08893C16.621 8.93664 16.3679 8.90532 16.0597 8.68636C15.7513 8.46728 15.3492 8.22863 14.8502 8.04514Z" fill="white"/>
<path fill-rule="evenodd" clip-rule="evenodd" d="M14.5028 8.6113C15.0394 8.81472 15.0185 9.02292 15.6973 9.17093C16.1056 9.25986 16.5771 9.44432 16.7781 9.56371L16.7997 9.47087C16.5987 9.35148 16.1271 9.16714 15.719 9.07809C15.0625 8.93497 15.0605 8.73558 14.5756 8.53851C14.5591 8.55845 14.5188 8.59698 14.5028 8.6113Z" fill="#FFF101"/>
<path fill-rule="evenodd" clip-rule="evenodd" d="M14.8134 8.17581C14.8749 8.21385 14.9418 8.24884 15.0027 8.27257C14.958 8.43159 14.7033 8.59648 14.7985 8.64504C14.8284 8.66082 14.9203 8.72052 14.9689 8.75257C14.8931 8.70229 15.2069 8.44908 15.2047 8.37116C15.5217 8.48125 15.7708 8.7341 15.9754 8.79293C15.9432 8.92162 15.7678 9.08749 15.8645 9.11281C15.9147 9.12431 16.0353 9.16125 16.1112 9.18339C16.0324 9.15893 16.1789 9.03147 16.1695 8.95281C16.3387 9.01715 16.6526 9.15208 16.7853 9.23367L16.8668 9.08896C16.621 8.93666 16.3679 8.90535 16.0596 8.68639C15.7512 8.46731 15.3492 8.22865 14.8502 8.04517C14.8416 8.08235 14.8241 8.14192 14.8134 8.17581Z" fill="#FFF101"/>
<path fill-rule="evenodd" clip-rule="evenodd" d="M17.2751 9.17786C17.096 8.78006 17.1751 8.137 17.3932 7.63022C17.6483 7.03707 17.6775 6.55278 17.6558 6.17015C17.7099 6.17113 17.7554 6.14141 17.8034 6.11963C18.3125 5.88759 18.6086 6.2893 18.4686 6.4093C18.522 6.36428 18.5694 6.34826 18.6085 6.32967C18.6758 6.29884 18.6158 6.05639 18.375 5.93627C18.2723 5.88502 18.0793 5.88551 17.963 5.91058C18.0579 5.79352 18.1241 5.75022 18.2549 5.72685C18.2568 5.78569 18.2405 5.8504 18.2191 5.89749C18.2627 5.90337 18.3133 5.90557 18.375 5.93627C18.4107 5.87242 18.4324 5.78141 18.4259 5.68795C18.6671 5.6197 18.8799 5.52783 19.1129 5.54104C19.4861 5.5622 19.5824 5.82911 19.2785 5.91462C19.5384 5.82483 19.7232 5.77798 19.8405 5.68184C19.9579 5.58569 19.9673 5.30801 19.662 5.24257C18.9725 5.09456 18.6165 5.51499 17.9634 5.39217C17.6547 5.33419 17.3772 5.35597 17.4117 5.77994C17.4163 5.83584 17.4167 5.85015 17.421 5.89896C17.421 6.02691 17.249 6.12502 17.0653 5.99205C17.1994 6.177 17.2809 6.16025 17.4231 6.15866C17.4252 6.09493 17.5678 6.18655 17.6035 6.16808C17.6108 6.40245 17.5978 6.67425 17.5252 6.98312C17.4334 6.94043 17.3279 6.90973 17.2952 7.00147C17.2801 7.05199 17.2636 7.10263 17.245 7.15499C17.2776 7.06324 17.391 7.1008 17.4827 7.14349C17.4412 7.28551 17.3866 7.43523 17.3157 7.59254C17.2339 7.77382 17.1692 7.97297 17.1287 8.1726C17.032 8.14728 16.8639 8.11425 16.8439 8.21713C16.8252 8.30752 16.8107 8.3978 16.803 8.486C16.8145 8.33321 16.9957 8.38019 17.0937 8.4011C17.0641 8.67511 17.085 8.93664 17.1714 9.13774L17.2751 9.17786Z" fill="#FFF101"/>
<path fill-rule="evenodd" clip-rule="evenodd" d="M16.5585 10.0094C16.5785 10.1626 16.5655 10.2757 16.781 10.2847C17.1335 10.2995 17.1048 10.3451 17.4564 10.1227C17.8142 9.8963 17.8237 9.94101 17.918 9.41122C17.9412 9.28095 17.8907 9.28254 17.7308 9.21085C17.3863 9.05624 17.0851 9.0668 16.781 8.97689C16.6632 9.2745 16.524 9.74572 16.5585 10.0094Z" fill="#FFF101"/>
<path fill-rule="evenodd" clip-rule="evenodd" d="M17.241 9.05839C17.4313 9.09606 17.4012 9.09863 17.2373 9.27992C17.4079 9.47515 17.5386 9.61251 17.6782 9.7681C17.8344 9.94229 17.8581 9.98144 17.7637 10.041C17.6429 10.1172 17.5129 10.2024 17.4312 10.26C17.2887 10.3603 17.2772 10.3258 17.2099 10.1959C17.1427 10.0661 17.0454 9.78414 16.8999 9.51625C16.6827 9.62169 16.6405 9.67233 16.6587 9.51478C16.6791 9.33863 16.7372 9.06047 16.7747 8.95135C16.8885 8.99613 17.0606 9.02243 17.241 9.05839Z" fill="#FFF101"/>
<path fill-rule="evenodd" clip-rule="evenodd" d="M16.9018 6.06814L16.7467 5.95548L16.925 5.89554L16.9112 5.69933L17.0685 5.80722L17.2046 5.6734L17.223 5.86936L17.4075 5.8997L17.2728 6.03499L17.3653 6.20551L17.1802 6.18019L17.1121 6.3627L17.0149 6.19413L16.8369 6.25126L16.9018 6.06814Z" fill="#FFF101"/>
<path fill-rule="evenodd" clip-rule="evenodd" d="M13.8601 8.5949C13.5705 8.30304 13.1333 8.17479 12.7995 8.28658L12.7901 8.28071C12.7025 7.79338 12.6827 7.3227 12.7142 6.85844C12.7264 6.67885 12.7159 6.5474 12.6807 6.31301C12.6661 6.2158 12.6641 6.20219 12.659 6.16195C12.6486 6.08123 12.6431 6.01288 12.6426 5.94547C12.3863 6.27043 11.8442 6.48825 11.2785 6.51115C10.6092 6.53809 10.1913 6.7148 9.65219 7.08922C9.3527 7.29723 9.18167 7.17343 9.04575 6.77767C8.95576 6.51598 8.84601 6.36492 8.58278 6.08685L8.56253 6.06546C8.28684 5.77412 8.167 5.60418 8.07288 5.30789C7.98499 5.03149 8.17487 4.8395 8.3556 4.91636C8.36791 4.92158 8.38026 4.92752 8.39274 4.9342C8.45094 4.96533 8.51066 5.01135 8.5897 5.08348C8.61677 5.10818 8.69609 5.18395 8.75751 5.24262L8.75753 5.24264L8.75753 5.24265C8.79121 5.27481 8.8195 5.30184 8.83085 5.31249C8.83985 5.32094 8.84915 5.3291 8.85888 5.3371C8.84507 5.32799 8.8307 5.32204 8.81599 5.31903L8.74751 5.25375C8.68613 5.19512 8.60707 5.11959 8.58015 5.09502C8.50193 5.02364 8.44305 4.97827 8.38613 4.94782C8.37402 4.94134 8.36205 4.93559 8.35014 4.93054C8.18103 4.85861 8.00271 5.03892 8.0867 5.30305C8.17993 5.59657 8.29863 5.76488 8.57286 6.05468L8.59311 6.07607C8.85773 6.35561 8.96854 6.50814 9.05945 6.77248C9.19264 7.16028 9.35464 7.27754 9.64416 7.07646C10.1853 6.70064 10.6056 6.52294 11.2779 6.49587C11.8495 6.47273 12.3966 6.24935 12.6442 5.91909L12.6572 5.92389C12.6566 5.99765 12.662 6.07118 12.6734 6.15991C12.6785 6.19999 12.6805 6.21356 12.6951 6.31063C12.7304 6.54608 12.7411 6.67851 12.7287 6.85953C12.6975 7.31985 12.7168 7.78647 12.8029 8.26943L12.7951 8.27201L12.8045 8.27787L12.8029 8.26943C13.141 8.16044 13.5791 8.29056 13.8639 8.58186C14.1515 8.52688 14.4674 8.14561 14.5684 7.76599C14.5185 7.19623 14.3345 6.68103 14.0037 6.04816C13.9526 5.95051 13.8132 5.69426 13.7456 5.56993L13.7084 5.50159C13.603 5.30433 13.5364 5.16531 13.4907 5.03982C13.396 4.78 13.0417 4.56036 12.7497 4.68199C12.7099 4.69855 12.6713 4.71173 12.6289 4.72358C12.6018 4.73117 12.5742 4.73799 12.5365 4.74663C12.1476 4.83566 11.9323 4.91202 11.3663 5.20846L11.3185 5.23361C11.2097 5.29122 10.9476 5.43591 10.7844 5.52596L10.7842 5.52606C10.7151 5.56425 10.6637 5.5926 10.6494 5.60028C10.4253 5.72104 10.285 5.78464 10.1837 5.80605C9.84871 5.87682 9.67936 5.87379 9.52322 5.74537C9.47405 5.70493 9.42149 5.66835 9.3636 5.6335C9.34866 5.62451 9.3335 5.6157 9.31786 5.60692L9.3225 5.60119L9.32047 5.59105C9.33775 5.6007 9.35442 5.61035 9.37085 5.62024C9.42932 5.65544 9.48245 5.69241 9.5322 5.73333C9.68378 5.858 9.84989 5.86097 10.1808 5.79106C10.2803 5.77003 10.4199 5.70678 10.6428 5.58667C10.657 5.57903 10.7082 5.55075 10.7773 5.51263L10.7774 5.51255L10.7775 5.51253C10.9406 5.4225 11.203 5.27765 11.3119 5.21996L11.3598 5.19477C11.9269 4.89774 12.1433 4.82097 12.5334 4.73169C12.5709 4.7231 12.5983 4.71633 12.6252 4.70881C12.667 4.69711 12.7051 4.6841 12.7443 4.66778C13.0447 4.54267 13.4069 4.76724 13.5043 5.03436C13.5497 5.15899 13.616 5.29745 13.7211 5.4941L13.7581 5.56216C13.8257 5.68638 13.9653 5.94297 14.0164 6.04081C14.3481 6.67535 14.5328 7.19234 14.5826 7.76733C14.4801 8.15484 14.1603 8.54073 13.8601 8.5949ZM9.30487 5.58244L9.32047 5.59105L9.32013 5.58936C9.31505 5.58676 9.30996 5.58446 9.30487 5.58244ZM9.25218 5.57155C9.26966 5.57184 9.28726 5.57544 9.30487 5.58244C9.27818 5.56785 9.24985 5.55312 9.2186 5.53747C9.20343 5.52987 9.16978 5.51341 9.13845 5.49811L9.13809 5.49496C9.1257 5.48907 9.1136 5.48412 9.10174 5.48017L9.07357 5.46638C8.98199 5.42094 8.91944 5.38486 8.86892 5.34516L8.86894 5.34437C8.86562 5.34175 8.86227 5.33933 8.85888 5.3371L8.86892 5.34516L8.8686 5.35685L8.86379 5.36021C8.85961 5.35698 8.85552 5.35373 8.85149 5.35044L8.85159 5.35037C8.85449 5.35229 8.85736 5.35436 8.86019 5.3566L8.86053 5.34412L8.85159 5.35037C8.85127 5.35016 8.85096 5.34995 8.85064 5.34974C8.8404 5.34136 8.83062 5.33278 8.82115 5.32389L8.81599 5.31903C8.72243 5.29985 8.61544 5.39941 8.55465 5.55964L8.56545 5.56884L8.86379 5.36021C8.91023 5.39617 8.96648 5.42926 9.04478 5.4689C8.93087 5.46336 8.83518 5.56968 8.71293 5.84178L8.72402 5.85105L9.13381 5.5127C9.16468 5.52778 9.19745 5.54382 9.21233 5.55127C9.22615 5.55819 9.2394 5.56493 9.25218 5.57155ZM9.29911 5.59652C9.28407 5.58829 9.2685 5.58002 9.25218 5.57155C9.12229 5.5694 8.99869 5.74952 8.92459 6.07015L8.93722 6.0769L9.31786 5.60692L9.30468 5.59958L9.30514 5.59902L9.31377 5.60311L9.31141 5.59128L9.30514 5.59902L9.29911 5.59652ZM8.94636 6.04202C9.02941 5.70796 9.16614 5.54479 9.29911 5.59652L9.30468 5.59958L8.94636 6.04202ZM8.94636 6.04202L8.93875 6.07375L8.92612 6.067L8.94636 6.04202ZM9.119 5.50548L9.13381 5.5127L9.13959 5.50793L9.13845 5.49811L9.11904 5.48863L9.10174 5.48017C9.08215 5.47363 9.06323 5.4698 9.04478 5.4689L9.06734 5.48021L9.09667 5.49455C8.96901 5.45261 8.87155 5.53351 8.73957 5.81876L8.71501 5.83903L8.7261 5.8483L8.73957 5.81876L9.119 5.50548ZM9.12098 5.50384C9.11275 5.50028 9.10465 5.49718 9.09667 5.49455L9.11302 5.50256L9.119 5.50548L9.12098 5.50384ZM9.12098 5.50384L9.13209 5.50889L9.13059 5.49591L9.12098 5.50384ZM8.57753 5.54202L8.85149 5.35044C8.85121 5.35021 8.85092 5.34998 8.85064 5.34974C8.763 5.29297 8.64645 5.37947 8.57753 5.54202ZM8.57753 5.54202L8.55738 5.55611L8.56818 5.5653C8.57119 5.55738 8.57431 5.54962 8.57753 5.54202Z" fill="black"/>
<path fill-rule="evenodd" clip-rule="evenodd" d="M13.4174 7.76052C13.407 7.98656 13.4106 8.10819 13.4451 8.31083L13.4355 8.31938C13.4245 8.31531 13.4103 8.31043 13.3955 8.30536C13.3735 8.29778 13.3501 8.28978 13.3344 8.28338C13.3081 8.10568 13.3059 7.99504 13.3155 7.7864L13.3174 7.74306C13.329 7.47498 13.3086 7.29543 13.2079 6.97537C13.0866 6.58909 12.9935 6.06184 12.9965 5.78642L13.0932 5.76703C13.0955 6.03356 13.1882 6.55912 13.3091 6.94378C13.4104 7.2658 13.431 7.44723 13.4193 7.71711L13.4174 7.76052ZM13.4404 8.30497L13.4308 8.31352C13.4301 8.30922 13.4293 8.30496 13.4286 8.30073C13.4328 8.3022 13.4368 8.30363 13.4404 8.30497ZM13.3431 8.27471C13.3616 8.27867 13.4004 8.29081 13.4286 8.30073C13.3959 8.10433 13.3926 7.98209 13.4028 7.75979L13.4048 7.71642C13.4163 7.44831 13.396 7.26873 13.2953 6.94858C13.1739 6.5625 13.0809 6.03539 13.0879 5.77444L13.0058 5.7937C13.0081 6.06001 13.1008 6.58572 13.2218 6.97057C13.3231 7.2925 13.3436 7.47389 13.332 7.74375L13.33 7.78713C13.3205 7.99483 13.3226 8.10456 13.3431 8.27471Z" fill="black"/>
<path fill-rule="evenodd" clip-rule="evenodd" d="M11.7186 5.01062C11.637 5.04736 11.6376 5.17759 11.7036 5.38044C11.7563 5.54266 11.8498 5.74646 11.9621 5.95463L11.9755 5.94881L11.7285 5.0156L11.7186 5.01062ZM12.9157 8.02564C12.9264 8.09063 12.9315 8.16843 12.9307 8.24757L12.9249 8.25498L12.9 8.2605C12.8635 8.26867 12.8222 8.27793 12.7901 8.28072C12.7025 7.79339 12.6827 7.32271 12.7142 6.85845C12.7264 6.67885 12.7159 6.54741 12.6807 6.31301C12.6661 6.2158 12.6641 6.2022 12.6589 6.16196C12.6475 6.07256 12.642 5.99834 12.65 5.91618L12.8173 5.92558C12.8165 6.0639 12.853 6.38198 12.8915 6.6134C12.9122 6.60189 12.9413 6.59875 12.987 6.59963L13.0057 6.6001C13.0484 6.60133 13.0648 6.60089 13.0798 6.59673C13.0969 6.59194 13.1027 6.58327 13.0986 6.56537L13.1127 6.56167C13.1178 6.5824 13.1401 6.67492 13.1388 6.66924L13.1408 6.67769C13.1584 6.75001 13.1698 6.79493 13.1778 6.82116C13.187 6.85486 13.1716 6.87451 13.1366 6.88164C13.1118 6.88668 13.0877 6.88644 13.0183 6.88266C12.998 6.88156 12.9867 6.88101 12.9742 6.88057C12.9415 6.87942 12.9145 6.87987 12.8928 6.88024C12.8795 6.88046 12.8681 6.88065 12.8585 6.88042C12.8801 6.96706 12.8814 7.04584 12.8731 7.26773C12.865 7.48329 12.8661 7.59343 12.8845 7.72357C12.8873 7.74365 12.8906 7.76339 12.8942 7.78281C12.9216 7.77244 12.9702 7.78098 13.0938 7.81002L13.1021 7.81197C13.1778 7.8297 13.2173 7.83745 13.2517 7.83975C13.2933 7.84252 13.3133 7.83506 13.314 7.81743L13.3131 7.84607C13.3 7.85428 13.2789 7.85688 13.2508 7.85501C13.2153 7.85264 13.1754 7.84481 13.099 7.8269L13.0906 7.82494C12.96 7.79425 12.9133 7.7871 12.8928 7.80042L12.8818 7.79547C12.8773 7.77269 12.8734 7.74949 12.8701 7.72581C12.8515 7.59445 12.8504 7.48361 12.8585 7.26713C12.8668 7.047 12.8655 6.96885 12.8495 6.87498C12.8816 6.86578 12.9205 6.86339 12.9747 6.86529C12.9873 6.86573 12.9987 6.86629 13.019 6.86739C13.0869 6.87109 13.1107 6.87133 13.1338 6.86663C13.1612 6.86105 13.1704 6.84939 13.1638 6.82559C13.1558 6.79917 13.1443 6.75411 13.1267 6.68147L13.1247 6.67301C13.1256 6.67696 13.1148 6.63217 13.1066 6.59815C13.114 6.58945 13.1163 6.57735 13.1127 6.56179L13.0986 6.56549L13.1066 6.59815C13.1013 6.60426 13.0936 6.6087 13.0835 6.61151C13.0666 6.61621 13.0497 6.61666 13.0053 6.61539L12.9867 6.61492C12.9367 6.61396 12.9082 6.61808 12.8906 6.63206L12.879 6.6273C12.8397 6.3942 12.8019 6.06723 12.8099 5.93318L12.6572 5.92389C12.6565 5.99766 12.662 6.07118 12.6734 6.15992C12.6785 6.19999 12.6805 6.21357 12.6951 6.31063C12.7304 6.54609 12.741 6.67851 12.7287 6.85953C12.6973 7.32254 12.717 7.79192 12.7952 8.27196C12.8248 8.26289 12.8755 8.25023 12.9162 8.24127L12.9162 8.24742L12.922 8.24001L12.9162 8.24127C12.9166 8.16512 12.9118 8.09034 12.9068 8.01951C12.9477 8.00919 12.9972 8.01088 13.0608 8.02197C13.0821 8.02569 13.1033 8.0301 13.1332 8.03681C13.225 8.05737 13.2385 8.06003 13.2655 8.06057C13.2989 8.06123 13.3124 8.05166 13.3108 8.02696C13.3091 8.00061 13.3103 7.93057 13.3131 7.84607C13.3228 7.83995 13.3281 7.83073 13.3286 7.81793L13.314 7.81737L13.314 7.81736L13.3286 7.81793C13.3252 7.91422 13.3235 7.99745 13.3253 8.02592C13.3277 8.06139 13.3061 8.07667 13.2652 8.07585C13.2368 8.07529 13.2234 8.07265 13.1302 8.05176C13.1005 8.0451 13.0794 8.04073 13.0584 8.03705C12.9966 8.02627 12.9488 8.02464 12.9157 8.02564ZM11.7168 5.02856L11.7145 5.01969L11.7243 5.02467C11.7217 5.02585 11.7192 5.02715 11.7168 5.02856ZM11.9452 5.8915C11.8465 5.70365 11.7651 5.52223 11.7174 5.3755C11.6562 5.1872 11.6533 5.06584 11.7168 5.02856L11.9452 5.8915ZM11.9452 5.8915C11.9549 5.90998 11.9648 5.92851 11.9748 5.94709L11.9614 5.9529L11.9452 5.8915ZM11.761 6.14844L11.7609 6.14849L11.7609 6.14849L11.7606 6.14865L11.7654 6.16515C11.8343 6.13819 11.9032 6.10654 11.9722 6.07049L11.9667 6.05429L11.9664 6.05444L11.9664 6.05443L11.9662 6.0545L11.761 6.14844ZM11.761 6.14844C11.8294 6.12169 11.8978 6.09028 11.9662 6.0545L11.9664 6.05444L11.9719 6.07063L11.7658 6.16498L11.7609 6.14849L11.761 6.14844ZM10.582 6.3766C10.5819 6.37662 10.5819 6.37665 10.5818 6.37667L10.5856 6.39355L10.7392 6.3461L10.7357 6.32909C10.7357 6.32911 10.7356 6.32913 10.7355 6.32914L10.7355 6.32914L10.7354 6.32918C10.683 6.34358 10.632 6.35934 10.5821 6.37657L10.582 6.3766L10.582 6.3766ZM10.582 6.3766L10.5858 6.39348C10.6357 6.37627 10.6866 6.36053 10.739 6.34614L10.7355 6.32914C10.7355 6.32916 10.7355 6.32917 10.7354 6.32918L10.5821 6.37657C10.582 6.37658 10.582 6.37659 10.582 6.3766Z" fill="black"/>
<path fill-rule="evenodd" clip-rule="evenodd" d="M11.183 6.16697C11.7404 6.10861 12.2878 5.84541 12.5132 5.50368L12.5264 5.50674L12.5439 5.62699C12.4248 5.80076 12.2242 5.95334 11.9762 6.059C11.9756 6.05717 11.9863 6.09107 11.9896 6.1013C11.9953 6.11866 12.0004 6.13356 12.0057 6.14775C12.0495 6.26398 12.1011 6.31365 12.1769 6.27862C12.1584 6.28751 12.1394 6.29619 12.1198 6.30469C12.0667 6.29811 12.0263 6.24396 11.9922 6.15337C11.9868 6.13892 11.9816 6.12381 11.9758 6.10623C11.9725 6.09592 11.9618 6.06196 11.9664 6.05441C12.2162 5.94033 12.4146 5.78934 12.5308 5.62382L12.515 5.52747C12.5185 5.52246 12.5219 5.51743 12.5252 5.51238L12.512 5.50933L12.515 5.52747C12.2809 5.86605 11.7375 6.12428 11.1844 6.18218C10.6497 6.23818 10.2398 6.40372 9.84162 6.66942C9.82502 6.63806 9.8051 6.61958 9.755 6.58294L9.75481 6.5828C9.74154 6.57309 9.73557 6.56865 9.72831 6.56298C9.52668 6.40619 9.43443 6.20878 9.44785 6.02605C9.45723 5.89837 9.52054 5.8031 9.59346 5.79356C9.60703 5.80117 9.62109 5.80796 9.63622 5.81412L9.64143 5.79984C9.62529 5.79342 9.60915 5.79151 9.59346 5.79356C9.58029 5.78617 9.56758 5.77801 9.55479 5.7689C9.54274 5.76031 9.51081 5.73525 9.50148 5.72793C9.49996 5.72674 9.49904 5.72602 9.49891 5.72592C9.42848 5.67111 9.28484 5.89344 9.30277 6.12821C9.3109 6.23451 9.39686 6.40613 9.48585 6.51102L9.4791 6.52363C9.33185 6.49548 9.26205 6.45509 9.17901 6.33616C9.22178 6.3082 9.27856 6.2892 9.3309 6.28328L9.33481 6.29287L9.33505 6.29246L9.34097 6.28231C9.3377 6.28257 9.33441 6.28289 9.3311 6.28326C9.33103 6.28327 9.33097 6.28328 9.3309 6.28328L9.32017 6.257C9.30976 6.23112 9.30209 6.20837 9.29802 6.18657C9.29486 6.16965 9.29387 6.1533 9.29546 6.13647C9.29328 6.13645 9.29109 6.13646 9.28889 6.13649C9.21791 6.13752 9.13651 6.16486 9.06016 6.21204C9.04928 6.20066 9.03802 6.18905 9.02615 6.17695C9.00574 6.15614 8.95277 6.10342 8.91568 6.06649C8.89739 6.04828 8.88296 6.03392 8.87819 6.02911C8.73546 5.88529 8.65453 5.78414 8.59395 5.65889C8.51389 5.49314 8.50439 5.34218 8.56051 5.26338C8.59792 5.21085 8.6571 5.19999 8.72402 5.2313C8.73204 5.23896 8.73991 5.24648 8.74751 5.25374C8.76102 5.26664 8.77367 5.27872 8.78472 5.28927C8.69643 5.21416 8.61642 5.2104 8.57217 5.27253C8.51999 5.3458 8.52912 5.49087 8.60694 5.65197C8.66661 5.77533 8.74663 5.87535 8.88827 6.01808C8.89301 6.02285 8.90737 6.03715 8.9256 6.0553C8.9627 6.09223 9.0158 6.14509 9.0363 6.16598C9.04821 6.17812 9.05951 6.18978 9.06121 6.2003C9.12886 6.15205 9.20986 6.12397 9.28809 6.12722C9.27045 5.88276 9.42274 5.64762 9.50749 5.71357C9.50767 5.7137 9.50878 5.71457 9.51059 5.71599C9.52051 5.72377 9.5514 5.748 9.56297 5.75625C9.58806 5.77413 9.61276 5.78817 9.64149 5.79986L9.63628 5.81414C9.55655 5.78245 9.47313 5.88077 9.46237 6.02723C9.44935 6.20454 9.53926 6.39694 9.73699 6.5507C9.7441 6.55626 9.74999 6.56064 9.76313 6.57025L9.76333 6.57039C9.81522 6.60835 9.83631 6.62791 9.84397 6.65932C10.2336 6.38966 10.6457 6.22323 11.183 6.16697ZM9.33747 6.29796C9.28588 6.30294 9.22894 6.32124 9.18846 6.33777C9.26698 6.43736 9.33119 6.47715 9.46126 6.50449C9.41457 6.44579 9.36984 6.37089 9.33747 6.29796ZM8.79477 5.27819C8.77065 5.25763 8.74689 5.242 8.72402 5.2313C8.66735 5.17718 8.60373 5.11654 8.58015 5.09502C8.50193 5.02363 8.44305 4.97827 8.38613 4.94781C8.37402 4.94134 8.36205 4.93558 8.35014 4.93053C8.18103 4.85861 8.00271 5.03891 8.0867 5.30304C8.17993 5.59656 8.29863 5.76487 8.57286 6.05467L8.59311 6.07607C8.85773 6.3556 8.96854 6.50813 9.05945 6.77247C9.12108 6.95192 9.18675 7.06945 9.26979 7.13006C9.36859 7.20216 9.49019 7.18916 9.64401 7.07656C9.66222 7.06324 9.67488 7.05411 9.69617 7.03885L9.69681 7.03839C9.7111 7.0281 9.72234 7.01989 9.73809 7.0082C9.85536 6.93704 9.99904 7.05577 10.0047 7.24865C10.0003 7.26147 9.99526 7.27483 9.98969 7.28881L10.0037 7.29237C10.0048 7.27743 10.0051 7.26284 10.0047 7.24865C10.0434 7.13734 10.0407 7.06692 10.0049 6.98992C9.99815 6.97536 9.99021 6.96026 9.97925 6.94079C9.97906 6.94044 9.97883 6.94005 9.97859 6.93961C9.97287 6.92947 9.95417 6.89635 9.95824 6.88983C9.93972 6.90018 9.92476 6.89186 9.91422 6.87C9.907 6.855 9.90224 6.83705 9.89462 6.80085L9.89277 6.79204C9.88311 6.74608 9.87693 6.72671 9.86841 6.72076L9.8686 6.7079C10.0936 6.56107 10.3209 6.44995 10.5911 6.37718C10.605 6.5137 10.6402 6.5832 10.7124 6.57054C10.7468 6.56251 10.7804 6.55528 10.814 6.54873C10.8291 6.55604 10.8467 6.55803 10.867 6.55447C10.8166 6.56327 10.767 6.57346 10.7152 6.58554C10.6304 6.60044 10.5914 6.5234 10.5859 6.38534C10.3294 6.46329 10.1055 6.57215 9.88425 6.71571C9.89277 6.72729 9.89845 6.74809 9.90699 6.78875L9.90884 6.79756C9.91617 6.83239 9.92076 6.84969 9.92722 6.86309C9.93448 6.87816 9.94132 6.88196 9.96108 6.87918L9.99179 6.93302C10.0029 6.95281 10.011 6.96823 10.018 6.98322C10.0598 7.07329 10.0586 7.15552 10.0031 7.29471L9.98915 7.29115C10.005 7.08416 9.85988 6.95196 9.74594 7.02106C9.73069 7.03241 9.71939 7.04067 9.70504 7.051L9.7044 7.05146C9.68311 7.06673 9.6705 7.07582 9.65234 7.0891C9.49392 7.20507 9.36582 7.21877 9.26148 7.14261C9.17529 7.07971 9.10833 6.95986 9.04575 6.77766C8.95576 6.51597 8.84601 6.36491 8.58278 6.08685L8.56253 6.06545C8.28684 5.77411 8.167 5.60417 8.07288 5.30788C7.98499 5.03148 8.17487 4.83949 8.3556 4.91636C8.36791 4.92158 8.38026 4.92752 8.39274 4.93419C8.45094 4.96532 8.51066 5.01134 8.5897 5.08348C8.61677 5.10818 8.6961 5.18396 8.75753 5.24263C8.77106 5.25556 8.78372 5.26765 8.79477 5.27819ZM10.8646 6.53939L10.867 6.55447L10.8646 6.53939C10.8646 6.53939 10.8646 6.53939 10.8646 6.53939ZM10.8646 6.53939C10.7932 6.55193 10.7591 6.4785 10.7446 6.33572C10.8816 6.30958 11.0323 6.2852 11.1919 6.27149C11.3849 6.25488 11.582 6.21368 11.7655 6.15114C11.8035 6.31887 11.8607 6.4173 11.9446 6.38782C12.0318 6.35848 12.1107 6.32714 12.1826 6.29271C12.1843 6.29192 12.186 6.29109 12.1877 6.29022L12.1816 6.27638C12.18 6.27713 12.1785 6.27787 12.1769 6.27862C12.1784 6.27792 12.1799 6.27719 12.1815 6.27642L12.1876 6.29027C12.186 6.29108 12.1843 6.2919 12.1826 6.29271C12.1598 6.30324 12.139 6.30706 12.1198 6.30469C12.0642 6.32892 12.0044 6.35164 11.9401 6.37329C11.869 6.39826 11.8149 6.30515 11.7702 6.14176C11.5786 6.19876 11.3825 6.23973 11.1907 6.25625C11.0304 6.27002 10.8791 6.29451 10.7357 6.32908C10.7431 6.45009 10.7665 6.52573 10.814 6.54873C10.8308 6.54545 10.8477 6.54234 10.8646 6.53939ZM8.79477 5.27819C8.80683 5.28848 8.81898 5.30001 8.83115 5.31278L8.82115 5.32388C8.81429 5.31745 8.80131 5.30509 8.78472 5.28927C8.79664 5.2994 8.8087 5.31084 8.82085 5.32359L8.83085 5.31248C8.82406 5.30611 8.81121 5.29388 8.79477 5.27819Z" fill="black"/>
<path fill-rule="evenodd" clip-rule="evenodd" d="M13.7458 8.90475C13.6498 9.31403 13.7627 9.7757 14.0219 10.0234L14.0217 10.0348C13.6638 10.3581 13.2857 10.6112 12.8866 10.8149C12.7693 10.8747 12.6693 10.9418 12.5601 11.0295C12.533 11.0512 12.5062 11.0734 12.4716 11.1028C12.4747 11.1001 12.4056 11.1587 12.3866 11.1747C12.3013 11.2462 12.2377 11.2944 12.1692 11.3365C12.5654 11.4071 13.0161 11.7912 13.3178 12.2942C13.6748 12.8892 14.03 13.1812 14.6079 13.4837C14.9291 13.652 14.9125 13.8694 14.6541 14.191C14.4821 14.4052 14.4137 14.5782 14.3139 14.9646C14.2051 15.3855 14.1294 15.5721 13.9282 15.8105C13.7441 16.0286 13.491 15.952 13.4638 15.7492C13.4542 15.6767 13.4598 15.5947 13.4797 15.4804C13.4886 15.4292 13.5251 15.2536 13.5431 15.1669L13.553 15.119C13.5554 15.1068 13.5575 15.095 13.5592 15.0832C13.5589 15.0996 13.5612 15.1149 13.5658 15.1292L13.5573 15.1706C13.5392 15.2575 13.5029 15.4323 13.494 15.4832C13.4744 15.596 13.4689 15.6765 13.4783 15.7471C13.5037 15.9368 13.7414 16.0088 13.9173 15.8004C14.1166 15.5642 14.1916 15.3794 14.2998 14.9606C14.4001 14.5722 14.4692 14.3975 14.643 14.1812C14.8962 13.866 14.9119 13.6601 14.6014 13.4974C14.0213 13.1938 13.6641 12.9001 13.3055 12.3023C13.0007 11.7941 12.5429 11.4082 12.1466 11.3483L12.1441 11.3341C12.2188 11.2897 12.2853 11.24 12.3775 11.1628C12.3965 11.1468 12.4655 11.0882 12.4624 11.0908C12.4972 11.0615 12.5241 11.0391 12.5513 11.0173C12.6612 10.9291 12.762 10.8614 12.8802 10.8011C13.2759 10.5992 13.6509 10.3486 14.006 10.0288L14.0121 10.0347L14.0122 10.0232L14.006 10.0288C13.747 9.77585 13.6352 9.31244 13.7332 8.90787C13.544 8.67391 13.0715 8.57721 12.7079 8.67516C12.3582 8.93474 12.067 9.26726 11.7907 9.69169C11.7146 9.80855 11.5607 10.0763 11.4109 10.3369L11.4109 10.3369C11.2553 10.6077 11.1041 10.8708 11.0492 10.9489C11.0319 10.9735 11.015 10.9966 10.9982 11.0183C10.8312 11.2344 10.8271 11.6661 11.0736 11.871C11.0851 11.8806 11.0962 11.8902 11.1071 11.9001C11.1404 11.9303 11.1707 11.9614 11.2063 12.0015L11.2483 12.0497L11.2483 12.0498L11.2484 12.0498C11.2764 12.0822 11.3101 12.121 11.3255 12.1383C11.379 12.1981 11.4322 12.2533 11.496 12.3135C11.6607 12.4691 11.8835 12.646 12.1994 12.8656C12.3602 12.9773 12.8659 13.3113 12.8634 13.3096C13.0869 13.4603 13.2135 13.5586 13.2837 13.6422C13.5094 13.9109 13.5918 14.0669 13.5639 14.273C13.5524 14.3584 13.5489 14.4341 13.5523 14.529L13.5453 14.5277L13.5379 14.5347C13.5342 14.4365 13.5376 14.3588 13.5495 14.2709C13.5765 14.0707 13.4957 13.9178 13.2728 13.6523C13.2038 13.5701 13.0778 13.4724 12.8555 13.3224C12.8581 13.3242 12.3524 12.9902 12.1914 12.8783C11.8749 12.6584 11.6515 12.481 11.4863 12.3249C11.4222 12.2644 11.3686 12.2089 11.3149 12.1487C11.2994 12.1314 11.2655 12.0922 11.2374 12.0599L11.1956 12.0119C11.1604 11.9722 11.1305 11.9414 11.0976 11.9117C11.0869 11.9019 11.0759 11.8924 11.0645 11.883C10.811 11.6723 10.8152 11.2308 10.9869 11.0087C11.0035 10.9872 11.0203 10.9642 11.0375 10.9398C11.092 10.8623 11.2425 10.6004 11.3977 10.3304L11.3977 10.3304L11.3977 10.3304L11.3977 10.3304L11.3977 10.3303L11.3977 10.3303L11.3977 10.3303C11.5477 10.0693 11.7022 9.80053 11.7786 9.68306C12.0559 9.25724 12.3482 8.92343 12.7019 8.66151C13.0728 8.56107 13.551 8.65894 13.7458 8.90475ZM13.5387 14.5532L13.5379 14.5347L13.5367 14.5358C13.5371 14.5417 13.5378 14.5475 13.5387 14.5532ZM13.5561 14.6066C13.5476 14.5906 13.5417 14.5727 13.5387 14.5532C13.541 14.6061 13.5453 14.6652 13.5513 14.7349L13.5523 14.7465L13.5499 14.7484C13.5512 14.7626 13.5532 14.7761 13.5558 14.7888C13.5671 14.9283 13.5695 15.0006 13.5613 15.0679L13.5603 15.0685C13.5597 15.0735 13.5594 15.0784 13.5592 15.0832L13.5613 15.0679L13.5707 15.0626L13.5763 15.0654C13.5757 15.0708 13.575 15.0761 13.5742 15.0814L13.5739 15.0813C13.574 15.0777 13.5743 15.074 13.5747 15.0703L13.5643 15.0763L13.5739 15.0813C13.5739 15.0823 13.5738 15.0834 13.5738 15.0844C13.572 15.0969 13.5698 15.1093 13.5673 15.1221L13.5658 15.1292C13.5967 15.2239 13.7324 15.2715 13.8949 15.2465L13.8971 15.2321L13.5763 15.0654C13.5829 15.0083 13.582 14.9472 13.5748 14.8459C13.627 14.9525 13.7627 14.9865 14.0486 14.9615L14.0507 14.9468L13.5667 14.7435L13.5658 14.7335C13.5618 14.6869 13.5586 14.645 13.5561 14.6066ZM13.5532 14.5514C13.5539 14.569 13.5549 14.5874 13.5561 14.6066C13.6195 14.7256 13.8298 14.7478 14.131 14.655L14.1303 14.6401L13.5523 14.529L13.5529 14.5447L13.5522 14.5446L13.5512 14.5347L13.5427 14.5427L13.5522 14.5446L13.5532 14.5514ZM14.0969 14.6492C13.78 14.7407 13.5771 14.698 13.5532 14.5514L13.5529 14.5447L14.0969 14.6492ZM14.0969 14.6492L14.1269 14.6403L14.1276 14.6551L14.0969 14.6492ZM13.5681 14.7605L13.5667 14.7435L13.5598 14.7406L13.5523 14.7465L13.5558 14.7888C13.5602 14.8098 13.5664 14.8288 13.5748 14.8459C13.5735 14.8274 13.572 14.8076 13.5702 14.7863C13.5994 14.9233 13.7149 14.9715 14.0163 14.9488L14.0453 14.961L14.0474 14.9463L14.0163 14.9488L13.5681 14.7605ZM13.5658 14.7595C13.5669 14.7688 13.5684 14.7777 13.5702 14.7863L13.5681 14.7605L13.5658 14.7595ZM13.5658 14.7595L13.5644 14.7469L13.5544 14.7548L13.5658 14.7595ZM13.8689 15.2345L13.5742 15.0814C13.5741 15.0824 13.574 15.0834 13.5738 15.0844C13.5724 15.1913 13.7016 15.2532 13.8689 15.2345ZM13.8689 15.2345L13.8906 15.2458L13.8928 15.2314C13.8848 15.2326 13.8768 15.2337 13.8689 15.2345Z" fill="black"/>
<path fill-rule="evenodd" clip-rule="evenodd" d="M13.2616 9.73387C13.4753 9.6182 13.5642 9.5612 13.719 9.42413L13.7308 9.42858C13.7329 9.44053 13.7361 9.45617 13.7394 9.47247C13.7442 9.4961 13.7493 9.52115 13.7519 9.53844C13.6137 9.65528 13.5332 9.70574 13.3339 9.8136L13.2929 9.83597C13.0839 9.9512 12.9425 10.0644 12.7361 10.3075C12.4782 10.6111 12.0899 10.9592 11.8612 11.0942L11.7968 11.0161C12.0155 10.8808 12.4026 10.5337 12.6594 10.2312C12.8672 9.98666 13.0099 9.87233 13.2206 9.75623L13.2616 9.73387ZM13.7165 9.43138L13.7283 9.43582C13.7252 9.43864 13.722 9.44142 13.7189 9.44417C13.718 9.43961 13.7172 9.4353 13.7165 9.43138ZM13.7189 9.44417C13.5688 9.57617 13.4785 9.63368 13.2683 9.74746L13.2274 9.76977C13.0181 9.88504 12.8768 9.99825 12.6703 10.2414C12.4126 10.545 12.0243 10.8931 11.8055 11.0171L11.8625 11.0821C12.0811 10.9469 12.4683 10.5998 12.7252 10.2973C12.9329 10.0528 13.0756 9.93849 13.2861 9.82243L13.3273 9.80001C13.5257 9.69259 13.6055 9.64257 13.7404 9.53493C13.7343 9.51612 13.7248 9.47442 13.7189 9.44417Z" fill="black"/>
<path fill-rule="evenodd" clip-rule="evenodd" d="M12.597 11.8967L12.6059 11.8846C12.6663 11.9314 12.7236 11.9803 12.7775 12.0313L12.768 12.0429L12.597 11.8967ZM12.5973 11.8969C12.6573 11.9434 12.7142 11.992 12.7677 12.0427L12.7772 12.031L12.6062 11.8849L12.5973 11.8969ZM13.5606 13.0075C13.5608 13.0077 13.561 13.0079 13.5611 13.0081L13.5724 12.9963L13.5722 12.9961C13.5723 12.9962 13.5724 12.9963 13.5725 12.9964L13.5613 13.0082L13.5606 13.0075ZM13.4396 12.8801L13.5606 13.0075C13.5211 12.9682 13.481 12.926 13.4396 12.8801ZM13.4392 12.8796C13.4393 12.8798 13.4395 12.88 13.4396 12.8801L13.4392 12.8797L13.4392 12.8796ZM13.4507 12.8682L13.4392 12.8796C13.4391 12.8796 13.4391 12.8795 13.4391 12.8795L13.4506 12.8681L13.4507 12.8682ZM13.4512 12.8687L13.5722 12.9961C13.5326 12.9568 13.4926 12.9146 13.4512 12.8687ZM13.4512 12.8687L13.4507 12.8682L13.4507 12.8682C13.4509 12.8684 13.451 12.8685 13.4512 12.8687Z" fill="black"/>
<path fill-rule="evenodd" clip-rule="evenodd" d="M11.8748 11.6733L11.8707 11.6598C11.8766 11.6603 11.8824 11.6609 11.8883 11.6615L11.8748 11.6733ZM12.7256 11.6312C12.7378 11.6606 12.7356 11.6943 12.721 11.7316C12.7076 11.7654 12.685 11.8005 12.6524 11.8413C12.6403 11.8565 12.6283 11.8708 12.5972 11.8969C12.3779 11.7267 12.1542 11.6218 11.9598 11.5992L11.8883 11.6615C12.2846 11.7051 12.7692 12.07 13.0935 12.5441C13.407 13.0022 13.7484 13.292 14.1669 13.5214C14.1493 13.5523 14.144 13.5797 14.1389 13.6438L14.1387 13.6455C14.1375 13.6607 14.1368 13.6687 14.1358 13.6777C14.1073 13.9394 13.9906 14.122 13.8331 14.2012C13.7232 14.2564 13.6131 14.2466 13.5687 14.1852C13.5682 14.1693 13.5667 14.1534 13.5641 14.1359L13.5497 14.1383C13.5525 14.1562 13.559 14.1719 13.5687 14.1852C13.5695 14.2116 13.5676 14.2382 13.5636 14.273C13.5616 14.2894 13.5608 14.2968 13.56 14.3049C13.55 14.3963 13.8052 14.4157 13.9899 14.282C14.0734 14.2215 14.1719 14.0578 14.2142 13.9242L14.2279 13.9241C14.2782 14.0719 14.2798 14.1556 14.2234 14.2906C14.179 14.2658 14.135 14.2237 14.1037 14.179C14.1066 14.175 14.1088 14.1719 14.1097 14.1707L14.1091 14.1706L14.0979 14.1704C14.0997 14.1732 14.1016 14.176 14.1036 14.1788C14.1036 14.1788 14.1037 14.1789 14.1037 14.179C14.103 14.18 14.1021 14.1812 14.1013 14.1824C14.0945 14.1919 14.0857 14.2043 14.0819 14.2094C14.0701 14.2254 14.0591 14.2388 14.047 14.2516C14.0403 14.2587 14.0334 14.2655 14.0263 14.2711C14.0178 14.2779 14.009 14.2829 14.0004 14.2846C14.0014 14.2866 14.0025 14.2885 14.0036 14.2905C14.0399 14.3545 14.1032 14.4149 14.1804 14.4607C14.1672 14.5127 14.1642 14.5258 14.1353 14.6531C14.0772 14.909 14.0378 15.0312 13.9571 15.1611C13.8605 15.3168 13.7408 15.4009 13.6477 15.3893C13.5856 15.3816 13.547 15.3331 13.5394 15.2564C13.5461 15.2243 13.5523 15.1944 13.5572 15.1709C13.5388 15.2896 13.5757 15.3649 13.6494 15.3741C13.7359 15.3849 13.851 15.3041 13.9449 15.1528C14.0244 15.0248 14.0634 14.9038 14.1211 14.6495C14.15 14.5221 14.153 14.509 14.1701 14.4656C14.0965 14.4282 14.0328 14.3686 13.9964 14.2959C13.8036 14.4341 13.5335 14.4133 13.5456 14.3032C13.5463 14.2951 13.5472 14.2875 13.5491 14.2712C13.5554 14.2166 13.5563 14.1831 13.5497 14.1382L13.5641 14.1358C13.5778 14.2241 13.7006 14.2508 13.8268 14.1874C13.9796 14.1106 14.0934 13.9326 14.1213 13.676C14.1223 13.6671 14.123 13.6593 14.1242 13.6442L14.1243 13.6426C14.1297 13.5761 14.1352 13.5471 14.1574 13.5243C13.7399 13.3046 13.3966 13.0133 13.0817 12.553C12.7548 12.0752 12.2641 11.7091 11.8695 11.675L11.8655 11.6615L11.9559 11.5857C12.1586 11.6069 12.3846 11.7129 12.5961 11.8857C12.6175 11.8606 12.6293 11.8465 12.6413 11.8315C12.6729 11.7918 12.6948 11.7579 12.7075 11.7257C12.729 11.6711 12.7211 11.6273 12.6764 11.5931C12.6927 11.6053 12.7091 11.618 12.7256 11.6312ZM13.5811 12.6976C13.5859 12.7523 13.5353 12.8113 13.439 12.8786C13.3391 12.7658 13.2432 12.6404 13.1515 12.5014C13.0421 12.3352 12.9103 12.1775 12.7673 12.0317C12.8799 11.9091 12.9295 11.8136 12.8733 11.7614C12.8229 11.7133 12.7739 11.6699 12.7256 11.6312C12.718 11.6126 12.7045 11.5957 12.6849 11.5807C12.7494 11.6288 12.815 11.6851 12.8831 11.75C12.9493 11.8117 12.8969 11.9126 12.7774 12.0313C12.9209 12.1669 13.0534 12.3256 13.1635 12.4927C13.2548 12.6311 13.3502 12.756 13.4401 12.8672C13.5508 12.7825 13.5942 12.715 13.548 12.6563C13.559 12.6703 13.57 12.684 13.5811 12.6976ZM13.5592 12.6465L13.548 12.6563C13.548 12.6563 13.548 12.6563 13.548 12.6563L13.5592 12.6465ZM14.1835 13.4595C13.9546 13.3301 13.753 13.181 13.5604 12.9867C13.6715 12.913 13.7157 12.8387 13.6608 12.7691C13.6258 12.7291 13.5924 12.6888 13.5592 12.6465L13.5592 12.6465C13.5724 12.6632 13.5795 12.6802 13.5811 12.6976C13.6036 12.7253 13.6264 12.7524 13.6499 12.7791C13.6965 12.8384 13.6567 12.9054 13.5511 12.986C13.7463 13.1955 13.9515 13.3466 14.185 13.4777L14.1957 13.4715C14.1964 13.4601 14.2088 13.4459 14.2479 13.4083L14.2545 13.4019C14.2772 13.3799 14.2898 13.3659 14.2976 13.3524C14.3087 13.3331 14.3073 13.3163 14.2904 13.3052C14.2952 13.3098 14.3165 13.2707 14.3257 13.2537C14.3266 13.2519 14.3275 13.2504 14.3281 13.2492C14.3829 13.1498 14.4362 13.1064 14.5632 13.0834C14.4068 13.185 14.3807 13.3751 14.4981 13.4462C14.5152 13.4545 14.527 13.4603 14.5433 13.4685L14.5439 13.4688C14.577 13.4854 14.5805 13.4872 14.6015 13.4975C14.7713 13.5811 14.8428 13.6852 14.8327 13.8111C14.8242 13.9169 14.7601 14.0353 14.643 14.1811C14.4692 14.3975 14.4001 14.5722 14.2998 14.9606C14.1916 15.3794 14.1166 15.5642 13.9173 15.8003C13.7414 16.0088 13.5036 15.9368 13.4782 15.7471C13.4688 15.6765 13.4743 15.5959 13.494 15.4831C13.5005 15.446 13.5215 15.3431 13.5394 15.2564C13.5368 15.2299 13.5379 15.2 13.543 15.1672C13.5431 15.1671 13.5431 15.167 13.5431 15.1669C13.5484 15.1416 13.552 15.1239 13.553 15.1189L13.5672 15.1225C13.5629 15.1393 13.5596 15.1555 13.5572 15.1709C13.5572 15.1708 13.5572 15.1707 13.5572 15.1705C13.5626 15.145 13.5663 15.1271 13.5673 15.1221L13.5531 15.1185C13.5488 15.1354 13.5455 15.1516 13.543 15.1672C13.525 15.2541 13.4886 15.4292 13.4797 15.4804C13.4598 15.5946 13.4542 15.6767 13.4638 15.7492C13.491 15.952 13.7441 16.0286 13.9282 15.8105C14.1294 15.5721 14.2051 15.3855 14.3138 14.9646C14.4136 14.5782 14.482 14.4052 14.6541 14.191C14.7731 14.0429 14.8384 13.9221 14.8472 13.8123C14.8579 13.6794 14.7826 13.5697 14.6077 13.4836C14.5867 13.4733 14.5833 13.4716 14.5502 13.455L14.5496 13.4547C14.5332 13.4465 14.5214 13.4406 14.5048 13.4326C14.3908 13.3636 14.4273 13.1655 14.6059 13.0764L14.6018 13.0619C14.4405 13.0837 14.378 13.1281 14.3155 13.2416C14.3103 13.2511 14.2952 13.2795 14.2865 13.2961C14.2833 13.3021 14.2809 13.3066 14.2802 13.308C14.2919 13.3242 14.2925 13.3316 14.2851 13.3445C14.2783 13.3564 14.2663 13.3697 14.2447 13.3907L14.238 13.3971C14.2033 13.4304 14.1887 13.4458 14.1835 13.4595ZM14.5632 13.0834C14.5746 13.076 14.5868 13.069 14.5996 13.0626L14.6037 13.0771C14.5894 13.079 14.5759 13.0811 14.5632 13.0834ZM12.6849 11.5807C12.6836 11.5797 12.6824 11.5788 12.6811 11.5779L12.6728 11.5904C12.674 11.5913 12.6752 11.5922 12.6764 11.5931C12.6752 11.5922 12.674 11.5913 12.6727 11.5904L12.6811 11.5778C12.6824 11.5788 12.6836 11.5797 12.6849 11.5807ZM14.1125 14.1656C14.1427 14.2102 14.1861 14.2527 14.22 14.2812C14.2627 14.16 14.2634 14.0816 14.2211 13.9498C14.1959 14.0217 14.1565 14.0998 14.1125 14.1656Z" fill="black"/>
<path fill-rule="evenodd" clip-rule="evenodd" d="M14.6239 12.8735L14.5089 12.7275L14.4962 12.7306L14.4542 12.921L14.2735 12.9192L14.2679 12.9316L14.3844 13.0848L14.2709 13.2309L14.2766 13.2432L14.4636 13.2445L14.5007 13.4287L14.5135 13.4317L14.6308 13.279L14.793 13.3624L14.8031 13.3537L14.7607 13.1631L14.9246 13.0827L14.9245 13.069L14.7558 12.9832L14.7994 12.7998L14.7892 12.7913L14.6239 12.8735ZM14.7821 12.8117L14.625 12.8898L14.6163 12.8878L14.5067 12.7487L14.5104 12.7341L14.4977 12.7372L14.5067 12.7487L14.4615 12.9303L14.288 12.9342L14.2793 12.9221L14.2738 12.9345L14.288 12.9342L14.3959 13.0846L14.291 13.2285L14.2767 13.2279L14.2824 13.2402L14.291 13.2285L14.4707 13.235L14.5115 13.4106L14.5021 13.4221L14.5149 13.4251L14.5115 13.4106L14.6281 13.2673L14.7861 13.3423L14.789 13.3572L14.799 13.3485L14.7861 13.3423L14.7503 13.1581L14.9053 13.0757L14.9181 13.0827L14.918 13.069L14.9053 13.0757L14.7455 12.9885L14.7821 12.8117ZM14.7821 12.8117L14.7954 12.8051L14.7852 12.7965L14.7821 12.8117Z" fill="black"/>
<path fill-rule="evenodd" clip-rule="evenodd" d="M14.0585 8.85386C14.444 8.7364 14.7685 8.40285 14.8431 8.04355L14.8526 8.03796C15.2986 8.20195 15.6967 8.4193 16.0637 8.68006C16.216 8.78823 16.3069 8.83167 16.5741 8.93992C16.7014 8.99148 16.7763 9.02584 16.8526 9.07146C16.7127 8.67585 16.8041 8.07402 17.0682 7.54815C17.3805 6.92614 17.4438 6.45747 17.4044 5.78044C17.3825 5.40406 17.57 5.31055 17.9646 5.38468C18.222 5.43308 18.4057 5.40914 18.7528 5.31289L18.7797 5.30541C19.1733 5.19605 19.3681 5.17171 19.6634 5.23511C19.9353 5.2934 19.9987 5.56203 19.8449 5.6879C19.7867 5.73564 19.7116 5.77288 19.5957 5.81509C19.5593 5.82838 19.4467 5.86614 19.3653 5.89343L19.3652 5.89344C19.3254 5.90681 19.293 5.91767 19.2807 5.92192L19.2685 5.9263C19.2805 5.91864 19.2908 5.90966 19.2993 5.89953L19.3611 5.87879L19.3611 5.87878C19.4425 5.85149 19.5547 5.81386 19.591 5.80065C19.7055 5.75894 19.7793 5.72232 19.836 5.67584C19.9798 5.55807 19.9203 5.30579 19.6605 5.25009C19.3679 5.18728 19.175 5.21139 18.7834 5.3202L18.7565 5.32768C18.4076 5.42445 18.2221 5.44862 17.962 5.39973C17.5754 5.32709 17.3978 5.41567 17.4189 5.77951C17.4585 6.45909 17.3949 6.93039 17.0811 7.55528C16.8143 8.08664 16.7249 8.6958 16.8735 9.08613L16.8631 9.09555C16.7812 9.04482 16.7054 9.0095 16.5689 8.95418C16.3007 8.84553 16.2091 8.80175 16.0556 8.69273C15.6916 8.43417 15.2971 8.21843 14.8555 8.05524L14.8573 8.0468L14.8478 8.05239L14.8555 8.05524C14.7765 8.41705 14.45 8.75046 14.0674 8.86377C13.969 9.1527 14.1254 9.63047 14.388 9.91236C14.53 9.98103 14.6774 10.0381 14.831 10.0846C15.3041 10.2281 15.6915 10.2593 16.4614 10.2612C16.8566 10.2622 17.0108 10.2678 17.1756 10.2954C17.4374 10.3391 17.7955 10.1269 17.8413 9.80051C17.8488 9.74632 17.8596 9.69665 17.8754 9.63979C17.8851 9.60462 17.928 9.46454 17.9238 9.47831C17.9456 9.40566 17.9627 9.34213 17.9793 9.26879C18.0333 9.03017 18.0729 8.72203 18.0987 8.27945C18.1086 8.10884 18.1113 8.04125 18.1242 7.67702C18.1403 7.22083 18.1553 7.03549 18.1971 6.90524C18.3062 6.56538 18.3935 6.41279 18.5774 6.33508C18.6511 6.30395 18.7193 6.26655 18.7943 6.21754L18.7967 6.22462L18.8061 6.22784C18.7288 6.27861 18.6587 6.31719 18.5828 6.34927C18.4043 6.4247 18.3187 6.57438 18.2109 6.91012C18.1698 7.03832 18.1548 7.22336 18.1387 7.67759C18.1258 8.04197 18.1231 8.1096 18.1132 8.28038C18.0874 8.72378 18.0477 9.03278 17.9935 9.27233C17.9768 9.34606 17.9596 9.40993 17.9377 9.48289C17.9418 9.46934 17.899 9.60914 17.8894 9.64406C17.8738 9.70029 17.8631 9.74928 17.8557 9.80274C17.8086 10.1385 17.4424 10.3554 17.1733 10.3105C17.0096 10.2831 16.8557 10.2775 16.4613 10.2765C15.6902 10.2746 15.3017 10.2433 14.8269 10.0993C14.6727 10.0526 14.5245 9.99524 14.3798 9.92465C14.1114 9.63737 13.9531 9.15382 14.0585 8.85386ZM18.821 6.21793L18.8061 6.22784L18.8076 6.22838C18.8123 6.22504 18.8168 6.22156 18.821 6.21793ZM18.8563 6.17551C18.8473 6.19124 18.8356 6.20543 18.821 6.21793C18.8452 6.20171 18.8702 6.18429 18.8964 6.16549C18.9111 6.15493 18.9434 6.13115 18.9737 6.10884L18.9765 6.1101C18.9876 6.10177 18.9977 6.09322 19.0069 6.0844L19.0374 6.06201C19.0902 6.02375 19.1309 5.99646 19.1703 5.97369C19.1934 5.9603 19.2156 5.9488 19.2374 5.9391L19.2401 5.94064C19.2505 5.93658 19.26 5.93178 19.2685 5.9263C19.2582 5.93016 19.2479 5.93442 19.2374 5.9391L19.2285 5.9341L19.228 5.92669C19.2334 5.92426 19.2387 5.92193 19.244 5.9197L19.2441 5.92187C19.2407 5.92355 19.2371 5.92512 19.2333 5.92658L19.2449 5.93312L19.2441 5.92187C19.2492 5.91943 19.2539 5.91678 19.2584 5.9139C19.2643 5.9116 19.2703 5.90943 19.2762 5.90739L19.2993 5.89953C19.3643 5.82249 19.3304 5.67925 19.2167 5.54722L19.2019 5.55245L19.228 5.92669C19.207 5.93624 19.1855 5.94742 19.1632 5.96029C19.1273 5.98106 19.0905 6.00546 19.0446 6.03824C19.1061 5.93745 19.0662 5.79717 18.903 5.55005L18.8898 5.5555L18.964 6.0973C18.9341 6.1193 18.9026 6.14251 18.8881 6.15288L18.8563 6.17551ZM18.8123 6.20565C18.8266 6.19604 18.8413 6.18601 18.8563 6.17551C18.923 6.05847 18.8362 5.85602 18.6088 5.62839L18.5969 5.63649L18.7943 6.21754L18.8069 6.20921L18.8072 6.20992L18.7995 6.21573L18.8104 6.21949L18.8072 6.20992L18.8123 6.20565ZM18.6211 5.66224C18.8551 5.90467 18.9213 6.11055 18.8123 6.20565L18.8069 6.20921L18.6211 5.66224ZM18.6211 5.66224L18.5987 5.63945L18.6106 5.63135L18.6211 5.66224ZM18.9774 6.08746L18.964 6.0973L18.9651 6.10498L18.9737 6.10884L18.99 6.09687L18.99 6.09685L19.0069 6.0844C19.0221 6.06986 19.0347 6.05457 19.0446 6.03824L19.0291 6.04943L18.9976 6.07259C19.0959 5.97755 19.0778 5.84834 18.9087 5.5858L18.9042 5.55332L18.891 5.55877L18.9087 5.5858L18.9774 6.08746ZM18.9777 6.0901C18.9848 6.08438 18.9914 6.07855 18.9976 6.07259L18.9815 6.08441L18.9774 6.08746L18.9777 6.0901ZM18.9777 6.0901L18.968 6.09768L18.9795 6.1028L18.9777 6.0901ZM19.22 5.57682L19.244 5.9197C19.2488 5.91768 19.2536 5.91575 19.2584 5.9139C19.3474 5.85669 19.329 5.71429 19.22 5.57682ZM19.22 5.57682L19.2183 5.55147L19.2034 5.5567C19.2092 5.56339 19.2147 5.5701 19.22 5.57682Z" fill="black"/>
<path fill-rule="evenodd" clip-rule="evenodd" d="M14.6097 8.66321C14.5751 8.64789 14.5387 8.63301 14.5004 8.61848L14.4981 8.60547C14.5075 8.59708 14.5193 8.5859 14.5315 8.57439C14.5482 8.55858 14.5657 8.54214 14.5783 8.53137C14.5973 8.53911 14.6159 8.54695 14.634 8.55491C14.7749 8.61689 14.8366 8.65422 15.0231 8.77984C15.2468 8.93047 15.4014 9.00102 15.7205 9.07059C16.1 9.1534 16.5814 9.33236 16.8068 9.47267L16.7746 9.57036C16.5536 9.43916 16.0738 9.26072 15.6959 9.1784C15.3749 9.10842 15.2186 9.03712 14.9935 8.88549C14.8087 8.76106 14.7482 8.72434 14.6097 8.66321ZM14.5076 8.6171L14.5053 8.60409C14.5092 8.60557 14.5131 8.60705 14.5169 8.60854C14.5136 8.6116 14.5105 8.61448 14.5076 8.6171ZM14.5811 8.54352C14.5687 8.55851 14.5393 8.58779 14.5169 8.60854C14.5513 8.62175 14.584 8.63525 14.6154 8.64911C14.7548 8.71069 14.8159 8.74773 15.0014 8.87262C15.2251 9.0233 15.3797 9.09385 15.6988 9.16343C16.0781 9.24606 16.5594 9.42502 16.7711 9.56189L16.7961 9.47751C16.5756 9.34651 16.0957 9.16806 15.7176 9.08556C15.3966 9.01559 15.2403 8.94429 15.0152 8.79271C14.8294 8.66755 14.7683 8.63055 14.6283 8.56901C14.6273 8.56858 14.6264 8.56815 14.6254 8.56771C14.6084 8.56025 14.5913 8.55278 14.5811 8.54352Z" fill="black"/>
<path fill-rule="evenodd" clip-rule="evenodd" d="M17.4917 7.14574C17.5105 7.08945 17.5266 7.0363 17.5404 6.98496L17.5243 6.98108L17.5243 6.9813L17.5243 6.9813C17.5242 6.98133 17.5242 6.98137 17.5242 6.98141L17.4758 7.1411C17.4757 7.14115 17.4757 7.14121 17.4757 7.14126L17.4757 7.14126L17.4757 7.14145L17.4917 7.14574ZM17.4757 7.14126L17.4917 7.14555L17.5404 6.98518L17.5243 6.9813L17.5242 6.98141C17.5105 7.03238 17.4944 7.08517 17.4758 7.1411L17.4757 7.14126ZM15.0002 8.27972C14.9412 8.25675 14.8745 8.22241 14.8097 8.18238L14.8065 8.17338L14.8146 8.1475L14.8146 8.1475C14.8259 8.11063 14.839 8.06841 14.8527 8.03793C15.2986 8.20192 15.6967 8.41927 16.0638 8.68004C16.2161 8.78821 16.307 8.83165 16.5741 8.93989C16.7114 8.99549 16.7878 9.03108 16.8731 9.09283L16.7817 9.24025C16.6677 9.17013 16.3861 9.0439 16.1772 8.96386C16.1764 8.98548 16.1669 9.01028 16.1493 9.04255C16.1453 9.04989 16.141 9.05731 16.1351 9.0674C16.1077 9.11439 16.1023 9.12446 16.0975 9.14086C16.0918 9.16044 16.0959 9.17063 16.1134 9.17604L16.1093 9.19074L16.1092 9.19071L16.1132 9.17601L16.0823 9.16689C16.0797 9.15839 16.0802 9.14814 16.0836 9.13638C16.089 9.11813 16.0944 9.10803 16.1227 9.05941C16.1285 9.04944 16.1327 9.04214 16.1366 9.03495C16.1561 8.99927 16.1647 8.97391 16.1623 8.95375L16.172 8.94561C16.3826 9.02568 16.6722 9.15521 16.7791 9.22976L16.8631 9.09552C16.7812 9.04479 16.7054 9.00947 16.5689 8.95416C16.3007 8.84551 16.2091 8.80173 16.0556 8.6927C15.6895 8.43264 15.2926 8.21589 14.8573 8.04696C14.85 8.07844 14.835 8.13131 14.8222 8.17232L14.8171 8.1692L14.8203 8.1782L14.8222 8.17232C14.8846 8.21059 14.9488 8.24359 15.0097 8.27471C15.0075 8.28251 15.0048 8.29042 15.0016 8.29845C14.9832 8.34452 14.9514 8.39022 14.8988 8.45256L14.8734 8.48221L14.8431 8.5177C14.8235 8.54097 14.8103 8.55825 14.8008 8.57337C14.7792 8.60763 14.7791 8.62662 14.8018 8.63819C14.8244 8.65009 14.8845 8.68816 14.9497 8.73085C14.9499 8.74275 14.9548 8.75219 14.9651 8.75901L14.9728 8.74608L14.9729 8.74608L14.9651 8.75902C14.892 8.71078 14.8199 8.66483 14.7953 8.6519C14.7627 8.63525 14.7629 8.60584 14.7886 8.56494C14.7986 8.5491 14.8122 8.53135 14.8322 8.50759L14.8627 8.47185L14.8879 8.44242C14.9396 8.38126 14.9706 8.33663 14.9882 8.29254L14.9887 8.29137C14.9915 8.28427 14.9941 8.27774 15.0002 8.27972ZM14.9728 8.74608L14.9497 8.73085C14.9494 8.71517 14.9574 8.69523 14.9724 8.67138C14.9915 8.6407 15.0182 8.60775 15.0691 8.54961L15.0756 8.54215C15.1696 8.43484 15.1982 8.397 15.1975 8.37137L15.2071 8.36388C15.3246 8.4047 15.4344 8.4637 15.5769 8.55594L15.582 8.55931L15.582 8.55931L15.582 8.55932L15.582 8.55933L15.582 8.55933L15.5821 8.55935C15.6108 8.57831 15.7508 8.67072 15.7907 8.69523C15.8657 8.74134 15.9242 8.77025 15.9825 8.79486C15.9761 8.82035 15.9642 8.84822 15.9466 8.88072C15.9376 8.89725 15.9277 8.91415 15.9142 8.93619L15.9135 8.93734C15.8695 9.00911 15.8608 9.0234 15.8544 9.03866C15.8528 9.04245 15.8513 9.0463 15.8495 9.05111L15.8493 9.05173C15.8374 9.08324 15.8418 9.09897 15.8661 9.10532C15.8928 9.11145 15.9372 9.12398 16.0114 9.14591L16.0171 9.14758L16.0676 9.16255L16.0823 9.16689C16.0857 9.17803 16.0945 9.18615 16.1092 9.19071L16.0636 9.17727L16.0131 9.1623L16.0075 9.16062C15.9336 9.1388 15.8893 9.1263 15.8628 9.12021C15.8283 9.11118 15.821 9.08523 15.8357 9.04611L15.8361 9.04511L15.8361 9.04511L15.8361 9.04509L15.8361 9.04508C15.8381 9.03996 15.8396 9.03587 15.8413 9.03185C15.8479 9.01617 15.8569 9.00149 15.9009 8.92963L15.902 8.92792C15.9153 8.90609 15.9251 8.88941 15.9339 8.87316C15.94 8.86191 15.9454 8.85126 15.9503 8.84155L15.9503 8.84154C15.9591 8.82412 15.9664 8.80971 15.9735 8.80029C15.9189 8.78458 15.8594 8.75516 15.7833 8.70843C15.743 8.68365 15.6016 8.5903 15.574 8.57205L15.5739 8.57203L15.5739 8.57202L15.5693 8.56896C15.4312 8.47962 15.3243 8.42176 15.2113 8.38151C15.2063 8.41163 15.1753 8.45088 15.0863 8.5525L15.0798 8.55995C15.0295 8.61746 15.0031 8.65003 14.9845 8.67977C14.9623 8.71532 14.9588 8.73675 14.9728 8.74608ZM18.0857 8.69865C18.0962 8.6061 17.9885 8.54158 17.7882 8.50014C17.628 8.467 17.4132 8.45007 17.1854 8.44815L17.1835 8.46319L18.0767 8.70515L18.0857 8.69865ZM18.0718 8.68804L18.0803 8.69034L18.0712 8.69684C18.0716 8.69388 18.0718 8.69095 18.0718 8.68804ZM17.2459 8.46431C17.4502 8.4685 17.6405 8.48517 17.7854 8.51514C17.9713 8.55361 18.0728 8.61173 18.0718 8.68804L17.2459 8.46431ZM17.2459 8.46431C17.2259 8.4639 17.2056 8.46361 17.1853 8.46344L17.1872 8.44839L17.2459 8.46431ZM17.103 8.40197C17.1126 8.32391 17.1259 8.24792 17.143 8.1742L17.1266 8.17139L17.0865 8.3999L17.103 8.40197ZM17.1029 8.40233L17.0864 8.40025C17.0961 8.32171 17.1095 8.24523 17.1267 8.17102L17.1431 8.17383L17.1029 8.40233Z" fill="black"/>
<path fill-rule="evenodd" clip-rule="evenodd" d="M17.3998 7.6334C17.1691 8.16949 17.1125 8.7988 17.2816 9.17463L17.2725 9.18507L17.1647 9.14091C17.081 8.94581 17.0554 8.68735 17.0922 8.40863L17.0554 8.4007C17.0251 8.39433 17.0013 8.39019 16.9782 8.38768C16.8768 8.37666 16.8188 8.40197 16.8107 8.48182C16.8126 8.46062 16.8149 8.43908 16.8176 8.41715C16.8465 8.3764 16.9023 8.36406 16.9797 8.37247C17.0034 8.37504 17.0275 8.37925 17.0582 8.38571C17.0666 8.38747 17.0929 8.39318 17.1009 8.402C17.0702 8.68655 17.0954 8.94232 17.1739 9.1306L17.2611 9.16436C17.2635 9.17001 17.266 9.17561 17.2685 9.18116L17.2776 9.17072L17.2611 9.16436C17.0989 8.7822 17.1576 8.15904 17.3866 7.6271C17.6078 7.11286 17.6761 6.65742 17.6559 6.16254C17.6896 6.16315 17.7155 6.15418 17.7684 6.1281L17.7709 6.12686C17.7854 6.1197 17.7922 6.11643 17.8005 6.11266C18.0306 6.00778 18.2396 6.02262 18.3835 6.12617C18.4836 6.19814 18.5305 6.30255 18.5029 6.37359C18.4904 6.38165 18.4794 6.39044 18.4641 6.40337L18.4733 6.41525C18.487 6.40349 18.4968 6.38936 18.5029 6.37359C18.5227 6.36082 18.546 6.34987 18.5959 6.32719L18.6055 6.32269C18.686 6.28588 18.5744 6.04427 18.3719 5.94321C18.3719 5.94321 18.3718 5.94321 18.3718 5.94321C18.2802 5.89743 18.0959 5.88976 17.9645 5.91811L17.9575 5.90566C18.0544 5.78597 18.1226 5.74278 18.2621 5.72662C18.2639 5.77945 18.2512 5.84052 18.2299 5.89119L18.22 5.88994L18.2202 5.89039L18.2257 5.90082C18.2271 5.89773 18.2284 5.89458 18.2298 5.8914C18.2298 5.89133 18.2299 5.89126 18.2299 5.89119L18.2351 5.89185C18.2766 5.89684 18.3039 5.90131 18.3272 5.91002C18.3418 5.91545 18.3548 5.92253 18.3687 5.93243C18.3698 5.93046 18.3709 5.92846 18.372 5.92645C18.4066 5.86134 18.4247 5.77371 18.424 5.6806C18.4625 5.66971 18.5001 5.65832 18.554 5.6415C18.7253 5.58799 18.7547 5.57925 18.8276 5.56239C18.9316 5.53836 19.0229 5.52832 19.1133 5.53344C19.29 5.54346 19.4193 5.61029 19.4563 5.70072C19.4809 5.76097 19.4604 5.82019 19.4011 5.86536C19.3873 5.86999 19.3739 5.87451 19.3612 5.87877C19.3474 5.88339 19.3345 5.88772 19.323 5.89158C19.429 5.8489 19.4721 5.77804 19.4429 5.70675C19.4085 5.62267 19.2843 5.55845 19.1125 5.54871C19.0236 5.54367 18.9335 5.55357 18.8308 5.57732C18.7583 5.59406 18.7291 5.60278 18.5581 5.65616C18.5042 5.67301 18.4664 5.68443 18.4331 5.68743C18.4391 5.77316 18.4218 5.8608 18.38 5.93035C18.5904 6.0365 18.7082 6.29238 18.6115 6.33666L18.6017 6.34122C18.5217 6.37761 18.5114 6.38306 18.4732 6.41529L18.464 6.40341C18.5301 6.34678 18.4907 6.2218 18.3753 6.13879C18.2356 6.0383 18.032 6.02384 17.8063 6.12669C17.7981 6.13039 17.7915 6.1336 17.7771 6.1407L17.7746 6.14194C17.7197 6.16898 17.6923 6.1785 17.6631 6.16973C17.6908 6.65886 17.6221 7.11676 17.3998 7.6334ZM19.3271 5.90626C19.3561 5.89461 19.3809 5.88081 19.4011 5.86536C19.4757 5.84033 19.5604 5.8118 19.591 5.80065C19.7055 5.75894 19.7793 5.72232 19.836 5.67584C19.9799 5.55807 19.9203 5.30579 19.6605 5.25009C19.368 5.18728 19.175 5.21139 18.7835 5.3202L18.7565 5.32768C18.4076 5.42445 18.2221 5.44862 17.9621 5.39973C17.7832 5.36612 17.6535 5.36709 17.562 5.41227C17.4531 5.46606 17.403 5.58312 17.419 5.77932C17.4196 5.78742 17.42 5.79262 17.4205 5.79782C17.4212 5.80721 17.4219 5.81661 17.4238 5.84303L17.4241 5.8462C17.4254 5.86458 17.4266 5.87882 17.4283 5.899C17.4283 6.04124 17.2587 6.11247 17.0968 6.02126C17.0884 6.01077 17.0799 5.99952 17.0711 5.98745L17.0612 5.99838C17.073 6.00691 17.0849 6.01453 17.0968 6.02126C17.1446 6.08092 17.1874 6.11572 17.232 6.1338C17.2738 6.15076 17.3057 6.15327 17.394 6.15153C17.4082 6.15125 17.4146 6.15114 17.4159 6.15843C17.4166 6.13664 17.4307 6.12712 17.4536 6.12826C17.4694 6.12905 17.4868 6.1337 17.5195 6.1445L17.5238 6.14593C17.5724 6.16209 17.5906 6.16624 17.6003 6.16125L17.6108 6.16786C17.6194 6.44535 17.5974 6.70783 17.5222 6.99015C17.4026 6.93453 17.3279 6.93178 17.3022 7.0038C17.2916 7.03888 17.2808 7.07307 17.2694 7.10702C17.2558 7.11711 17.2454 7.1321 17.2382 7.15235L17.2518 7.1577C17.2518 7.1577 17.2518 7.1577 17.2518 7.15769C17.2578 7.14081 17.2637 7.12394 17.2694 7.10702C17.312 7.07529 17.386 7.09192 17.4896 7.14576C17.4466 7.29306 17.3911 7.44299 17.3223 7.59585C17.24 7.77828 17.1758 7.97697 17.127 8.18005C16.9699 8.13893 16.866 8.14156 16.851 8.21878C16.8366 8.2886 16.8254 8.35445 16.8176 8.41715C16.8061 8.43343 16.7988 8.45424 16.7962 8.48008C16.796 8.48183 16.7959 8.48358 16.7957 8.48533L16.8102 8.48663C16.8104 8.48501 16.8105 8.4834 16.8107 8.48182C16.8105 8.48346 16.8104 8.48509 16.8102 8.48673L16.7957 8.48543M17.5965 6.17829C17.5826 6.18037 17.5625 6.17485 17.5194 6.16051L17.5151 6.15909C17.4837 6.1487 17.467 6.14424 17.4529 6.14354C17.4372 6.14276 17.4308 6.14708 17.4232 6.16633L17.3943 6.16682C17.304 6.1686 17.271 6.16599 17.2267 6.14806C17.1714 6.12565 17.1196 6.0795 17.0595 5.99672L17.0695 5.98579C17.2323 6.10367 17.4138 6.03792 17.4138 5.8997C17.4121 5.88015 17.4109 5.86583 17.4095 5.84738L17.4093 5.8442C17.4074 5.8178 17.4067 5.80843 17.4059 5.79906C17.4055 5.79387 17.4051 5.78869 17.4045 5.78062C17.388 5.57856 17.4408 5.45524 17.5558 5.39844C17.6507 5.35154 17.783 5.35055 17.9646 5.38468C18.222 5.43308 18.4058 5.40914 18.7528 5.31289L18.7797 5.30541C19.1733 5.19605 19.3681 5.17171 19.6635 5.23511C19.9353 5.2934 19.9987 5.56203 19.845 5.6879C19.7867 5.73564 19.7117 5.77288 19.5958 5.81509C19.5593 5.82838 19.4467 5.86614 19.3653 5.89344C19.3515 5.89807 19.3386 5.9024 19.3271 5.90626C19.3126 5.91208 19.297 5.91736 19.2804 5.92204L19.2762 5.90739C19.2843 5.90459 19.3011 5.89893 19.323 5.89158C19.3087 5.89735 19.2932 5.9026 19.2766 5.90727L19.2807 5.92192C19.2888 5.91914 19.3054 5.91354 19.3271 5.90626M17.9822 5.89904C18.0541 5.886 18.1382 5.8828 18.2145 5.88984C18.2362 5.8403 18.2496 5.77945 18.2561 5.73442C18.1347 5.75611 18.0699 5.79454 17.9822 5.89904Z" fill="black"/>
</g>
</svg>
