<svg width="28" height="20" viewBox="0 0 28 20" fill="none" xmlns="http://www.w3.org/2000/svg">
<rect x="0.25" y="0.25" width="27.5" height="19.5" rx="1.75" fill="white" stroke="#F5F5F5" stroke-width="0.5"/>
<mask id="mask0" mask-type="alpha" maskUnits="userSpaceOnUse" x="0" y="0" width="28" height="20">
<rect x="0.25" y="0.25" width="27.5" height="19.5" rx="1.75" fill="white" stroke="white" stroke-width="0.5"/>
</mask>
<g mask="url(#mask0)">
<path fill-rule="evenodd" clip-rule="evenodd" d="M0 5.33333H28V0H0V5.33333Z" fill="#FFCB49"/>
<path fill-rule="evenodd" clip-rule="evenodd" d="M0 14.6667H28V9.33334H0V14.6667Z" fill="#DC1D34"/>
<path fill-rule="evenodd" clip-rule="evenodd" d="M0 20H28V14.6667H0V20Z" fill="#4985D4"/>
<path fill-rule="evenodd" clip-rule="evenodd" d="M0 20L13.3333 10L0 0V20Z" fill="#4BA343"/>
<path fill-rule="evenodd" clip-rule="evenodd" d="M5.33331 14C5.67861 14 6.01369 13.9562 6.33331 13.874C4.60809 13.4299 3.33331 11.8638 3.33331 10C3.33331 8.13616 4.60809 6.57006 6.33331 6.12602C6.01369 6.04375 5.67861 6 5.33331 6C3.12417 6 1.33331 7.79086 1.33331 10C1.33331 12.2091 3.12417 14 5.33331 14ZM7.99998 7.33333C7.99998 7.70152 7.7015 8 7.33331 8C6.96512 8 6.66665 7.70152 6.66665 7.33333C6.66665 6.96514 6.96512 6.66667 7.33331 6.66667C7.7015 6.66667 7.99998 6.96514 7.99998 7.33333ZM7.33331 10.6667C7.7015 10.6667 7.99998 10.3682 7.99998 10C7.99998 9.63181 7.7015 9.33333 7.33331 9.33333C6.96512 9.33333 6.66665 9.63181 6.66665 10C6.66665 10.3682 6.96512 10.6667 7.33331 10.6667ZM7.99998 12.6667C7.99998 13.0349 7.7015 13.3333 7.33331 13.3333C6.96512 13.3333 6.66665 13.0349 6.66665 12.6667C6.66665 12.2985 6.96512 12 7.33331 12C7.7015 12 7.99998 12.2985 7.99998 12.6667Z" fill="white"/>
</g>
</svg>
