<svg width="28" height="20" viewBox="0 0 28 20" fill="none" xmlns="http://www.w3.org/2000/svg">
<rect width="28" height="20" rx="2" fill="white"/>
<mask id="mask0" mask-type="alpha" maskUnits="userSpaceOnUse" x="0" y="0" width="28" height="20">
<rect width="28" height="20" rx="2" fill="white"/>
</mask>
<g mask="url(#mask0)">
<rect width="28" height="20" fill="#FFBF19"/>
<path fill-rule="evenodd" clip-rule="evenodd" d="M10.6667 1.33331H25.3334C26.0697 1.33331 26.6667 1.93027 26.6667 2.66665V17.3333C26.6667 18.0697 26.0697 18.6666 25.3334 18.6666H10.6667V1.33331Z" fill="#A52531"/>
<path d="M1.33331 2.66665C1.33331 1.93027 1.93027 1.33331 2.66665 1.33331H5.33331V18.6666H2.66665C1.93027 18.6666 1.33331 18.0697 1.33331 17.3333V2.66665Z" fill="#03664F"/>
<rect x="5.33331" y="1.33331" width="4" height="17.3333" rx="0.666667" fill="#FF6816"/>
<path fill-rule="evenodd" clip-rule="evenodd" d="M13.3333 3.33335C13.3333 3.70154 13.0349 4.00002 12.6667 4.00002C12.2985 4.00002 12 3.70154 12 3.33335V2.66669H12.6667C13.0349 2.66669 13.3333 2.96516 13.3333 3.33335ZM24 3.33335C24 3.70154 24.2985 4.00002 24.6667 4.00002C25.0349 4.00002 25.3333 3.70154 25.3333 3.33335V2.66669H24.6667C24.2985 2.66669 24 2.96516 24 3.33335ZM24.6667 16C24.2985 16 24 16.2985 24 16.6667C24 17.0349 24.2985 17.3334 24.6667 17.3334H25.3333V16.6667C25.3333 16.2985 25.0349 16 24.6667 16ZM13.3333 16.6667C13.3333 16.2985 13.0349 16 12.6667 16C12.2985 16 12 16.2985 12 16.6667V17.3334H12.6667C13.0349 17.3334 13.3333 17.0349 13.3333 16.6667Z" fill="#FFBF18"/>
<path fill-rule="evenodd" clip-rule="evenodd" d="M16 12.5736C16 12.2568 15.7432 12 15.4264 12C15.3647 12 15.3037 11.9902 15.2456 11.9694C14.8599 11.8316 13.3333 11.2491 13.3333 10.6667C13.3333 10.3018 13.533 9.937 13.7138 9.68142C13.8712 9.4589 13.9298 9.16973 13.8332 8.91484C13.6066 8.31687 13.2397 7.22836 13.3333 6.66668C13.3832 6.36754 13.5824 6.1056 13.8122 5.8949C14.1678 5.56881 14.6667 5.87699 14.6667 6.35951V8.92133C14.6667 9.17384 14.8093 9.40469 15.0352 9.51761L15.7117 9.85587C15.8839 9.94195 16.0918 9.90821 16.2279 9.77209C16.4438 9.55625 16.3847 9.19238 16.1117 9.05587L15.3333 8.66668V8.00002C15.6655 8.00002 15.7712 7.55227 15.4741 7.40373L15.3333 7.33335V6.66668H16.3905C16.5673 6.66668 16.7369 6.59645 16.8619 6.47142L17.1381 6.19528C17.2631 6.07026 17.4327 6.00002 17.6095 6.00002H18.2546C18.5071 6.00002 18.738 6.14269 18.8509 6.36854L19.2098 7.08636C19.2889 7.24451 19.3019 7.42759 19.246 7.59532L18.9591 8.45587C18.8153 8.88755 19.1366 9.33335 19.5916 9.33335H21.7832C21.922 9.33335 22.0551 9.27822 22.1533 9.18008C22.4058 8.92751 22.3367 8.50172 22.0173 8.34199L21.4741 8.0704C21.3815 8.02412 21.2794 8.00002 21.1759 8.00002H20.6667C20.2985 8.00002 20 7.70154 20 7.33335V6.94283C20 6.76602 20.0702 6.59645 20.1952 6.47142L20.6667 6.00002V6.66669C20.6667 7.03487 20.9651 7.33335 21.3333 7.33335H22.2546C22.5071 7.33335 22.738 7.47602 22.8509 7.70188L23.2799 8.55975C23.3152 8.63048 23.3377 8.70659 23.3449 8.78533C23.3756 9.12089 23.4487 10.0897 23.3333 10.6667C23.2398 11.1342 22.978 11.5669 22.8117 11.8061C22.7223 11.9347 22.6667 12.0858 22.6667 12.2424V14.1574C22.6667 14.4387 22.4386 14.6667 22.1574 14.6667C21.7788 14.6667 21.5325 14.2683 21.7018 13.9296L21.9296 13.4741C21.9739 13.3855 21.9739 13.2812 21.9296 13.1926L21.8981 13.1296C21.7574 12.8482 21.3333 12.9484 21.3333 13.263C21.3333 13.3093 21.3225 13.3549 21.3018 13.3963L20.8315 14.3371C20.7305 14.5391 20.524 14.6667 20.2981 14.6667C19.8549 14.6667 19.5666 14.2002 19.7648 13.8037L19.9296 13.4741C19.9759 13.3815 20 13.2795 20 13.176V12.6667C20 12.2985 19.7015 12 19.3333 12H18C17.6318 12 17.3333 12.2985 17.3333 12.6667V13.176C17.3333 13.2795 17.3092 13.3815 17.2629 13.4741L16.8315 14.3371C16.7305 14.5391 16.524 14.6667 16.2981 14.6667C15.8549 14.6667 15.5666 14.2002 15.7648 13.8037L15.9296 13.4741C15.9759 13.3815 16 13.2795 16 13.176V12.5736Z" fill="#FFBF18"/>
</g>
</svg>
