<svg width="28" height="20" viewBox="0 0 28 20" fill="none" xmlns="http://www.w3.org/2000/svg">
<rect width="28" height="20" rx="2" fill="white"/>
<mask id="mask0" mask-type="alpha" maskUnits="userSpaceOnUse" x="0" y="0" width="28" height="20">
<rect width="28" height="20" rx="2" fill="white"/>
</mask>
<g mask="url(#mask0)">
<rect width="28" height="20" fill="#E6BE53"/>
<path fill-rule="evenodd" clip-rule="evenodd" d="M1.33331 17.6666C1.33331 18.2189 1.78103 18.6666 2.33331 18.6666H25.6666C26.2189 18.6666 26.6666 18.2189 26.6666 17.6666V2.33331C26.6666 1.78103 26.2189 1.33331 25.6666 1.33331H2.33331C1.78103 1.33331 1.33331 1.78103 1.33331 2.33331V17.6666Z" fill="#E01826"/>
<path fill-rule="evenodd" clip-rule="evenodd" d="M13.0233 3.65888C12.5532 3.8156 12.4123 4.41231 12.7627 4.76274L13.1381 5.13806C13.2631 5.26309 13.4326 5.33332 13.6095 5.33332H14.3905C14.5673 5.33332 14.7369 5.26309 14.8619 5.13806L15.2372 4.76274C15.5877 4.4123 15.4468 3.8156 14.9766 3.65888L14.2108 3.4036C14.074 3.35798 13.926 3.35798 13.7892 3.4036L13.0233 3.65888ZM14.4714 6.86192C14.211 7.12227 13.7889 7.12227 13.5286 6.86192L13.3333 6.66666L12.3397 5.67309C12.1368 5.47019 11.8269 5.41988 11.5702 5.54821L11.4939 5.58634C11.0869 5.78984 10.9989 6.33227 11.3207 6.65403L11.3333 6.66666L12.3269 7.66022C12.5298 7.86313 12.5801 8.17311 12.4518 8.42977L12.0379 9.2574C12.013 9.30733 12 9.36238 12 9.4182C12 9.6855 11.7187 9.85934 11.4796 9.73981L11.1567 9.57835C10.9156 9.45781 10.8635 9.1365 11.0541 8.9459C11.2083 8.79168 11.2083 8.54164 11.0541 8.38741L10.7431 8.07649C10.6925 8.02582 10.6503 7.96732 10.6183 7.90323L10.0327 6.73211C10.011 6.68861 9.99403 6.64285 9.98223 6.59566L9.67302 5.35882C9.53687 4.81422 8.82974 4.67142 8.49293 5.12051L7.46665 6.48888C7.3801 6.60428 7.33331 6.74463 7.33331 6.88888V9.17594C7.33331 9.27944 7.35741 9.38152 7.40369 9.47409L7.9516 10.5699C7.98364 10.634 8.02581 10.6925 8.07648 10.7432L9.25681 11.9235C9.30748 11.9742 9.36599 12.0163 9.43008 12.0484L10.6037 12.6352C10.6451 12.6559 10.6907 12.6667 10.737 12.6667C11.0516 12.6667 11.1518 13.0908 10.8704 13.2315L10.7158 13.3087C10.6833 13.325 10.6535 13.3465 10.6278 13.3722L10.3333 13.6667C10.1492 13.8508 9.85074 13.8508 9.66665 13.6667C9.48255 13.4826 9.18407 13.4826 8.99998 13.6667L8.94589 13.7207C8.77913 13.8875 8.73779 14.1423 8.84325 14.3532L9.14905 14.9648C9.26198 15.1907 9.49282 15.3333 9.74534 15.3333H10.5093C10.6128 15.3333 10.7148 15.3092 10.8074 15.2629L11.8012 14.766C11.9302 14.7015 12.0349 14.5969 12.0994 14.4679L12.4016 13.8634C12.532 13.6026 12.8795 13.5462 13.0857 13.7524C13.2297 13.8964 13.252 14.1219 13.1391 14.2914L12.3698 15.4453C12.1655 15.7516 12.2483 16.1656 12.5547 16.3698L13.6302 17.0868C13.8541 17.2361 14.1458 17.2361 14.3698 17.0868L15.4453 16.3698C15.7516 16.1656 15.8344 15.7516 15.6302 15.4453L14.8609 14.2914C14.7479 14.1219 14.7703 13.8964 14.9143 13.7524C15.1204 13.5462 15.468 13.6026 15.5983 13.8634L15.9006 14.4679C15.9651 14.5969 16.0697 14.7015 16.1987 14.766L17.1925 15.2629C17.2851 15.3092 17.3872 15.3333 17.4907 15.3333H18.2546C18.5071 15.3333 18.738 15.1907 18.8509 14.9648L19.1567 14.3532C19.2622 14.1423 19.2208 13.8875 19.0541 13.7207L19 13.6667C18.8159 13.4826 18.5174 13.4826 18.3333 13.6667C18.1492 13.8508 17.8507 13.8508 17.6666 13.6667L17.3722 13.3722C17.3464 13.3465 17.3167 13.325 17.2841 13.3087L17.1296 13.2315C16.8482 13.0908 16.9483 12.6667 17.2629 12.6667C17.3092 12.6667 17.3549 12.6559 17.3963 12.6352L18.5699 12.0484C18.634 12.0163 18.6925 11.9742 18.7431 11.9235L19.9235 10.7432C19.9741 10.6925 20.0163 10.634 20.0484 10.5699L20.5963 9.47409C20.6425 9.38152 20.6666 9.27944 20.6666 9.17594V6.88888C20.6666 6.74463 20.6199 6.60428 20.5333 6.48888L19.507 5.12051C19.1702 4.67142 18.4631 4.81422 18.3269 5.35882L18.0177 6.59566C18.0059 6.64285 17.989 6.68861 17.9673 6.73211L17.3817 7.90323C17.3496 7.96732 17.3075 8.02582 17.2568 8.07649L16.9459 8.38742C16.7917 8.54164 16.7917 8.79168 16.9459 8.9459C17.1365 9.1365 17.0843 9.45781 16.8433 9.57835L16.5203 9.73981C16.2813 9.85934 16 9.6855 16 9.4182C16 9.36238 15.987 9.30733 15.962 9.2574L15.5482 8.42977C15.4199 8.17311 15.4702 7.86313 15.6731 7.66022L16.6666 6.66666L16.6793 6.65403C17.001 6.33227 16.913 5.78984 16.506 5.58634L16.4298 5.54821C16.1731 5.41988 15.8631 5.47019 15.6602 5.67309L14.6666 6.66666L14.4714 6.86192Z" fill="#E6BE53"/>
<path fill-rule="evenodd" clip-rule="evenodd" d="M12.6667 11.3333C12.6667 11.5788 13.0801 11.6604 13.1997 11.4461C13.4321 11.0295 13.7161 10.6666 14 10.6666C14.284 10.6666 14.5679 11.0295 14.8004 11.4461C14.92 11.6604 15.3334 11.5788 15.3334 11.3333C15.3334 10.2287 14.7364 9.33331 14 9.33331C13.2636 9.33331 12.6667 10.2287 12.6667 11.3333Z" fill="#215F90"/>
</g>
</svg>
