<svg width="28" height="20" viewBox="0 0 28 20" fill="none" xmlns="http://www.w3.org/2000/svg">
<rect width="28" height="20" rx="2" fill="white"/>
<mask id="mask0" mask-type="alpha" maskUnits="userSpaceOnUse" x="0" y="0" width="28" height="20">
<rect width="28" height="20" rx="2" fill="white"/>
</mask>
<g mask="url(#mask0)">
<rect width="28" height="20" fill="#E81B26"/>
<path fill-rule="evenodd" clip-rule="evenodd" d="M14 13.3334C15.841 13.3334 17.3334 11.841 17.3334 10C17.3334 8.15907 15.841 6.66669 14 6.66669C12.1591 6.66669 10.6667 8.15907 10.6667 10C10.6667 11.841 12.1591 13.3334 14 13.3334Z" fill="#FFE94F"/>
<path fill-rule="evenodd" clip-rule="evenodd" d="M10.2081 7.27926C10.4094 6.99919 10.641 6.74233 10.898 6.51348L1.96168 -3.53064L-0.714844 -0.558062L10.2081 7.27926ZM10.898 13.4865C10.641 13.2577 10.4094 13.0008 10.2081 12.7207L-0.714844 20.5581L1.96168 23.5306L10.898 13.4865ZM13.0846 14.5769L12 20H16L14.9154 14.5769C14.6194 14.6358 14.3133 14.6667 14 14.6667C13.6867 14.6667 13.3806 14.6358 13.0846 14.5769ZM17.7919 12.7207C17.5906 13.0008 17.3591 13.2577 17.102 13.4865L26.0384 23.5306L28.7149 20.5581L17.7919 12.7207ZM9.37968 10.6601C9.34915 10.4444 9.33336 10.2241 9.33336 10C9.33336 9.77594 9.34915 9.55558 9.37967 9.33995L2.43187e-05 8V12L9.37968 10.6601ZM13.0846 5.42308L12 9.53674e-07H16L14.9154 5.42308C14.6194 5.36421 14.3133 5.33333 14 5.33333C13.6867 5.33333 13.3806 5.36421 13.0846 5.42308ZM18.6204 9.33995C18.6509 9.55558 18.6667 9.77594 18.6667 10C18.6667 10.2241 18.6509 10.4444 18.6204 10.6601L28 12V8L18.6204 9.33995ZM17.7919 7.27926C17.5906 6.99919 17.3591 6.74233 17.102 6.51348L26.0384 -3.53064L28.7149 -0.558062L17.7919 7.27926Z" fill="#FFE94F"/>
</g>
</svg>
