<svg width="28" height="20" viewBox="0 0 28 20" fill="none" xmlns="http://www.w3.org/2000/svg">
<rect x="0.25" y="0.25" width="27.5" height="19.5" rx="1.75" fill="white" stroke="#F5F5F5" stroke-width="0.5"/>
<path fill-rule="evenodd" clip-rule="evenodd" d="M0 2C0 0.895431 0.89543 -1.06478e-09 2 0L2.46482 4.56679e-10C2.59643 5.84276e-10 2.7251 0.0389587 2.83462 0.111966L15.0026 8.22393C16.1002 8.9557 15.5822 10.6667 14.263 10.6667H8L15.9961 17.6632C16.9226 18.474 16.3492 20 15.1181 20H2C0.895428 20 0 19.1046 0 18V2Z" fill="white"/>
<mask id="mask0" mask-type="alpha" maskUnits="userSpaceOnUse" x="0" y="0" width="17" height="20">
<path fill-rule="evenodd" clip-rule="evenodd" d="M0 2C0 0.895431 0.89543 -1.06478e-09 2 0L2.46482 4.56679e-10C2.59643 5.84276e-10 2.7251 0.0389587 2.83462 0.111966L15.0026 8.22393C16.1002 8.9557 15.5822 10.6667 14.263 10.6667H8L15.9961 17.6632C16.9226 18.474 16.3492 20 15.1181 20H2C0.895428 20 0 19.1046 0 18V2Z" fill="white"/>
</mask>
<g mask="url(#mask0)">
<path d="M15.1181 19.3333H0.666667V0.666667L2.46482 0.666667L14.6328 8.77863C15.1816 9.14452 14.9226 10 14.263 10H8C7.72226 10 7.47362 10.1722 7.37593 10.4322C7.27824 10.6922 7.35198 10.9855 7.561 11.1684L15.5571 18.1649C16.0203 18.5703 15.7336 19.3333 15.1181 19.3333Z" fill="#EE1B44" stroke="#0543A8" stroke-width="1.33333" stroke-linejoin="round"/>
<path fill-rule="evenodd" clip-rule="evenodd" d="M6.8511 7.80079C7.23521 7.69552 7.58932 7.55155 7.90252 7.37616C7.59187 8.50453 6.55836 9.33335 5.33126 9.33335C4.10417 9.33335 3.07066 8.50453 2.76001 7.37616C3.07407 7.55204 3.42928 7.69632 3.81462 7.80166L4.33334 7.33335L3.48558 6.56799L4.62624 6.62625L4.56798 5.4856L5.33334 6.33335L6.09871 5.4856L6.04045 6.62625L7.1811 6.56799L6.33334 7.33335L6.8511 7.80079ZM4.31285 17.1304L5.33334 16L6.35383 17.1304L6.27615 15.6095L7.79702 15.6872L6.66668 14.6667L7.79702 13.6462L6.27615 13.7239L6.35383 12.203L5.33334 13.3334L4.31285 12.203L4.39053 13.7239L2.86966 13.6462L4.00001 14.6667L2.86966 15.6872L4.39053 15.6095L4.31285 17.1304Z" fill="white"/>
</g>
</svg>
