<svg width="28" height="20" viewBox="0 0 28 20" fill="none" xmlns="http://www.w3.org/2000/svg">
<rect x="0.25" y="0.25" width="27.5" height="19.5" rx="1.75" fill="white" stroke="#F5F5F5" stroke-width="0.5"/>
<mask id="mask0" mask-type="alpha" maskUnits="userSpaceOnUse" x="0" y="0" width="28" height="20">
<rect x="0.25" y="0.25" width="27.5" height="19.5" rx="1.75" fill="white" stroke="white" stroke-width="0.5"/>
</mask>
<g mask="url(#mask0)">
<path fill-rule="evenodd" clip-rule="evenodd" d="M0 5.33333H28V0H0V5.33333Z" fill="#D82332"/>
<path fill-rule="evenodd" clip-rule="evenodd" d="M0 20H28V14.6667H0V20Z" fill="#D82332"/>
<path fill-rule="evenodd" clip-rule="evenodd" d="M13.0675 10.7527L12.7831 11.018C13.0402 11.0901 13.3969 11.0061 13.539 10.7527H13.0675Z" fill="#064A89"/>
<path fill-rule="evenodd" clip-rule="evenodd" d="M10.7725 10.9334C10.965 11.1259 11.2838 11.1034 11.4763 10.9816C11.6689 10.8597 11.8104 10.8519 11.9304 10.8647C11.9431 10.9733 11.9715 11.1126 12.0201 11.2502H10.8782C10.8499 11.1797 10.7945 11.0152 10.7725 10.9334Z" fill="#064A89"/>
<path fill-rule="evenodd" clip-rule="evenodd" d="M10.9841 11.4478C11.2083 11.3419 11.4374 11.4259 11.5365 11.5022C11.7196 11.6434 12.022 11.6051 12.1704 11.525C12.227 11.6174 12.2958 11.7083 12.3787 11.7776H11.1569C11.1073 11.6975 11 11.5006 10.9841 11.4478Z" fill="#064A89"/>
<path fill-rule="evenodd" clip-rule="evenodd" d="M16.2981 12.3249C16.3518 12.2704 16.4244 12.1806 16.4718 12.1165C16.3929 12.1068 16.3011 12.0497 16.2035 12.001C16.0235 11.9111 15.8516 11.9111 15.6985 12.017C15.4713 12.1741 15.1871 12.2126 14.9662 12.0555C14.7238 11.8831 14.4991 11.9208 14.3097 12.03C14.1203 12.1389 14.0004 12.1453 13.8867 12.1453C13.7731 12.1453 13.6532 12.1389 13.4638 12.03C13.2743 11.9208 13.0497 11.8831 12.8072 12.0555C12.5863 12.2126 12.3022 12.1741 12.075 12.017C11.9218 11.9111 11.7499 11.9111 11.5699 12.001C11.4722 12.0497 11.3806 12.1068 11.3016 12.1165C11.349 12.1806 11.4216 12.2704 11.4753 12.3249H16.2981Z" fill="#064A89"/>
<path fill-rule="evenodd" clip-rule="evenodd" d="M15.7067 12.8612C15.7571 12.8292 15.8961 12.7234 15.9655 12.6688C15.8897 12.6849 15.717 12.6286 15.6278 12.5822C15.3689 12.4474 15.1985 12.4603 15.006 12.5629C14.8134 12.6656 14.542 12.7201 14.3432 12.6111C14.1443 12.5021 14.0022 12.4731 13.8981 12.4731C13.794 12.4731 13.6519 12.5021 13.453 12.6111C13.2542 12.7201 12.9828 12.6656 12.7902 12.5629C12.5977 12.4603 12.4273 12.4474 12.1684 12.5822C12.0792 12.6286 11.9065 12.6849 11.8307 12.6688C11.9001 12.7234 12.039 12.8292 12.0895 12.8612H15.7067Z" fill="#064A89"/>
<path fill-rule="evenodd" clip-rule="evenodd" d="M14.5684 11.7951C14.5147 11.7663 14.452 11.6991 14.3947 11.6128C14.3032 11.4749 14.158 11.3979 13.9402 11.3979C13.7225 11.3979 13.5773 11.4749 13.4857 11.6128C13.4285 11.6991 13.3657 11.7663 13.3122 11.7951H14.5684Z" fill="#064A89"/>
<path fill-rule="evenodd" clip-rule="evenodd" d="M14.2104 11.2999C14.1883 11.2614 14.141 11.1395 14.1252 11.0753C14.0746 11.0914 13.9768 11.0978 13.92 11.0978C13.8632 11.0978 13.7654 11.0914 13.7148 11.0753C13.6991 11.1395 13.6518 11.2614 13.6296 11.2999H14.2104Z" fill="#064A89"/>
<path fill-rule="evenodd" clip-rule="evenodd" d="M14.736 10.7527L15.0205 11.018C14.7633 11.0901 14.4066 11.0061 14.2646 10.7527H14.736Z" fill="#064A89"/>
<path fill-rule="evenodd" clip-rule="evenodd" d="M17.0995 10.9334C16.907 11.1259 16.5882 11.1034 16.3957 10.9816C16.2031 10.8597 16.0616 10.8519 15.9416 10.8647C15.9288 10.9733 15.9005 11.1126 15.8519 11.2502H16.9938C17.0221 11.1797 17.0774 11.0152 17.0995 10.9334Z" fill="#064A89"/>
<path fill-rule="evenodd" clip-rule="evenodd" d="M16.929 11.4478C16.7049 11.3419 16.4758 11.4259 16.3766 11.5022C16.1936 11.6434 15.8911 11.6051 15.7428 11.525C15.6862 11.6174 15.6174 11.7083 15.5344 11.7776H16.7562C16.8059 11.6975 16.9133 11.5006 16.929 11.4478Z" fill="#064A89"/>
<path fill-rule="evenodd" clip-rule="evenodd" d="M15.1588 13.0716C14.7761 13.2303 14.3572 13.3179 13.9183 13.3179C13.4789 13.3179 13.0603 13.2304 12.6772 13.0714C12.7593 13.0618 12.8679 13.0216 12.9556 12.972C13.0977 12.8918 13.3564 12.8758 13.4796 12.956C13.6026 13.0362 13.751 13.1163 13.9183 13.1163C14.0856 13.1163 14.234 13.0362 14.357 12.956C14.4801 12.8758 14.7389 12.8918 14.8811 12.972C14.9686 13.0216 15.0767 13.062 15.1588 13.0716Z" fill="#064A89"/>
<path fill-rule="evenodd" clip-rule="evenodd" d="M14.6252 6.72694C13.934 6.58264 13.3122 6.66597 13.3122 7.32673C13.3122 7.97458 13.3122 8.93673 13.3122 9.13565C13.3122 9.33447 13.3161 9.35963 13.5489 9.41468C14.0539 9.53415 14.1012 9.54619 14.6504 9.67436V7.81425C14.2212 7.76608 14.0571 7.52135 14.0571 7.23694C14.0571 6.96114 14.2464 6.78146 14.6252 6.72694Z" fill="#514537"/>
<path fill-rule="evenodd" clip-rule="evenodd" d="M12.8539 11.8285C12.4688 11.8285 12.0648 11.4885 12.0648 10.8407C12.0648 10.1927 12.0648 9.3781 12.0648 9.23057C12.0648 9.08466 12.081 9.06412 12.0474 9.03014C12.0278 9.01014 12.0696 8.98046 12.0979 8.95154C12.1406 8.9082 12.1698 8.87218 12.1122 8.81358C12.0545 8.75509 12.0791 8.73982 12.1154 8.70304C12.1517 8.66605 12.1659 8.62928 12.1312 8.5939C12.0964 8.55863 12.0885 8.54745 12.1264 8.50896C12.1643 8.47046 12.1485 8.45444 12.117 8.42229C12.0853 8.39025 12.0704 8.36702 12.1106 8.32616C12.1501 8.28605 12.1532 8.2796 12.199 8.2796C12.2448 8.2796 12.3442 8.2796 12.3884 8.2796C12.4326 8.2796 12.4334 8.29326 12.3962 8.331C12.3481 8.37982 12.3339 8.39906 12.3884 8.45444C12.4428 8.50971 12.4405 8.5282 12.4058 8.56347C12.3536 8.61638 12.3307 8.65251 12.3836 8.70627C12.4365 8.75992 12.4412 8.78401 12.401 8.82487C12.3608 8.86573 12.3568 8.90186 12.401 8.9467C12.435 8.98122 12.4373 9.00132 12.4373 9.06218C12.4373 9.42949 12.4373 10.4301 12.4373 10.7059C12.4373 10.9818 12.633 11.1485 13.0054 11.1485C13.3779 11.1485 13.5042 10.9945 13.6115 10.892C13.5421 11.3858 13.34 11.8285 12.8539 11.8285Z" fill="#514537"/>
<path fill-rule="evenodd" clip-rule="evenodd" d="M13.9407 10.255C13.9928 10.2709 14.0432 10.3479 14.0432 10.4313H14.1459C14.1459 10.3608 14.1158 10.2518 14.0614 10.1843C14.0606 10.1667 14.0583 10.1515 14.0543 10.1363C14.0922 10.0881 14.1475 10.0111 14.1459 9.93736C14.1448 9.8908 14.0906 9.89252 14.0843 9.9294C14.0791 9.95972 14.0591 10.0064 14.0212 10.0224C14.0212 9.96305 13.988 9.89252 13.9407 9.89252C13.8934 9.89252 13.8602 9.96305 13.8602 10.0224C13.8223 10.0064 13.8023 9.95972 13.7971 9.9294C13.7907 9.89252 13.7365 9.8908 13.7355 9.93736C13.7339 10.0111 13.7892 10.0881 13.827 10.1363C13.8231 10.1515 13.8208 10.1667 13.82 10.1843C13.7656 10.2518 13.7355 10.3608 13.7355 10.4313H13.8382C13.8382 10.3479 13.8886 10.2709 13.9407 10.255Z" fill="#514537"/>
<path fill-rule="evenodd" clip-rule="evenodd" d="M13.4116 10.255C13.4636 10.2709 13.5142 10.3479 13.5142 10.4313H13.6168C13.6168 10.3608 13.5868 10.2518 13.5323 10.1843C13.5316 10.1667 13.5291 10.1515 13.5252 10.1363C13.5631 10.0881 13.6184 10.0111 13.6168 9.93736C13.6158 9.8908 13.5615 9.89252 13.5552 9.9294C13.55 9.95972 13.5299 10.0064 13.4921 10.0224C13.4921 9.96305 13.459 9.89252 13.4116 9.89252C13.3643 9.89252 13.3312 9.96305 13.3312 10.0224C13.2933 10.0064 13.2732 9.95972 13.268 9.9294C13.2616 9.89252 13.2075 9.8908 13.2064 9.93736C13.2048 10.0111 13.26 10.0881 13.2979 10.1363C13.294 10.1515 13.2917 10.1667 13.2908 10.1843C13.2364 10.2518 13.2064 10.3608 13.2064 10.4313H13.309C13.309 10.3479 13.3595 10.2709 13.4116 10.255Z" fill="#514537"/>
<path fill-rule="evenodd" clip-rule="evenodd" d="M12.8825 10.255C12.9345 10.2709 12.985 10.3479 12.985 10.4313H13.0876C13.0876 10.3608 13.0576 10.2518 13.0032 10.1843C13.0024 10.1667 13 10.1515 12.9961 10.1363C13.034 10.0881 13.0892 10.0111 13.0876 9.93736C13.0866 9.8908 13.0324 9.89252 13.0261 9.9294C13.0209 9.95972 13.0008 10.0064 12.9629 10.0224C12.9629 9.96305 12.9298 9.89252 12.8825 9.89252C12.8351 9.89252 12.8019 9.96305 12.8019 10.0224C12.7641 10.0064 12.7441 9.95972 12.7389 9.9294C12.7325 9.89252 12.6782 9.8908 12.6773 9.93736C12.6757 10.0111 12.7309 10.0881 12.7688 10.1363C12.7649 10.1515 12.7625 10.1667 12.7617 10.1843C12.7072 10.2518 12.6773 10.3608 12.6773 10.4313H12.7798C12.7798 10.3479 12.8304 10.2709 12.8825 10.255Z" fill="#514537"/>
<path fill-rule="evenodd" clip-rule="evenodd" d="M14.4698 10.255C14.4177 10.2709 14.3673 10.3479 14.3673 10.4313H14.2646C14.2646 10.3608 14.2946 10.2518 14.3491 10.1843C14.3498 10.1667 14.3522 10.1515 14.3563 10.1363C14.3183 10.0881 14.263 10.0111 14.2646 9.93736C14.2657 9.8908 14.3199 9.89252 14.3262 9.9294C14.3314 9.95972 14.3515 10.0064 14.3893 10.0224C14.3893 9.96305 14.4225 9.89252 14.4698 9.89252C14.5172 9.89252 14.5503 9.96305 14.5503 10.0224C14.5881 10.0064 14.6082 9.95972 14.6134 9.9294C14.6198 9.89252 14.6739 9.8908 14.675 9.93736C14.6766 10.0111 14.6213 10.0881 14.5835 10.1363C14.5874 10.1515 14.5898 10.1667 14.5905 10.1843C14.645 10.2518 14.675 10.3608 14.675 10.4313H14.5723C14.5723 10.3479 14.5219 10.2709 14.4698 10.255Z" fill="#514537"/>
<path fill-rule="evenodd" clip-rule="evenodd" d="M14.9989 10.255C14.9469 10.2709 14.8964 10.3479 14.8964 10.4313H14.7937C14.7937 10.3608 14.8238 10.2518 14.8782 10.1843C14.879 10.1667 14.8814 10.1515 14.8853 10.1363C14.8474 10.0881 14.7921 10.0111 14.7937 9.93736C14.7947 9.8908 14.849 9.89252 14.8553 9.9294C14.8605 9.95972 14.8805 10.0064 14.9184 10.0224C14.9184 9.96305 14.9516 9.89252 14.9989 9.89252C15.0463 9.89252 15.0794 9.96305 15.0794 10.0224C15.1173 10.0064 15.1373 9.95972 15.1425 9.9294C15.1489 9.89252 15.203 9.8908 15.2041 9.93736C15.2057 10.0111 15.1505 10.0881 15.1126 10.1363C15.1165 10.1515 15.1188 10.1667 15.1197 10.1843C15.1742 10.2518 15.2041 10.3608 15.2041 10.4313H15.1016C15.1016 10.3479 15.051 10.2709 14.9989 10.255Z" fill="#514537"/>
<path fill-rule="evenodd" clip-rule="evenodd" d="M12.5715 10.5377H15.349V10.671H12.5715V10.5377Z" fill="#514537"/>
<path fill-rule="evenodd" clip-rule="evenodd" d="M15.0222 11.8285C15.4072 11.8285 15.8113 11.4885 15.8113 10.8407C15.8113 10.1927 15.8113 9.3781 15.8113 9.23057C15.8113 9.08466 15.7951 9.06412 15.8286 9.03014C15.8483 9.01014 15.8065 8.98046 15.7781 8.95154C15.7355 8.9082 15.7063 8.87218 15.7638 8.81358C15.8215 8.75509 15.797 8.73982 15.7608 8.70304C15.7244 8.66605 15.7102 8.62928 15.7449 8.5939C15.7796 8.55863 15.7876 8.54745 15.7497 8.50896C15.7118 8.47046 15.7276 8.45444 15.7591 8.42229C15.7907 8.39025 15.8056 8.36702 15.7654 8.32616C15.726 8.28605 15.7229 8.2796 15.6771 8.2796C15.6313 8.2796 15.5319 8.2796 15.4877 8.2796C15.4435 8.2796 15.4427 8.29326 15.4798 8.331C15.528 8.37982 15.5422 8.39906 15.4877 8.45444C15.4333 8.50971 15.4356 8.5282 15.4703 8.56347C15.5225 8.61638 15.5452 8.65251 15.4924 8.70627C15.4395 8.75992 15.4347 8.78401 15.4751 8.82487C15.5153 8.86573 15.5193 8.90186 15.4751 8.9467C15.4411 8.98122 15.4388 9.00132 15.4388 9.06218C15.4388 9.42949 15.4388 10.4301 15.4388 10.7059C15.4388 10.9818 15.243 11.1485 14.8706 11.1485C14.4981 11.1485 14.372 10.9945 14.2646 10.892C14.334 11.3858 14.536 11.8285 15.0222 11.8285Z" fill="#514537"/>
<path fill-rule="evenodd" clip-rule="evenodd" d="M12.5715 9.67434C12.5715 9.67434 12.5716 9.57971 12.5716 9.4624L13.1268 9.67445L12.5715 9.67434Z" fill="#EEA339"/>
<path fill-rule="evenodd" clip-rule="evenodd" d="M11.9091 9.77279L10.6667 9.60258C10.7028 9.33204 10.771 9.06827 10.8692 8.8172L11.9091 9.23666V9.77279Z" fill="#EEA339"/>
<path fill-rule="evenodd" clip-rule="evenodd" d="M14.4762 7.69595L14.697 6.77423C14.9555 6.83789 15.2067 6.9338 15.4448 7.06025L14.7325 8.44563L14.735 7.75004C14.6528 7.75047 14.5267 7.73767 14.4762 7.69595Z" fill="#EEA339"/>
<path fill-rule="evenodd" clip-rule="evenodd" d="M11.9384 9.86304L10.6728 9.78497C10.6565 10.0547 10.6727 10.3268 10.7214 10.5953C10.7214 10.5953 11.9384 10.603 11.9384 10.5953V9.86304Z" fill="#EEA339"/>
<path fill-rule="evenodd" clip-rule="evenodd" d="M11.9258 8.99562C11.8849 8.9411 11.9102 8.91207 11.9543 8.88314C11.9985 8.85433 11.9922 8.83185 11.9702 8.79024C11.948 8.74852 11.9259 8.70357 11.967 8.65873C12.008 8.61379 11.9922 8.59454 11.9606 8.5625C11.9291 8.53045 11.9259 8.49519 11.9543 8.46949C11.9828 8.44379 11.9764 8.42454 11.9576 8.39895C11.9385 8.37325 11.9014 8.32121 11.9346 8.28755L11.4183 7.84949C11.2477 8.0568 11.1017 8.28562 10.9841 8.53099L11.9258 8.99562Z" fill="#EEA339"/>
<path fill-rule="evenodd" clip-rule="evenodd" d="M13.1628 9.23445L12.5474 8.62811C12.6342 8.53994 12.6429 8.52553 12.5814 8.46295C12.5143 8.39478 12.5119 8.38768 12.6484 8.24886C12.695 8.20166 12.6689 8.16865 12.6027 8.16865C12.5364 8.16865 12.2318 8.16865 12.1971 8.16865C12.1624 8.16865 12.1351 8.17047 12.1097 8.19628L11.6191 7.7137C11.8063 7.51789 12.0154 7.34703 12.2412 7.20435L13.1628 8.71026V9.23445Z" fill="#EEA339"/>
<path fill-rule="evenodd" clip-rule="evenodd" d="M12.5228 9.32666C12.5228 9.17602 12.5229 9.02688 12.5229 9.00569C12.5229 8.96075 12.5197 8.94311 12.485 8.90784C12.4503 8.87258 12.4677 8.85569 12.4945 8.8172L13.0782 9.31129V9.60139L12.5228 9.32666Z" fill="#EEA339"/>
<path fill-rule="evenodd" clip-rule="evenodd" d="M13.0695 8.44638C13.0695 8.15703 13.0695 7.88939 13.0695 7.7352C13.0695 7.27337 13.095 7.0424 13.1613 6.99595L13.1083 6.77423C12.8491 6.84509 12.5979 6.94101 12.3598 7.06746L13.0695 8.44638Z" fill="#EEA339"/>
<path fill-rule="evenodd" clip-rule="evenodd" d="M15.349 9.67434C15.349 9.67434 15.3489 9.57971 15.3489 9.4624L14.7937 9.67445L15.349 9.67434Z" fill="#EEA339"/>
<path fill-rule="evenodd" clip-rule="evenodd" d="M15.9577 9.77279L17.2001 9.60258C17.1641 9.33204 17.0958 9.06827 16.9976 8.8172L15.9577 9.23666V9.77279Z" fill="#EEA339"/>
<path fill-rule="evenodd" clip-rule="evenodd" d="M15.9577 9.86304L17.2232 9.78497C17.2395 10.0547 17.2234 10.3268 17.1746 10.5953C17.1746 10.5953 15.9577 10.603 15.9577 10.5953V9.86304Z" fill="#EEA339"/>
<path fill-rule="evenodd" clip-rule="evenodd" d="M15.9177 8.99562C15.9588 8.9411 15.9334 8.91207 15.8892 8.88314C15.845 8.85433 15.8514 8.83185 15.8734 8.79024C15.8955 8.74852 15.9176 8.70357 15.8765 8.65873C15.8355 8.61379 15.8514 8.59454 15.8829 8.5625C15.9144 8.53045 15.9176 8.49519 15.8892 8.46949C15.8608 8.44379 15.8671 8.42454 15.886 8.39895C15.905 8.37325 15.942 8.32121 15.9089 8.28755L16.4252 7.84949C16.5958 8.0568 16.7417 8.28562 16.8593 8.53099L15.9177 8.99562Z" fill="#EEA339"/>
<path fill-rule="evenodd" clip-rule="evenodd" d="M14.7937 9.23445L15.409 8.62811C15.3222 8.53994 15.3135 8.52553 15.3751 8.46295C15.4422 8.39478 15.4446 8.38768 15.3081 8.24886C15.2614 8.20166 15.2876 8.16865 15.3538 8.16865C15.4201 8.16865 15.7247 8.16865 15.7594 8.16865C15.7941 8.16865 15.8214 8.17047 15.8468 8.19628L16.3374 7.7137C16.1502 7.51789 15.9411 7.34703 15.7153 7.20435L14.7937 8.71026V9.23445Z" fill="#EEA339"/>
<path fill-rule="evenodd" clip-rule="evenodd" d="M15.3492 9.32666C15.3492 9.17602 15.349 9.02688 15.349 9.00569C15.349 8.96075 15.3522 8.94311 15.3869 8.90784C15.4216 8.87258 15.4043 8.85569 15.3774 8.8172L14.7937 9.31129V9.60139L15.3492 9.32666Z" fill="#EEA339"/>
<path fill-rule="evenodd" clip-rule="evenodd" d="M12.1482 9.03229C12.1703 9.05476 12.1798 9.07713 12.1798 9.13164C12.1798 9.18616 12.1798 10.3793 12.1798 10.8476C12.1798 11.4184 12.5207 11.7359 12.8711 11.7359C13.193 11.7359 13.4045 11.4377 13.515 11.0913C13.373 11.2036 13.1646 11.2388 12.9657 11.2388C12.7353 11.2388 12.3629 11.0817 12.3629 10.7418C12.3629 10.4274 12.3629 9.26315 12.3629 9.07713C12.3629 9.03229 12.3187 9.03229 12.1482 9.03229Z" fill="#D82332"/>
<path fill-rule="evenodd" clip-rule="evenodd" d="M14.1611 6.78408C13.721 6.73881 13.3127 6.83182 13.3127 7.44193C13.3127 8.08343 13.3127 8.8659 13.3127 9.06289C13.3127 9.33354 13.2918 9.30139 13.5175 9.35827C13.927 9.4615 13.9734 9.47461 14.4702 9.58988V7.94064C14.046 7.89343 13.8622 7.61117 13.8622 7.29859C13.8622 7.04988 13.9704 6.8158 14.1611 6.78408Z" fill="#D82332"/>
<path fill-rule="evenodd" clip-rule="evenodd" d="M15.7371 9.03229C15.715 9.05476 15.7055 9.07713 15.7055 9.13164C15.7055 9.18616 15.7055 10.3793 15.7055 10.8476C15.7055 11.4184 15.3646 11.7359 15.0143 11.7359C14.6924 11.7359 14.4808 11.4377 14.3704 11.0913C14.5125 11.2036 14.7207 11.2388 14.9197 11.2388C15.15 11.2388 15.5224 11.0817 15.5224 10.7418C15.5224 10.4274 15.5224 9.26315 15.5224 9.07713C15.5224 9.03229 15.5667 9.03229 15.7371 9.03229Z" fill="#D82332"/>
<mask id="mask1" mask-type="alpha" maskUnits="userSpaceOnUse" x="10" y="6" width="8" height="8">
<path fill-rule="evenodd" clip-rule="evenodd" d="M14 13.3334C15.841 13.3334 17.3334 11.841 17.3334 10C17.3334 8.15907 15.841 6.66669 14 6.66669C12.1591 6.66669 10.6667 8.15907 10.6667 10C10.6667 11.841 12.1591 13.3334 14 13.3334Z" fill="white"/>
</mask>
<g mask="url(#mask1)">
<path fill-rule="evenodd" clip-rule="evenodd" d="M14 18.6667C15.841 18.6667 17.3334 17.1743 17.3334 15.3333C17.3334 13.4924 15.841 12 14 12C12.1591 12 10.6667 13.4924 10.6667 15.3333C10.6667 17.1743 12.1591 18.6667 14 18.6667Z" fill="#064A89"/>
</g>
</g>
</svg>
