<svg width="28" height="20" viewBox="0 0 28 20" fill="none" xmlns="http://www.w3.org/2000/svg">
<rect width="28" height="20" rx="2" fill="white"/>
<mask id="mask0" mask-type="alpha" maskUnits="userSpaceOnUse" x="0" y="0" width="28" height="20">
<rect width="28" height="20" rx="2" fill="white"/>
</mask>
<g mask="url(#mask0)">
<rect width="28" height="20" fill="#262626"/>
<path fill-rule="evenodd" clip-rule="evenodd" d="M0 0H28V20L0 0Z" fill="#E8283F"/>
<path fill-rule="evenodd" clip-rule="evenodd" d="M6.66665 16.6667L5.72384 16.9428L5.99998 16L5.72384 15.0572L6.66665 15.3334L7.60946 15.0572L7.33331 16L7.60946 16.9428L6.66665 16.6667Z" fill="white"/>
<path fill-rule="evenodd" clip-rule="evenodd" d="M6.66665 8.66669L5.72384 8.94283L5.99998 8.00002L5.72384 7.05721L6.66665 7.33335L7.60946 7.05721L7.33331 8.00002L7.60946 8.94283L6.66665 8.66669Z" fill="white"/>
<path fill-rule="evenodd" clip-rule="evenodd" d="M3.33333 12L2.39052 12.2761L2.66667 11.3333L2.39052 10.3905L3.33333 10.6667L4.27614 10.3905L4 11.3333L4.27614 12.2761L3.33333 12Z" fill="white"/>
<path fill-rule="evenodd" clip-rule="evenodd" d="M9.33333 11.3333L8.39052 11.6095L8.66667 10.6666L8.39052 9.72384L9.33333 9.99998L10.2761 9.72384L10 10.6666L10.2761 11.6095L9.33333 11.3333Z" fill="white"/>
<path fill-rule="evenodd" clip-rule="evenodd" d="M18.8612 9.26559C18.7016 9.16982 18.5722 8.94422 18.5722 8.76373L18.5722 7.53501C18.5722 7.35361 18.4417 7.25007 18.2442 7.3159L17.486 7.56863C17.3048 7.62902 17.0275 7.63446 16.83 7.56863L16.0718 7.3159C15.8906 7.25551 15.8705 7.13053 16.0328 7.03315L17.8118 5.96576C17.9714 5.86999 18.0573 5.66184 17.9915 5.46434L17.7387 4.70614C17.6783 4.52499 17.7599 4.42164 17.9574 4.48747L18.7156 4.7402C18.8968 4.80059 19.1196 4.72282 19.217 4.56052L20.2844 2.78153C20.3802 2.62191 20.5013 2.62303 20.5672 2.82052L20.8199 3.57873C20.8803 3.75988 20.8857 4.03724 20.8199 4.23473L20.5672 4.99294C20.5068 5.17409 20.6058 5.32094 20.7863 5.32094H22.015C22.1964 5.32094 22.4195 5.44767 22.5169 5.60996L23.5842 7.38895C23.68 7.54857 23.603 7.7089 23.4299 7.74351L21.7284 8.08382C21.5474 8.12002 21.3697 8.30402 21.3351 8.4771L20.9948 10.1787C20.9586 10.3597 20.8025 10.4304 20.6402 10.333L18.8612 9.26559Z" fill="#FFD84E"/>
</g>
</svg>
