<svg width="28" height="20" viewBox="0 0 28 20" fill="none" xmlns="http://www.w3.org/2000/svg">
<rect width="28" height="20" rx="2" fill="white"/>
<mask id="mask0" mask-type="alpha" maskUnits="userSpaceOnUse" x="0" y="0" width="28" height="20">
<rect width="28" height="20" rx="2" fill="white"/>
</mask>
<g mask="url(#mask0)">
<rect width="28" height="20" fill="url(#paint0_linear)"/>
<path fill-rule="evenodd" clip-rule="evenodd" d="M17.3333 10C17.3333 8.9063 17.3333 7.61319 17.3333 6.66586C17.3333 5.92948 17.9303 5.33337 18.6666 5.33337H22.6666C23.403 5.33337 24 5.92948 24 6.66586C24 7.61319 24 8.9063 24 10C24 13.3334 20.6666 14.6667 20.6666 14.6667C20.6666 14.6667 17.3333 13.3334 17.3333 10Z" fill="#8FC5FF"/>
<mask id="mask1" mask-type="alpha" maskUnits="userSpaceOnUse" x="17" y="5" width="7" height="10">
<path fill-rule="evenodd" clip-rule="evenodd" d="M17.3333 10C17.3333 8.9063 17.3333 7.61319 17.3333 6.66586C17.3333 5.92948 17.9303 5.33337 18.6666 5.33337H22.6666C23.403 5.33337 24 5.92948 24 6.66586C24 7.61319 24 8.9063 24 10C24 13.3334 20.6666 14.6667 20.6666 14.6667C20.6666 14.6667 17.3333 13.3334 17.3333 10Z" fill="white"/>
</mask>
<g mask="url(#mask1)">
<path fill-rule="evenodd" clip-rule="evenodd" d="M20.0898 11.8836C20.0898 11.8836 20.7571 11.0195 21.1496 11.0195C21.5421 11.0195 21.6142 11.5933 22.2178 11.5933C22.8214 11.5933 23.1397 10.6788 23.721 10.6788C24.3024 10.6788 23.721 13.6789 23.721 13.6789L22.9332 14.4914L18.3219 15.024L20.0898 11.8836Z" fill="#366CC9"/>
<path fill-rule="evenodd" clip-rule="evenodd" d="M18.1262 10.5512L18.7147 10L19.293 11.4157L20.0693 10L20.7369 14.0354L19.6266 13.8095L16 12.1514L18.1262 10.5512Z" fill="#CF6200"/>
<rect x="17.3333" y="5.33337" width="6.66667" height="4" fill="#FFFF00"/>
</g>
<path d="M17.6666 10V9.94863V9.89693V9.84498V9.79276V9.7403V9.68762V9.63472V9.58161V9.52831V9.47483V9.42118V9.36738V9.31343V9.28641V9.27965V9.27289V9.25936V9.20517V9.15087V9.09648V9.04201V8.98748V8.93289V8.87825V8.82359V8.76891V8.74156V8.73473V8.72789V8.72106V8.71422V8.70739V8.70055V8.69372V8.68688V8.68005V8.67321V8.66638V8.65954V8.65271V8.64588V8.63904V8.63221V8.62538V8.61855V8.61171V8.60488V8.59805V8.59122V8.58439V8.57757V8.57074V8.56391V8.55708V8.55026V8.54343V8.53661V8.52978V8.52296V8.51614V8.50932V8.50249V8.49567V8.48886V8.48204V8.47522V8.4684V8.46159V8.45478V8.44796V8.44115V8.43434V8.42753V8.42072V8.41391V8.40711V8.4003V8.3935V8.3867V8.37989V8.37309V8.3663V8.3595V8.3527V8.34591V8.33911V8.33232V8.32553V8.31874V8.31196V8.30517V8.29839V8.29161V8.28482V8.27805V8.27127V8.26449V8.25772V8.25095V8.24418V8.23741V8.23064V8.22388V8.21711V8.21035V8.20359V8.19683V8.19008V8.18333V8.17657V8.16982V8.16308V8.15633V8.14959V8.14285V8.13611V8.12937V8.12264V8.11591V8.10918V8.10245V8.09572V8.089V8.08228V8.07556V8.06885V8.06213V8.05542V8.04871V8.04201V8.0353V8.0286V8.0219V8.01521V8.00852V8.00182V7.99514V7.98845V7.98177V7.97509V7.96841V7.96174V7.95507V7.9484V7.94173V7.93507V7.92841V7.92176V7.9151V7.90845V7.9018V7.89516V7.88852V7.87524V7.84873V7.79587V7.74323V7.69081V7.63865V7.58674V7.53509V7.48374V7.43267V7.38191V7.33148V7.28137V7.23161V7.1822V7.13317V7.08451V7.03625V6.94096V6.8474V6.75567V6.66586C17.6666 6.11385 18.1141 5.66671 18.6666 5.66671H22.6666C23.2192 5.66671 23.6666 6.11385 23.6666 6.66586V6.67142V6.67698V6.68255V6.68813V6.69371V6.69931V6.70491V6.71052V6.71613V6.72176V6.72739V6.73303V6.73868V6.74434V6.75V6.75567V6.76135V6.76703V6.77273V6.77843V6.78413V6.78985V6.79557V6.8013V6.80704V6.81278V6.81854V6.82429V6.83006V6.83583V6.84162V6.8474V6.8532V6.859V6.86481V6.87063V6.87645V6.88228V6.88812V6.89396V6.89981V6.90567V6.91154V6.91741V6.92329V6.92917V6.93507V6.94096V6.94687V6.95278V6.9587V6.96463V6.97056V6.9765V6.98245V6.9884V6.99436V7.00032V7.0063V7.01227V7.01826V7.02425V7.03025V7.03625V7.04226V7.04828V7.0543V7.06033V7.06637V7.07241V7.07846V7.08451V7.09057V7.09664V7.10271V7.10879V7.11488V7.12097V7.12706V7.13317V7.13928V7.14539V7.15151V7.15764V7.16377V7.16991V7.17605V7.1822V7.18836V7.19452V7.20069V7.20686V7.21304V7.21922V7.22541V7.23161V7.23781V7.24402V7.25023V7.25645V7.26267V7.2689V7.27513V7.28137V7.28761V7.29386V7.30012V7.30638V7.31265V7.31892V7.32519V7.33148V7.33776V7.34406V7.35035V7.35665V7.36296V7.36927V7.37559V7.38191V7.38824V7.39457V7.40091V7.40725V7.4136V7.41995V7.42631V7.43267V7.43904V7.44541V7.45179V7.45817V7.46455V7.47094V7.47734V7.48374V7.49014V7.49655V7.50296V7.50938V7.5158V7.52223V7.52866V7.5351V7.54154V7.54798V7.55443V7.56088V7.56734V7.5738V7.58027V7.58674V7.59321V7.59969V7.60617V7.61266V7.61915V7.62564V7.63214V7.63865V7.64515V7.65167V7.65818V7.6647V7.67122V7.67775V7.68428V7.69081V7.69735V7.70389V7.71044V7.71699V7.72354V7.7301V7.73666V7.74323V7.74979V7.75637V7.76294V7.76952V7.7761V7.78269V7.78928V7.79587V7.80247V7.80907V7.81567V7.82227V7.82888V7.8355V7.84211V7.84873V7.85536V7.86198V7.86861V7.87524V7.88188V7.88852V7.89516V7.9018V7.90845V7.9151V7.92176V7.92841V7.93507V7.94174V7.9484V7.95507V7.96174V7.96841V7.97509V7.98177V7.98845V7.99514V8.00183V8.00852V8.01521V8.0219V8.0286V8.0353V8.04201V8.04871V8.05542V8.06213V8.06885V8.07556V8.08228V8.089V8.09572V8.10245V8.10918V8.11591V8.12264V8.12937V8.13611V8.14285V8.14959V8.15633V8.16308V8.16982V8.17657V8.18333V8.19008V8.19683V8.20359V8.21035V8.21711V8.22388V8.23064V8.23741V8.24418V8.25095V8.25772V8.26449V8.27127V8.27805V8.28483V8.29161V8.29839V8.30517V8.31196V8.31874V8.32553V8.33232V8.33912V8.34591V8.3527V8.3595V8.3663V8.37309V8.37989V8.3867V8.3935V8.4003V8.40711V8.41391V8.42072V8.42753V8.43434V8.44115V8.44796V8.45478V8.46159V8.46841V8.47522V8.48204V8.48886V8.49568V8.5025V8.50932V8.51614V8.52296V8.52978V8.53661V8.54343V8.55026V8.55708V8.56391V8.57074V8.57757V8.58439V8.59122V8.59805V8.60488V8.61171V8.61855V8.62538V8.63221V8.63904V8.64588V8.65271V8.65954V8.66638V8.67321V8.68005V8.68688V8.69372V8.70055V8.70739V8.71422V8.72106V8.72789V8.73473V8.74156V8.7484V8.75524V8.76207V8.76891V8.77574V8.78258V8.78941V8.79625V8.80309V8.80992V8.81675V8.82359V8.83042V8.83726V8.84409V8.85092V8.85776V8.86459V8.87142V8.87825V8.88508V8.89191V8.89874V8.90557V8.9124V8.91923V8.92606V8.93289V8.93971V8.94654V8.95336V8.96019V8.96701V8.97383V8.98066V8.98748V8.9943V9.00112V9.00794V9.01475V9.02157V9.02839V9.0352V9.04201V9.04883V9.05564V9.06245V9.06926V9.07607V9.08287V9.08968V9.09648V9.10329V9.11009V9.11689V9.12369V9.13049V9.13728V9.14408V9.15087V9.15766V9.16446V9.17124V9.17803V9.18482V9.1916V9.19839V9.20517V9.21195V9.21873V9.2255V9.23228V9.23905V9.24582V9.25259V9.25936V9.26613V9.27289V9.27965V9.28641V9.29317V9.29993V9.30668V9.31343V9.32018V9.32693V9.33368V9.34042V9.34717V9.35391V9.36064V9.36738V9.37411V9.38084V9.38757V9.3943V9.40102V9.40774V9.41446V9.42118V9.4279V9.43461V9.44132V9.44802V9.45473V9.46143V9.46813V9.47483V9.48152V9.48821V9.4949V9.50159V9.50827V9.51495V9.52163V9.52831V9.53498V9.54165V9.54832V9.55498V9.56164V9.5683V9.57496V9.58161V9.58826V9.5949V9.60155V9.60819V9.61482V9.62146V9.62809V9.63472V9.64134V9.64796V9.65458V9.66119V9.6678V9.67441V9.68102V9.68762V9.69422V9.70081V9.7074V9.71399V9.72057V9.72715V9.73373V9.7403V9.74687V9.75344V9.76V9.76656V9.77312V9.77967V9.78622V9.79276V9.7993V9.80584V9.81237V9.8189V9.82542V9.83195V9.83846V9.84498V9.85148V9.85799V9.86449V9.87099V9.87748V9.88397V9.89045V9.89693V9.90341V9.90988V9.91635V9.92282V9.92928V9.93573V9.94218V9.94863V9.95507V9.96151V9.96794V9.97437V9.98079V9.98721V9.99363V10C23.6666 11.5427 22.8988 12.626 22.1103 13.3356C21.7158 13.6907 21.3202 13.948 21.0231 14.1163C20.875 14.2003 20.7522 14.2616 20.6677 14.3014C20.6674 14.3016 20.667 14.3017 20.6666 14.3019C20.6663 14.3017 20.6659 14.3016 20.6656 14.3014C20.5811 14.2616 20.4583 14.2003 20.3102 14.1163C20.0131 13.948 19.6175 13.6907 19.223 13.3356C18.4345 12.626 17.6666 11.5427 17.6666 10Z" stroke="white" stroke-width="0.666667"/>
<mask id="mask2" mask-type="alpha" maskUnits="userSpaceOnUse" x="17" y="5" width="7" height="10">
<path d="M17.6666 10V9.94863V9.89693V9.84498V9.79276V9.7403V9.68762V9.63472V9.58161V9.52831V9.47483V9.42118V9.36738V9.31343V9.28641V9.27965V9.27289V9.25936V9.20517V9.15087V9.09648V9.04201V8.98748V8.93289V8.87825V8.82359V8.76891V8.74156V8.73473V8.72789V8.72106V8.71422V8.70739V8.70055V8.69372V8.68688V8.68005V8.67321V8.66638V8.65954V8.65271V8.64588V8.63904V8.63221V8.62538V8.61855V8.61171V8.60488V8.59805V8.59122V8.58439V8.57757V8.57074V8.56391V8.55708V8.55026V8.54343V8.53661V8.52978V8.52296V8.51614V8.50932V8.50249V8.49567V8.48886V8.48204V8.47522V8.4684V8.46159V8.45478V8.44796V8.44115V8.43434V8.42753V8.42072V8.41391V8.40711V8.4003V8.3935V8.3867V8.37989V8.37309V8.3663V8.3595V8.3527V8.34591V8.33911V8.33232V8.32553V8.31874V8.31196V8.30517V8.29839V8.29161V8.28482V8.27805V8.27127V8.26449V8.25772V8.25095V8.24418V8.23741V8.23064V8.22388V8.21711V8.21035V8.20359V8.19683V8.19008V8.18333V8.17657V8.16982V8.16308V8.15633V8.14959V8.14285V8.13611V8.12937V8.12264V8.11591V8.10918V8.10245V8.09572V8.089V8.08228V8.07556V8.06885V8.06213V8.05542V8.04871V8.04201V8.0353V8.0286V8.0219V8.01521V8.00852V8.00182V7.99514V7.98845V7.98177V7.97509V7.96841V7.96174V7.95507V7.9484V7.94173V7.93507V7.92841V7.92176V7.9151V7.90845V7.9018V7.89516V7.88852V7.87524V7.84873V7.79587V7.74323V7.69081V7.63865V7.58674V7.53509V7.48374V7.43267V7.38191V7.33148V7.28137V7.23161V7.1822V7.13317V7.08451V7.03625V6.94096V6.8474V6.75567V6.66586C17.6666 6.11385 18.1141 5.66671 18.6666 5.66671H22.6666C23.2192 5.66671 23.6666 6.11385 23.6666 6.66586V6.67142V6.67698V6.68255V6.68813V6.69371V6.69931V6.70491V6.71052V6.71613V6.72176V6.72739V6.73303V6.73868V6.74434V6.75V6.75567V6.76135V6.76703V6.77273V6.77843V6.78413V6.78985V6.79557V6.8013V6.80704V6.81278V6.81854V6.82429V6.83006V6.83583V6.84162V6.8474V6.8532V6.859V6.86481V6.87063V6.87645V6.88228V6.88812V6.89396V6.89981V6.90567V6.91154V6.91741V6.92329V6.92917V6.93507V6.94096V6.94687V6.95278V6.9587V6.96463V6.97056V6.9765V6.98245V6.9884V6.99436V7.00032V7.0063V7.01227V7.01826V7.02425V7.03025V7.03625V7.04226V7.04828V7.0543V7.06033V7.06637V7.07241V7.07846V7.08451V7.09057V7.09664V7.10271V7.10879V7.11488V7.12097V7.12706V7.13317V7.13928V7.14539V7.15151V7.15764V7.16377V7.16991V7.17605V7.1822V7.18836V7.19452V7.20069V7.20686V7.21304V7.21922V7.22541V7.23161V7.23781V7.24402V7.25023V7.25645V7.26267V7.2689V7.27513V7.28137V7.28761V7.29386V7.30012V7.30638V7.31265V7.31892V7.32519V7.33148V7.33776V7.34406V7.35035V7.35665V7.36296V7.36927V7.37559V7.38191V7.38824V7.39457V7.40091V7.40725V7.4136V7.41995V7.42631V7.43267V7.43904V7.44541V7.45179V7.45817V7.46455V7.47094V7.47734V7.48374V7.49014V7.49655V7.50296V7.50938V7.5158V7.52223V7.52866V7.5351V7.54154V7.54798V7.55443V7.56088V7.56734V7.5738V7.58027V7.58674V7.59321V7.59969V7.60617V7.61266V7.61915V7.62564V7.63214V7.63865V7.64515V7.65167V7.65818V7.6647V7.67122V7.67775V7.68428V7.69081V7.69735V7.70389V7.71044V7.71699V7.72354V7.7301V7.73666V7.74323V7.74979V7.75637V7.76294V7.76952V7.7761V7.78269V7.78928V7.79587V7.80247V7.80907V7.81567V7.82227V7.82888V7.8355V7.84211V7.84873V7.85536V7.86198V7.86861V7.87524V7.88188V7.88852V7.89516V7.9018V7.90845V7.9151V7.92176V7.92841V7.93507V7.94174V7.9484V7.95507V7.96174V7.96841V7.97509V7.98177V7.98845V7.99514V8.00183V8.00852V8.01521V8.0219V8.0286V8.0353V8.04201V8.04871V8.05542V8.06213V8.06885V8.07556V8.08228V8.089V8.09572V8.10245V8.10918V8.11591V8.12264V8.12937V8.13611V8.14285V8.14959V8.15633V8.16308V8.16982V8.17657V8.18333V8.19008V8.19683V8.20359V8.21035V8.21711V8.22388V8.23064V8.23741V8.24418V8.25095V8.25772V8.26449V8.27127V8.27805V8.28483V8.29161V8.29839V8.30517V8.31196V8.31874V8.32553V8.33232V8.33912V8.34591V8.3527V8.3595V8.3663V8.37309V8.37989V8.3867V8.3935V8.4003V8.40711V8.41391V8.42072V8.42753V8.43434V8.44115V8.44796V8.45478V8.46159V8.46841V8.47522V8.48204V8.48886V8.49568V8.5025V8.50932V8.51614V8.52296V8.52978V8.53661V8.54343V8.55026V8.55708V8.56391V8.57074V8.57757V8.58439V8.59122V8.59805V8.60488V8.61171V8.61855V8.62538V8.63221V8.63904V8.64588V8.65271V8.65954V8.66638V8.67321V8.68005V8.68688V8.69372V8.70055V8.70739V8.71422V8.72106V8.72789V8.73473V8.74156V8.7484V8.75524V8.76207V8.76891V8.77574V8.78258V8.78941V8.79625V8.80309V8.80992V8.81675V8.82359V8.83042V8.83726V8.84409V8.85092V8.85776V8.86459V8.87142V8.87825V8.88508V8.89191V8.89874V8.90557V8.9124V8.91923V8.92606V8.93289V8.93971V8.94654V8.95336V8.96019V8.96701V8.97383V8.98066V8.98748V8.9943V9.00112V9.00794V9.01475V9.02157V9.02839V9.0352V9.04201V9.04883V9.05564V9.06245V9.06926V9.07607V9.08287V9.08968V9.09648V9.10329V9.11009V9.11689V9.12369V9.13049V9.13728V9.14408V9.15087V9.15766V9.16446V9.17124V9.17803V9.18482V9.1916V9.19839V9.20517V9.21195V9.21873V9.2255V9.23228V9.23905V9.24582V9.25259V9.25936V9.26613V9.27289V9.27965V9.28641V9.29317V9.29993V9.30668V9.31343V9.32018V9.32693V9.33368V9.34042V9.34717V9.35391V9.36064V9.36738V9.37411V9.38084V9.38757V9.3943V9.40102V9.40774V9.41446V9.42118V9.4279V9.43461V9.44132V9.44802V9.45473V9.46143V9.46813V9.47483V9.48152V9.48821V9.4949V9.50159V9.50827V9.51495V9.52163V9.52831V9.53498V9.54165V9.54832V9.55498V9.56164V9.5683V9.57496V9.58161V9.58826V9.5949V9.60155V9.60819V9.61482V9.62146V9.62809V9.63472V9.64134V9.64796V9.65458V9.66119V9.6678V9.67441V9.68102V9.68762V9.69422V9.70081V9.7074V9.71399V9.72057V9.72715V9.73373V9.7403V9.74687V9.75344V9.76V9.76656V9.77312V9.77967V9.78622V9.79276V9.7993V9.80584V9.81237V9.8189V9.82542V9.83195V9.83846V9.84498V9.85148V9.85799V9.86449V9.87099V9.87748V9.88397V9.89045V9.89693V9.90341V9.90988V9.91635V9.92282V9.92928V9.93573V9.94218V9.94863V9.95507V9.96151V9.96794V9.97437V9.98079V9.98721V9.99363V10C23.6666 11.5427 22.8988 12.626 22.1103 13.3356C21.7158 13.6907 21.3202 13.948 21.0231 14.1163C20.875 14.2003 20.7522 14.2616 20.6677 14.3014C20.6674 14.3016 20.667 14.3017 20.6666 14.3019C20.6663 14.3017 20.6659 14.3016 20.6656 14.3014C20.5811 14.2616 20.4583 14.2003 20.3102 14.1163C20.0131 13.948 19.6175 13.6907 19.223 13.3356C18.4345 12.626 17.6666 11.5427 17.6666 10Z" fill="white" stroke="white" stroke-width="0.666667"/>
</mask>
<g mask="url(#mask2)">
</g>
<path d="M0 -0.333333H-0.901086L-0.21693 0.253086L4.33333 4.15331V5.16179L-0.193746 8.39542L-0.333333 8.49513V8.66667V9.33333V9.93475L0.176666 9.616L5.42893 6.33333H6.55984L11.0821 9.56351C11.176 9.6306 11.2886 9.66667 11.404 9.66667C11.9182 9.66667 12.1548 9.02698 11.7644 8.69237L7.66667 5.18002V4.17154L12.0542 1.03762C12.2294 0.912475 12.3333 0.710428 12.3333 0.495127V0V-0.601416L11.8233 -0.282666L6.57107 3H5.44016L0.860413 -0.271244L0.773488 -0.333333H0.666667H0Z" fill="#DB1E36" stroke="white" stroke-width="0.666667"/>
<path fill-rule="evenodd" clip-rule="evenodd" d="M0 3.33333V6H4.66667V9.33333C4.66667 9.70152 4.96514 10 5.33333 10H6.66667C7.03486 10 7.33333 9.70152 7.33333 9.33333V6H12C12.3682 6 12.6667 5.70152 12.6667 5.33333V4C12.6667 3.63181 12.3682 3.33333 12 3.33333H7.33333V0H4.66667V3.33333H0Z" fill="white"/>
<path fill-rule="evenodd" clip-rule="evenodd" d="M0 4H5.33333V3.33333V0H6.66667V3.33333V4H12V5.33333H6.66667V6V9.33333H5.33333V6V5.33333H0V4Z" fill="#DB1E36"/>
</g>
<defs>
<linearGradient id="paint0_linear" x1="0" y1="0" x2="0" y2="20" gradientUnits="userSpaceOnUse">
<stop stop-color="#07319C"/>
<stop offset="1" stop-color="#00247E"/>
</linearGradient>
</defs>
</svg>
