<svg width="28" height="20" viewBox="0 0 28 20" fill="none" xmlns="http://www.w3.org/2000/svg">
<rect x="0.25" y="0.25" width="27.5" height="19.5" rx="1.75" fill="white" stroke="#F5F5F5" stroke-width="0.5"/>
<mask id="mask0" mask-type="alpha" maskUnits="userSpaceOnUse" x="0" y="0" width="28" height="20">
<rect x="0.25" y="0.25" width="27.5" height="19.5" rx="1.75" fill="white" stroke="white" stroke-width="0.5"/>
</mask>
<g mask="url(#mask0)">
<path fill-rule="evenodd" clip-rule="evenodd" d="M0 6.66667H28V0H0V6.66667Z" fill="#D9101C"/>
<path fill-rule="evenodd" clip-rule="evenodd" d="M0 20H28V13.3334H0V20Z" fill="#0F7811"/>
<path fill-rule="evenodd" clip-rule="evenodd" d="M13.3333 8.66667C13.3333 9.03486 13.0349 9.33333 12.6667 9.33333C12.2985 9.33333 12 9.03486 12 8.66667C12 8.29848 12.2985 8 12.6667 8C13.0349 8 13.3333 8.29848 13.3333 8.66667ZM14.6667 10C14.6667 10.1206 14.6347 10.3767 14.5787 10.6667H15.3333C15.7015 10.6667 16 10.9651 16 11.3333C16 11.7015 15.7015 12 15.3333 12H14H12.6667C12.2985 12 12 11.7015 12 11.3333C12 10.9651 12.2985 10.6667 12.6667 10.6667H13.4214C13.3654 10.3767 13.3333 10.1206 13.3333 10C13.3333 9.63181 13.6318 9.33333 14 9.33333C14.3682 9.33333 14.6667 9.63181 14.6667 10ZM16 8.66667C16 9.03486 15.7015 9.33333 15.3333 9.33333C14.9652 9.33333 14.6667 9.03486 14.6667 8.66667C14.6667 8.29848 14.9652 8 15.3333 8C15.7015 8 16 8.29848 16 8.66667ZM18 10.6667C18.3682 10.6667 18.6667 10.3682 18.6667 10C18.6667 9.63181 18.3682 9.33333 18 9.33333C17.6318 9.33333 17.3333 9.63181 17.3333 10C17.3333 10.3682 17.6318 10.6667 18 10.6667ZM10.6667 10C10.6667 10.3682 10.3682 10.6667 10 10.6667C9.63182 10.6667 9.33334 10.3682 9.33334 10C9.33334 9.63181 9.63182 9.33333 10 9.33333C10.3682 9.33333 10.6667 9.63181 10.6667 10Z" fill="#FAD14E"/>
</g>
</svg>
