<svg width="28" height="20" viewBox="0 0 28 20" fill="none" xmlns="http://www.w3.org/2000/svg">
<rect width="28" height="20" rx="2" fill="white"/>
<mask id="mask0" mask-type="alpha" maskUnits="userSpaceOnUse" x="0" y="0" width="28" height="20">
<rect width="28" height="20" rx="2" fill="white"/>
</mask>
<g mask="url(#mask0)">
<rect width="28" height="20" fill="#E92434"/>
<path fill-rule="evenodd" clip-rule="evenodd" d="M20 10C20 13.3137 17.3137 16 14 16C10.6863 16 8 13.3137 8 10C8 6.68629 10.6863 4 14 4C17.3137 4 20 6.68629 20 10ZM12 10C12 12.2165 13.6641 14.0443 15.8111 14.3022C15.2543 14.5369 14.6423 14.6667 14 14.6667C11.4227 14.6667 9.33333 12.5773 9.33333 10C9.33333 7.42267 11.4227 5.33333 14 5.33333C14.6423 5.33333 15.2543 5.46309 15.8111 5.69781C13.6641 5.95568 12 7.7835 12 10ZM15.1294 12.6551L16.3542 11.1701L18.1574 11.8437L17.1236 10.22L18.3215 8.71317L16.4577 9.19462L15.3948 7.58974L15.2768 9.51105L13.422 10.026L15.2128 10.732L15.1294 12.6551Z" fill="white"/>
</g>
</svg>
