<svg width="28" height="20" viewBox="0 0 28 20" fill="none" xmlns="http://www.w3.org/2000/svg">
<rect width="28" height="20" rx="2" fill="white"/>
<mask id="mask0" mask-type="alpha" maskUnits="userSpaceOnUse" x="0" y="0" width="28" height="20">
<rect width="28" height="20" rx="2" fill="white"/>
</mask>
<g mask="url(#mask0)">
<path fill-rule="evenodd" clip-rule="evenodd" d="M0 13.3333H28V6.66663H0V13.3333Z" fill="#063191"/>
<path fill-rule="evenodd" clip-rule="evenodd" d="M0 20H28V13.3334H0V20Z" fill="#E2213B"/>
<path fill-rule="evenodd" clip-rule="evenodd" d="M14 9.33333C14.3682 9.33333 14.6667 9.03486 14.6667 8.66667C14.6667 8.29848 14.3682 8 14 8C13.6318 8 13.3333 8.29848 13.3333 8.66667C13.3333 9.03486 13.6318 9.33333 14 9.33333ZM11.3333 10C11.7015 10 12 9.70152 12 9.33333C12 8.96514 11.7015 8.66667 11.3333 8.66667C10.9651 8.66667 10.6667 8.96514 10.6667 9.33333C10.6667 9.70152 10.9651 10 11.3333 10ZM17.3333 9.33333C17.3333 9.70152 17.0349 10 16.6667 10C16.2985 10 16 9.70152 16 9.33333C16 8.96514 16.2985 8.66667 16.6667 8.66667C17.0349 8.66667 17.3333 8.96514 17.3333 9.33333ZM9.99999 12C10.3682 12 10.6667 11.7015 10.6667 11.3333C10.6667 10.9651 10.3682 10.6667 9.99999 10.6667C9.63181 10.6667 9.33333 10.9651 9.33333 11.3333C9.33333 11.7015 9.63181 12 9.99999 12ZM18.6667 11.3333C18.6667 11.7015 18.3682 12 18 12C17.6318 12 17.3333 11.7015 17.3333 11.3333C17.3333 10.9651 17.6318 10.6667 18 10.6667C18.3682 10.6667 18.6667 10.9651 18.6667 11.3333Z" fill="white"/>
<path fill-rule="evenodd" clip-rule="evenodd" d="M0 6.66667H28V0H0V6.66667Z" fill="#FFD044"/>
</g>
</svg>
