<svg width="28" height="20" viewBox="0 0 28 20" fill="none" xmlns="http://www.w3.org/2000/svg">
<rect width="28" height="20" rx="2" fill="white"/>
<mask id="mask0" mask-type="alpha" maskUnits="userSpaceOnUse" x="0" y="0" width="28" height="20">
<rect width="28" height="20" rx="2" fill="white"/>
</mask>
<g mask="url(#mask0)">
<rect width="28" height="20" fill="#E31F37"/>
<path fill-rule="evenodd" clip-rule="evenodd" d="M-1.33334 10.6666H14.6667V-1.33337H-1.33334V10.6666Z" fill="#083B9A"/>
<path fill-rule="evenodd" clip-rule="evenodd" d="M6.66667 2.66673L5.72386 2.94287L6 2.00006L5.72386 1.05725L6.66667 1.33339L7.60947 1.05725L7.33333 2.00006L7.60947 2.94287L6.66667 2.66673ZM6.66667 9.33339L5.72386 9.60954L6 8.66673L5.72386 7.72392L6.66667 8.00006L7.60947 7.72392L7.33333 8.66673L7.60947 9.60954L6.66667 9.33339ZM3.05719 6.2762L4 6.00006L4.94281 6.2762L4.66667 5.33339L4.94281 4.39058L4 4.66673L3.05719 4.39058L3.33333 5.33339L3.05719 6.2762ZM10 5.33339L9.05719 5.60954L9.33333 4.66673L9.05719 3.72392L10 4.00006L10.9428 3.72392L10.6667 4.66673L10.9428 5.60954L10 5.33339ZM8.66667 7.00006C8.66667 7.18415 8.51743 7.33339 8.33333 7.33339C8.14924 7.33339 8 7.18415 8 7.00006C8 6.81597 8.14924 6.66673 8.33333 6.66673C8.51743 6.66673 8.66667 6.81597 8.66667 7.00006Z" fill="white"/>
</g>
</svg>
