<svg width="28" height="20" viewBox="0 0 28 20" fill="none" xmlns="http://www.w3.org/2000/svg">
<rect width="28" height="20" rx="2" fill="white"/>
<mask id="mask0" mask-type="alpha" maskUnits="userSpaceOnUse" x="0" y="0" width="28" height="20">
<rect width="28" height="20" rx="2" fill="white"/>
</mask>
<g mask="url(#mask0)">
<rect width="28" height="20" fill="#19BFBF"/>
<path fill-rule="evenodd" clip-rule="evenodd" d="M14 17.3333C18.0501 17.3333 21.3333 14.05 21.3333 9.99996C21.3333 5.94987 18.0501 2.66663 14 2.66663C9.9499 2.66663 6.66666 5.94987 6.66666 9.99996C6.66666 14.05 9.9499 17.3333 14 17.3333ZM19.9634 10.6666C19.7158 12.9058 18.2361 14.7736 16.2173 15.5769C16.8674 14.2529 17.2472 12.528 17.3203 10.6666H19.9634ZM15.9856 10.6666C15.8883 12.9157 15.3011 14.9034 14.3855 15.9878C14.258 15.9959 14.1295 16 14 16C13.8705 16 13.7419 15.9959 13.6145 15.9878C12.6989 14.9034 12.1117 12.9157 12.0143 10.6666H15.9856ZM10.6797 10.6666C10.7528 12.528 11.1326 14.2529 11.7827 15.5769C9.76385 14.7736 8.28414 12.9058 8.03661 10.6666H10.6797ZM12.0143 9.33329H15.9856C15.8883 7.08425 15.3011 5.09653 14.3855 4.01214C14.258 4.00406 14.1295 3.99996 14 3.99996C13.8705 3.99996 13.7419 4.00406 13.6145 4.01214C12.6989 5.09653 12.1117 7.08425 12.0143 9.33329ZM11.7827 4.42298C11.1326 5.74701 10.7528 7.47193 10.6797 9.33329H8.03661C8.28414 7.09413 9.76385 5.22633 11.7827 4.42298ZM19.9634 9.33329H17.3203C17.2472 7.47193 16.8674 5.74701 16.2173 4.42298C18.2361 5.22633 19.7158 7.09412 19.9634 9.33329Z" fill="white"/>
</g>
</svg>
