<svg width="39" height="39" viewBox="0 0 39 39" fill="none" xmlns="http://www.w3.org/2000/svg">
<path d="M35.1763 4.08272C35.1459 3.95323 35.0545 3.85421 34.925 3.82374C30.7812 2.81065 21.2064 6.4212 16.0191 11.6085C15.006 12.6216 14.1757 13.6194 13.4978 14.5868C11.8982 14.4421 10.2986 14.564 8.93512 15.1581C5.08844 16.8491 3.96871 21.2671 3.65641 23.1638C3.58024 23.6132 3.95348 24.0017 4.40289 23.956L10.5804 23.278C10.588 23.8722 10.6261 24.3444 10.6642 24.672C10.6947 24.9919 10.8394 25.289 11.0679 25.5175L13.4597 27.9093C13.6882 28.1378 13.9853 28.2825 14.3052 28.313C14.6328 28.3511 15.105 28.3892 15.6916 28.3968L15.0136 34.5667C14.9679 35.0161 15.3564 35.3894 15.8058 35.3132C17.7025 35.0085 22.1281 33.8888 23.8115 30.0421C24.4056 28.6786 24.5275 27.0866 24.3904 25.4946C25.3578 24.8167 26.3632 23.9864 27.3763 22.9734C32.5865 17.7937 36.1742 8.43214 35.1763 4.08272ZM22.7451 16.2626C21.473 14.9905 21.473 12.9339 22.7451 11.6618C24.0171 10.3898 26.0738 10.3898 27.3459 11.6618C28.6179 12.9339 28.6179 14.9905 27.3459 16.2626C26.0738 17.5347 24.0171 17.5347 22.7451 16.2626Z" fill="#5D7290"/>
<path d="M13.2923 28.9833C12.9724 29.3032 12.4011 29.486 11.7841 29.5927C10.3978 29.8288 9.18666 28.6177 9.4228 27.2314C9.52944 26.6144 9.70463 26.0431 10.0246 25.7308L10.0322 25.7232C10.2074 25.548 10.0626 25.2585 9.81889 25.289C9.07241 25.3804 8.34116 25.7155 7.76987 26.2868C6.39878 27.6579 6.26929 32.7462 6.26929 32.7462C6.26929 32.7462 11.3652 32.6167 12.7363 31.2456C13.3152 30.6667 13.6427 29.9431 13.7341 29.1966C13.757 28.9528 13.4599 28.8081 13.2923 28.9833Z" fill="#FD4D4D"/>
</svg>
