<svg width="39" height="39" viewBox="0 0 39 39" fill="none" xmlns="http://www.w3.org/2000/svg">
<g clip-path="url(#clip0)">
<path d="M20 1.125C10.1258 1.125 2.125 9.12578 2.125 19C2.125 28.8742 10.1258 36.875 20 36.875C29.8742 36.875 37.875 28.8742 37.875 19C37.875 9.12578 29.8742 1.125 20 1.125ZM21.2031 20.5469C21.2031 21.2086 20.6617 21.75 20 21.75H11.75C11.0883 21.75 10.5469 21.2086 10.5469 20.5469C10.5469 19.8852 11.0883 19.3438 11.75 19.3438H18.7969V8C18.7969 7.33828 19.3383 6.79688 20 6.79688C20.6617 6.79688 21.2031 7.33828 21.2031 8V20.5469Z" fill="#5D7290"/>
</g>
<defs>
<clipPath id="clip0">
<rect width="39" height="39" rx="19.5" fill="white"/>
</clipPath>
</defs>
</svg>
