<svg width="17" height="19" viewBox="0 0 17 19" fill="none" xmlns="http://www.w3.org/2000/svg">
<path d="M8.54492 3.41178C8.8631 3.41178 9.61905 3.61299 9.61905 3.61299C11.667 4.08229 13.1085 5.96865 13.1085 8.09844V13.831L13.5272 14.2517L13.8771 14.6031H3.12294L3.47279 14.2517L3.89151 13.831V8.09844C3.89151 5.96869 5.33301 4.08229 7.38095 3.61299C7.38095 3.61299 8.19148 3.41178 8.45508 3.41178H8.54492ZM8.5 0.15625C7.70929 0.15625 7.10477 0.763504 7.10477 1.55781V2.21183C4.45371 2.81931 2.45401 5.24859 2.45401 8.09844V13.2375L0.59375 15.1062V16.0406H16.4062V15.1062L14.546 13.2375V8.09844C14.546 5.24859 12.5462 2.81931 9.89523 2.21183V1.55781C9.89523 0.763504 9.29072 0.15625 8.5 0.15625ZM10.3603 16.975H6.6397C6.6397 18.0029 7.47672 18.8438 8.5 18.8438C9.52328 18.8438 10.3603 18.0029 10.3603 16.975Z" fill="#5D7290"/>
</svg>
