<svg width="20" height="20" viewBox="0 0 20 20" fill="none" xmlns="http://www.w3.org/2000/svg">
<path d="M10 1.875H9.97266C7.80859 1.88281 5.77734 2.73047 4.24609 4.26172C2.71875 5.79688 1.875 7.83203 1.875 10C1.875 12.168 2.71875 14.2031 4.25 15.7383C5.77734 17.2695 7.8125 18.1172 9.97656 18.125H10.0039C14.4844 18.125 18.1289 14.4805 18.1289 10C18.1289 5.51953 14.4805 1.875 10 1.875ZM17.0391 9.45312H14.0078C13.9727 8.41016 13.8437 7.41406 13.625 6.47656C14.293 6.26172 14.9414 5.98828 15.5664 5.65625C16.4258 6.75781 16.9336 8.0625 17.0391 9.45312ZM9.45312 9.45312H7.03906C7.07031 8.49609 7.1875 7.58984 7.38281 6.75391C8.0625 6.90625 8.75391 7 9.45312 7.03125V9.45312ZM9.45312 10.5469V12.9648C8.75781 12.9961 8.0625 13.0898 7.38281 13.2422C7.1875 12.4062 7.07031 11.5 7.03906 10.5469H9.45312ZM10.5469 10.5469H12.9414C12.9102 11.5 12.793 12.4062 12.5977 13.2383C11.9258 13.0859 11.2383 12.9961 10.5469 12.9648V10.5469ZM10.5469 9.45312V7.03125C11.2422 7 11.9297 6.90625 12.5977 6.75781C12.793 7.59375 12.9102 8.49609 12.9414 9.45312H10.5469ZM14.8203 4.84766C14.3398 5.08594 13.8438 5.28906 13.3359 5.45313C13.0586 4.61719 12.707 3.89453 12.3008 3.32422C13.2383 3.64844 14.0938 4.16797 14.8203 4.84766ZM12.3047 5.73438C11.7305 5.85938 11.1406 5.9375 10.5469 5.96875V3.10156C11.2109 3.46094 11.8594 4.42578 12.3047 5.73438ZM9.45312 3.08594V5.96484C8.85156 5.93359 8.25781 5.85547 7.67578 5.72656C8.12891 4.40625 8.78516 3.44141 9.45312 3.08594ZM7.67188 3.33594C7.26953 3.90234 6.92188 4.62109 6.64453 5.44922C6.14453 5.28516 5.65234 5.08203 5.17969 4.84766C5.89844 4.17188 6.74609 3.65625 7.67188 3.33594ZM4.43359 5.66016C5.05078 5.98828 5.69531 6.26172 6.35547 6.47266C6.13281 7.40625 6.00391 8.40625 5.97266 9.44922H2.96484C3.06641 8.06641 3.57422 6.76172 4.43359 5.66016ZM2.96094 10.5469H5.96875C6.00391 11.5898 6.13281 12.5898 6.35156 13.5234C5.69141 13.7383 5.04688 14.0117 4.42969 14.3359C3.57422 13.2383 3.06641 11.9336 2.96094 10.5469ZM5.17578 15.1523C5.64844 14.918 6.14063 14.7148 6.64453 14.5508C6.92188 15.3828 7.26953 16.0977 7.67188 16.668C6.74609 16.3398 5.89844 15.8281 5.17578 15.1523ZM7.67578 14.2695C8.25781 14.1406 8.85547 14.0625 9.45312 14.0312V16.9141C8.78125 16.5586 8.12891 15.5898 7.67578 14.2695ZM10.5469 16.8984V14.0273C11.1406 14.0586 11.7305 14.1367 12.3047 14.2617C11.8594 15.5742 11.2109 16.5391 10.5469 16.8984ZM12.3047 16.6758C12.7109 16.1055 13.0625 15.3828 13.3398 14.5469C13.8477 14.7109 14.3477 14.918 14.8242 15.1562C14.0977 15.832 13.2383 16.3516 12.3047 16.6758ZM15.5664 14.3398C14.9414 14.0078 14.293 13.7344 13.625 13.5195C13.8437 12.5859 13.9727 11.5898 14.0078 10.5469H17.0391C16.9336 11.9336 16.4297 13.2383 15.5664 14.3398Z" fill="#DEE3EA"/>
</svg>
