<svg width="18" height="18" viewBox="0 0 18 18" fill="none" xmlns="http://www.w3.org/2000/svg">
<path d="M9 1.6875C4.96055 1.6875 1.6875 4.96055 1.6875 9C1.6875 13.0395 4.96055 16.3125 9 16.3125C13.0395 16.3125 16.3125 13.0395 16.3125 9C16.3125 4.96055 13.0395 1.6875 9 1.6875ZM9.49219 9.63281C9.49219 9.90352 9.2707 10.125 9 10.125H5.625C5.3543 10.125 5.13281 9.90352 5.13281 9.63281C5.13281 9.36211 5.3543 9.14062 5.625 9.14062H8.50781V4.5C8.50781 4.2293 8.7293 4.00781 9 4.00781C9.2707 4.00781 9.49219 4.2293 9.49219 4.5V9.63281Z" fill="#B2BDCD"/>
</svg>
