<svg width="17" height="17" viewBox="0 0 17 17" fill="none" xmlns="http://www.w3.org/2000/svg">
<path fill-rule="evenodd" clip-rule="evenodd" d="M2.79919 1.56024H3.73484C3.9369 1.553 4.12828 1.46768 4.26867 1.32217C4.40906 1.17666 4.48752 0.982348 4.48752 0.780151C4.48752 0.577955 4.40906 0.383646 4.26867 0.238135C4.12828 0.0926248 3.9369 0.00723632 3.73484 0H0.747369C0.545003 0.00472322 0.352766 0.0895158 0.212808 0.235755C0.0728499 0.381993 -0.00340904 0.577774 0.000750086 0.780151V3.90063C-0.00377307 4.00153 0.012196 4.10227 0.0476896 4.19682C0.0831833 4.29138 0.137466 4.37777 0.207264 4.45077C0.277063 4.52377 0.360926 4.58188 0.453797 4.62157C0.546668 4.66126 0.646619 4.6817 0.747617 4.6817C0.848614 4.6817 0.948565 4.66126 1.04144 4.62157C1.13431 4.58188 1.21817 4.52377 1.28797 4.45077C1.35777 4.37777 1.41205 4.29138 1.44755 4.19682C1.48304 4.10227 1.49901 4.00153 1.49448 3.90063V2.4004L4.64147 5.73088C4.71174 5.80095 4.79512 5.85651 4.88686 5.89435C4.97859 5.9322 5.07688 5.95163 5.17612 5.95149C5.27535 5.95135 5.37359 5.93166 5.46522 5.89356C5.55685 5.85546 5.64007 5.79968 5.71014 5.72941C5.78021 5.65914 5.83576 5.57575 5.8736 5.48401C5.91145 5.39228 5.93086 5.29402 5.93072 5.19478C5.93058 5.09555 5.9109 4.9973 5.87279 4.90567C5.83469 4.81405 5.77891 4.73083 5.70864 4.66076L2.79919 1.56024ZM13.1883 1.57025H12.2432C12.0398 1.56299 11.8472 1.4771 11.7058 1.33065C11.5645 1.18421 11.4856 0.988664 11.4856 0.785157C11.4856 0.581649 11.5645 0.386046 11.7058 0.2396C11.8472 0.0931546 12.0398 0.00726002 12.2432 0H15.2596C15.3608 0.00195055 15.4605 0.0238192 15.5532 0.0643411C15.6458 0.104863 15.7296 0.163266 15.7997 0.236182C15.8697 0.309098 15.9248 0.395078 15.9616 0.489273C15.9984 0.583468 16.0163 0.684042 16.0143 0.785157V3.93061C16.0179 4.03202 16.0012 4.13312 15.9649 4.22789C15.9286 4.32267 15.8736 4.40922 15.8032 4.48227C15.7328 4.55532 15.6483 4.61339 15.5549 4.65307C15.4615 4.69276 15.3611 4.7132 15.2596 4.7132C15.1582 4.7132 15.0577 4.69276 14.9643 4.65307C14.8709 4.61339 14.7865 4.55532 14.7161 4.48227C14.6456 4.40922 14.5906 4.32267 14.5544 4.22789C14.5181 4.13312 14.5013 4.03202 14.505 3.93061V2.42036L11.325 5.77593C11.2543 5.84778 11.1701 5.90492 11.0772 5.94404C10.9843 5.98316 10.8846 6.00344 10.7838 6.00381C10.683 6.00417 10.5831 5.98457 10.4899 5.94612C10.3968 5.90767 10.3121 5.85117 10.2409 5.77983C10.1697 5.70849 10.1133 5.62371 10.0751 5.53047C10.0368 5.43722 10.0174 5.33733 10.0179 5.23654C10.0185 5.13574 10.039 5.03604 10.0783 4.94322C10.1176 4.85039 10.1749 4.7663 10.2469 4.69574L13.1883 1.57025ZM2.79919 14.4523H3.73484C3.9369 14.4595 4.12828 14.5448 4.26867 14.6903C4.40906 14.8359 4.48752 15.0302 4.48752 15.2324C4.48752 15.4346 4.40906 15.6289 4.26867 15.7744C4.12828 15.9199 3.9369 16.0053 3.73484 16.0125H0.747369C0.545003 16.0078 0.352766 15.923 0.212808 15.7768C0.0728499 15.6305 -0.00340904 15.4347 0.000750086 15.2324V12.1119C-0.00377307 12.011 0.012196 11.9102 0.0476896 11.8157C0.0831833 11.7211 0.137466 11.6347 0.207264 11.5617C0.277063 11.4887 0.360926 11.4306 0.453797 11.3909C0.546668 11.3512 0.646619 11.3308 0.747617 11.3308C0.848614 11.3308 0.948565 11.3512 1.04144 11.3909C1.13431 11.4306 1.21817 11.4887 1.28797 11.5617C1.35777 11.6347 1.41205 11.7211 1.44755 11.8157C1.48304 11.9102 1.49901 12.011 1.49448 12.1119V13.6121L4.64147 10.2816C4.71174 10.2116 4.79512 10.156 4.88686 10.1182C4.97859 10.0803 5.07688 10.0609 5.17612 10.061C5.27535 10.0612 5.37359 10.0808 5.46522 10.119C5.55685 10.1571 5.64007 10.2128 5.71014 10.2831C5.78021 10.3534 5.83576 10.4368 5.8736 10.5285C5.91145 10.6202 5.93086 10.7185 5.93072 10.8177C5.93058 10.917 5.9109 11.0152 5.87279 11.1068C5.83469 11.1985 5.77891 11.2817 5.70864 11.3517L2.79919 14.4523ZM13.1883 14.4423H12.2432C12.0398 14.4495 11.8472 14.5354 11.7058 14.6819C11.5645 14.8283 11.4856 15.0238 11.4856 15.2274C11.4856 15.4309 11.5645 15.6265 11.7058 15.7729C11.8472 15.9194 12.0398 16.0053 12.2432 16.0125H15.2596C15.3608 16.0106 15.4605 15.9887 15.5532 15.9482C15.6458 15.9076 15.7296 15.8492 15.7997 15.7763C15.8697 15.7034 15.9248 15.6174 15.9616 15.5232C15.9984 15.429 16.0163 15.3285 16.0143 15.2274V12.0819C16.0179 11.9805 16.0012 11.8794 15.9649 11.7846C15.9286 11.6898 15.8736 11.6033 15.8032 11.5302C15.7328 11.4572 15.6483 11.3991 15.5549 11.3594C15.4615 11.3198 15.3611 11.2993 15.2596 11.2993C15.1582 11.2993 15.0577 11.3198 14.9643 11.3594C14.8709 11.3991 14.7865 11.4572 14.7161 11.5302C14.6456 11.6033 14.5906 11.6898 14.5544 11.7846C14.5181 11.8794 14.5013 11.9805 14.505 12.0819V13.5922L11.325 10.2366C11.2543 10.1647 11.1701 10.1076 11.0772 10.0685C10.9843 10.0293 10.8846 10.0091 10.7838 10.0087C10.683 10.0083 10.5831 10.0279 10.4899 10.0664C10.3968 10.1048 10.3121 10.1613 10.2409 10.2327C10.1697 10.304 10.1133 10.3888 10.0751 10.482C10.0368 10.5753 10.0174 10.6752 10.0179 10.776C10.0185 10.8768 10.039 10.9765 10.0783 11.0693C10.1176 11.1621 10.1749 11.2462 10.2469 11.3168L13.1883 14.4423Z" fill="white"/>
</svg>
