<svg width="17" height="14" viewBox="0 0 17 14" fill="none" xmlns="http://www.w3.org/2000/svg">
<path d="M16.0775 3.23077C15.5504 2.15385 14.7597 1.34615 13.7055 0.807692C12.783 0.269231 11.4651 0 10.1473 0H8.56592V3.23077H9.88375C10.5427 3.23077 11.2016 3.36538 11.7287 3.5C12.2558 3.76923 12.6512 4.17308 12.9148 4.71154C13.1783 5.25 13.3101 6.05769 13.3101 7C13.3101 7.94231 13.1783 8.75 12.9148 9.28846C12.6512 9.82692 12.2558 10.2308 11.7287 10.3654C11.3334 10.6346 10.6744 10.7692 10.0155 10.7692H8.56592V14H10.1473C11.5969 14 12.783 13.7308 13.7055 13.1923C14.7597 12.6538 15.5504 11.8462 16.0775 10.7692C16.6047 9.69231 16.8682 8.48077 16.8682 7C17 5.51923 16.7365 4.30769 16.0775 3.23077Z" fill="white"/>
<path d="M8.82941 5.11538H5.40306C5.00771 5.11538 4.74414 4.84615 4.74414 4.4423C4.74414 4.03846 5.00771 3.76923 5.40306 3.76923H8.69763C9.09298 3.76923 9.35654 4.03846 9.35654 4.4423C9.35654 4.84615 9.09298 5.11538 8.82941 5.11538Z" fill="white"/>
<path d="M8.82941 10.0962H5.40306C5.13949 10.0962 4.74414 9.82692 4.74414 9.42308C4.74414 9.01923 5.00771 8.75 5.40306 8.75H8.69763C9.09298 8.75 9.35654 9.01923 9.35654 9.42308C9.35654 9.82692 9.09298 10.0962 8.82941 10.0962Z" fill="white"/>
<path d="M8.82946 7.67309H0.658915C0.263566 7.67309 0 7.40386 0 7.00001C0 6.59617 0.263566 6.32693 0.658915 6.32693H8.82946C9.22481 6.32693 9.48837 6.59617 9.48837 7.00001C9.48837 7.40386 9.09302 7.67309 8.82946 7.67309Z" fill="white"/>
</svg>
