<svg width="23" height="23" viewBox="0 0 23 23" fill="none" xmlns="http://www.w3.org/2000/svg">
<path d="M17.1646 6.4418L16.127 7.47501C16.7873 8.13536 17.2006 9.05626 17.2006 10.0625C17.2006 11.0688 16.7873 11.9897 16.127 12.65L17.1646 13.6877C18.09 12.7623 18.665 11.4775 18.665 10.067C18.665 8.65645 18.09 7.36719 17.1646 6.4418Z" fill="#B2BDCD"/>
<path d="M19.2355 4.44727L18.2158 5.46699C19.3883 6.63945 20.116 8.27012 20.116 10.0625C20.116 11.8504 19.3928 13.4811 18.2158 14.658L19.2355 15.6777C20.6686 14.2357 21.5625 12.2502 21.5625 10.0625C21.5625 7.8748 20.673 5.88926 19.2355 4.44727ZM14.375 8.27012V3.59375H12.9375L8.625 7.1875H2.875L1.4375 7.90625V12.9375L2.875 13.6562L6.46875 19.4062H8.625L7.27734 13.6562H8.625L12.9375 16.5312H14.375V11.8549C15.2016 11.7785 15.8125 11.0059 15.8125 10.0625C15.8125 9.11914 15.2016 8.34648 14.375 8.27012Z" fill="#B2BDCD"/>
</svg>
