<svg width="20" height="20" viewBox="0 0 20 20" fill="none" xmlns="http://www.w3.org/2000/svg">
<path d="M17.5 5.6875H14.8672C14.4453 4.95703 13.8633 4.32812 13.1602 3.85156L14.6875 2.32031L13.3672 1L11.332 3.03516C10.8984 2.92969 10.4609 2.875 10 2.875C9.53906 2.875 9.10156 2.92969 8.67969 3.03516L6.63281 1L5.3125 2.32031L6.83203 3.84766C6.13672 4.32422 5.55859 4.95312 5.13672 5.68359H2.5V7.55859H4.46094C4.41406 7.86719 4.375 8.17578 4.375 8.49609V9.43359H2.5V11.3086H4.375V12.2461C4.375 12.5664 4.41406 12.875 4.46094 13.1836H2.5V15.0586H5.13281C6.10937 16.7383 7.91797 17.8711 10 17.8711C12.082 17.8711 13.8906 16.7383 14.8672 15.0586H17.5V13.1836H15.5391C15.5859 12.875 15.625 12.5664 15.625 12.2461V11.3086H17.5V9.43359H15.625V8.49609C15.625 8.17578 15.5859 7.86719 15.5391 7.55859H17.5V5.6875Z" fill="#DEE3EA"/>
</svg>
