<svg width="23" height="23" viewBox="0 0 23 23" fill="none" xmlns="http://www.w3.org/2000/svg">
<path d="M19.1323 7.65469H9.17759C8.23423 7.65469 7.46606 8.42286 7.46606 9.36622V16.2977C7.46606 17.241 8.23423 18.0047 9.17759 18.0047H14.8737C14.9995 18.0047 15.1252 18.0586 15.2151 18.1484L18.0452 20.7584C18.2024 20.9111 18.4629 20.8483 18.4629 20.6281V18.3551C18.4629 18.0856 18.6336 18.0002 18.9032 18.0002H18.9481C19.8915 18.0002 20.8393 17.241 20.8393 16.2932V9.36622C20.8438 8.41837 20.0756 7.65469 19.1323 7.65469Z" fill="#B2BDCD"/>
<path d="M7.83437 6.5541H15.8035V3.6207C15.8035 2.81211 15.1477 2.15625 14.3391 2.15625H3.6207C2.81211 2.15625 2.15625 2.81211 2.15625 3.6207V11.0418C2.15625 11.8504 2.81211 12.5062 3.6207 12.5062H6.36543V8.01855C6.36992 7.20996 7.02578 6.5541 7.83437 6.5541Z" fill="#B2BDCD"/>
</svg>
