<svg width="16" height="16" viewBox="0 0 16 16" fill="none" xmlns="http://www.w3.org/2000/svg">
<g clip-path="url(#clip0)">
<path d="M15.7576 14.6358L13.0404 11.9187C13.9162 10.8033 14.3926 9.42649 14.3934 8.00839H12.7951C12.7943 9.00278 12.4815 9.97186 11.9008 10.7791L10.7429 9.6203C11.0374 9.13404 11.1943 8.5769 11.1968 8.00839V3.21343C11.1968 1.44169 9.77027 0 8.01691 0C7.96097 0 7.90503 0.00719243 7.84989 0.019979C7.02935 0.0597615 6.2555 0.413449 5.68846 1.00786C5.12142 1.60228 4.80457 2.39192 4.80349 3.21343V3.68173L1.37269 0.250937L0.242676 1.38095L14.6276 15.7658L15.7576 14.6358ZM3.20517 8.00839H1.60684C1.60684 11.2626 4.05228 13.951 7.20097 14.3465V16H8.79929V14.3465C9.41777 14.2677 10.0212 14.098 10.5902 13.8431L9.35231 12.606C8.91336 12.7362 8.45798 12.8026 8.00013 12.8034C5.35571 12.8034 3.20517 10.6528 3.20517 8.00839Z" fill="white"/>
<path d="M4.80908 8.06201C4.82346 8.88964 5.15863 9.67935 5.74394 10.2647C6.32925 10.85 7.11896 11.1851 7.94659 11.1995L4.80908 8.06201Z" fill="white"/>
</g>
<defs>
<clipPath id="clip0">
<rect width="16" height="16" fill="white"/>
</clipPath>
</defs>
</svg>
