<svg width="28" height="20" viewBox="0 0 28 20" fill="none" xmlns="http://www.w3.org/2000/svg">
<rect width="28" height="20" rx="2" fill="white"/>
<mask id="mask0" mask-type="alpha" maskUnits="userSpaceOnUse" x="0" y="0" width="28" height="20">
<rect width="28" height="20" rx="2" fill="white"/>
</mask>
<g mask="url(#mask0)">
<rect width="28" height="20" fill="#E4233B"/>
<path fill-rule="evenodd" clip-rule="evenodd" d="M0 0L12 10L0 20V0Z" fill="#34CD4E"/>
<path fill-rule="evenodd" clip-rule="evenodd" d="M28 0L16 10L28 20V0Z" fill="#34CD4E"/>
<path fill-rule="evenodd" clip-rule="evenodd" d="M16.9621 6.39375C16.1563 5.73116 15.1246 5.33334 14 5.33334C12.8754 5.33334 11.8437 5.73116 11.0379 6.39375L-1.28247 -1.91644L-2.77365 0.294324L9.54576 8.60387C9.40773 9.0447 9.33333 9.51366 9.33333 10C9.33333 10.4863 9.40773 10.9553 9.54576 11.3961L-2.77365 19.7057L-1.28247 21.9165L11.0379 13.6063C11.8437 14.2688 12.8754 14.6667 14 14.6667C15.1246 14.6667 16.1563 14.2688 16.9621 13.6063L29.2825 21.9165L30.7737 19.7057L18.4542 11.3961C18.5923 10.9553 18.6667 10.4863 18.6667 10C18.6667 9.51366 18.5923 9.0447 18.4542 8.60387L30.7737 0.294324L29.2825 -1.91644L16.9621 6.39375Z" fill="white"/>
<path fill-rule="evenodd" clip-rule="evenodd" d="M14 8.66667L13.0572 8.94281L13.3333 8L13.0572 7.05719L14 7.33333L14.9428 7.05719L14.6667 8L14.9428 8.94281L14 8.66667ZM12 12L11.0572 12.2761L11.3333 11.3333L11.0572 10.3905L12 10.6667L12.9428 10.3905L12.6667 11.3333L12.9428 12.2761L12 12ZM15.0572 12.2761L16 12L16.9428 12.2761L16.6667 11.3333L16.9428 10.3905L16 10.6667L15.0572 10.3905L15.3333 11.3333L15.0572 12.2761Z" fill="#DF2239"/>
</g>
</svg>
