<svg width="28" height="20" viewBox="0 0 28 20" fill="none" xmlns="http://www.w3.org/2000/svg">
<rect width="28" height="20" rx="2" fill="white"/>
<mask id="mask0" mask-type="alpha" maskUnits="userSpaceOnUse" x="0" y="0" width="28" height="20">
<rect width="28" height="20" rx="2" fill="white"/>
</mask>
<g mask="url(#mask0)">
<rect width="28" height="20" fill="#19BFBF"/>
<path fill-rule="evenodd" clip-rule="evenodd" d="M5.4824 8.36848C5.40007 8.53314 5.46682 8.73337 5.63148 8.8157L7.70186 9.85089C7.86652 9.93322 7.93326 10.1334 7.85093 10.2981L7.4824 11.0352C7.40007 11.1998 7.19985 11.2666 7.03519 11.1842L6.07038 10.7018C6.0241 10.6787 5.97306 10.6666 5.92131 10.6666H4.33333C4.14924 10.6666 4 10.8159 4 11V11.7597C4 11.9032 4.09181 12.0306 4.22792 12.0759L5.48833 12.4961C5.72341 12.5744 5.79384 12.8728 5.61863 13.048L5.43096 13.2357C5.36845 13.2982 5.33333 13.383 5.33333 13.4714V13.9459C5.33333 13.9817 5.33911 14.0173 5.35044 14.0513L5.95634 15.869C5.98429 15.9528 6.04442 16.0222 6.12349 16.0617L7.11844 16.5592C7.24677 16.6233 7.40176 16.5982 7.50322 16.4967L8.66667 15.3333L9.00631 14.9936C9.16719 14.8328 9.12318 14.5616 8.91968 14.4598L8.18426 14.0921C8.07133 14.0356 8 13.9202 8 13.7939V13.7602C8 13.5434 8.2038 13.3842 8.41418 13.4368L10.4142 13.9368C10.5626 13.9739 10.6667 14.1073 10.6667 14.2602V15.2324C10.6667 15.2982 10.6861 15.3625 10.7226 15.4173L11.901 17.1849C11.9629 17.2776 12.0669 17.3333 12.1784 17.3333H12.441C12.5773 17.3333 12.6999 17.2503 12.7505 17.1238L13.7243 14.6891C13.8311 14.4221 14.2033 14.4066 14.332 14.6639L14.6425 15.2849C14.6585 15.317 14.6796 15.3462 14.7049 15.3715L15.9618 16.6284C15.9871 16.6537 16.0163 16.6748 16.0484 16.6908L16.8509 17.0921C17.0726 17.2029 17.3333 17.0417 17.3333 16.7939V16.138C17.3333 16.0496 17.2982 15.9648 17.2357 15.9023L16.9024 15.569C16.7722 15.4388 16.7722 15.2278 16.9024 15.0976L17.2357 14.7643C17.2982 14.7017 17.383 14.6666 17.4714 14.6666H18.588C18.6397 14.6666 18.6908 14.6546 18.737 14.6314L19.8157 14.0921C19.9287 14.0356 20 13.9202 20 13.7939V12.8047C20 12.7163 19.9649 12.6315 19.9024 12.569L19.569 12.2357C19.4389 12.1055 19.4389 11.8944 19.569 11.7643L20.3396 10.9936C20.5005 10.8328 20.7717 10.8768 20.8735 11.0803L21.2509 11.8352C21.3014 11.9362 21.4047 12 21.5176 12C21.7392 12 21.8834 11.7667 21.7843 11.5685L21.4824 10.9648C21.4001 10.8001 21.4668 10.5999 21.6315 10.5176L22.3685 10.149C22.5332 10.0667 22.5999 9.86648 22.5176 9.70182L22.0617 8.79012C22.0222 8.71105 21.9529 8.65092 21.869 8.62296L20.5117 8.17052C20.2766 8.09216 20.2062 7.7938 20.3814 7.61859L21.2357 6.76426C21.2982 6.70175 21.383 6.66663 21.4714 6.66663H23.1273C23.2536 6.66663 23.369 6.59529 23.4255 6.48236L23.7816 5.77011C23.8866 5.56014 23.7474 5.31033 23.5136 5.28908L17.3754 4.73106C17.094 4.70547 16.9701 4.36323 17.1699 4.16339L17.2357 4.09759C17.2982 4.03508 17.3333 3.95029 17.3333 3.86189V2.99996C17.3333 2.81586 17.1841 2.66663 17 2.66663H14.1381C14.0497 2.66663 13.9649 2.70174 13.9024 2.76426L12.0653 4.60134C12.0226 4.64406 11.969 4.67437 11.9104 4.68902L9.33333 5.33329L6.78629 5.97005C6.7091 5.98935 6.62755 5.9804 6.55638 5.94481L6.05311 5.69318C5.7875 5.56037 5.4939 5.81501 5.58781 6.09673L5.95634 7.20231C5.98429 7.28618 5.97779 7.37772 5.93825 7.45679L5.4824 8.36848ZM14.6667 16.6666C14.6667 17.0348 14.3682 17.3333 14 17.3333C13.6318 17.3333 13.3333 17.0348 13.3333 16.6666C13.3333 16.2984 13.6318 16 14 16C14.3682 16 14.6667 16.2984 14.6667 16.6666ZM10 10.6666C10.3682 10.6666 10.6667 10.3681 10.6667 9.99996C10.6667 9.63177 10.3682 9.33329 10 9.33329C9.63181 9.33329 9.33333 9.63177 9.33333 9.99996C9.33333 10.3681 9.63181 10.6666 10 10.6666ZM22.6667 12.6666V13.3333L21.9024 14.0976C21.6924 14.3076 21.8411 14.6666 22.1381 14.6666H22.4607C22.5869 14.6666 22.7023 14.5953 22.7588 14.4824L23.3333 13.3333L22.6667 12.6666ZM22.6667 12.6666L23.0352 12.4824C23.2755 12.3622 23.19 12 22.9213 12C22.7807 12 22.6667 12.114 22.6667 12.2546V12.6666Z" fill="white"/>
</g>
</svg>
