<svg width="28" height="20" viewBox="0 0 28 20" fill="none" xmlns="http://www.w3.org/2000/svg">
<rect width="28" height="20" rx="2" fill="white"/>
<mask id="mask0" mask-type="alpha" maskUnits="userSpaceOnUse" x="0" y="0" width="28" height="20">
<rect width="28" height="20" rx="2" fill="white"/>
</mask>
<g mask="url(#mask0)">
<rect width="28" height="20" fill="#19BFBF"/>
<path fill-rule="evenodd" clip-rule="evenodd" d="M10 16.041C10 16.0137 10.0034 15.9866 10.01 15.9601L10.6667 13.3333L11.3098 10.7608C11.3252 10.6993 11.3227 10.6347 11.3026 10.5745L10.7103 8.79761C10.6824 8.71374 10.6223 8.64441 10.5432 8.60488L9.51761 8.09209C9.40468 8.03563 9.33334 7.92021 9.33334 7.79395V5.41198C9.33334 5.36023 9.34539 5.3092 9.36853 5.26291L10 3.99996L10.5745 2.85089C10.631 2.73796 10.7464 2.66663 10.8727 2.66663H14.3333C14.5174 2.66663 14.6667 2.81586 14.6667 2.99996V3.66663C14.6667 3.85072 14.8159 3.99996 15 3.99996H15.6667C15.8508 3.99996 16 4.1492 16 4.33329V5.12728C16 5.25354 16.0713 5.36896 16.1843 5.42542L18.4824 6.57449C18.5953 6.63096 18.6667 6.74638 18.6667 6.87264V7.92127C18.6667 7.97302 18.6546 8.02406 18.6315 8.07034L18.0396 9.25412C18.0137 9.306 17.9746 9.35022 17.9264 9.3824L16.0737 10.6175C16.0254 10.6497 15.9864 10.6939 15.9604 10.7458L14.7063 13.2541C14.6803 13.306 14.6413 13.3502 14.593 13.3824L12.7403 14.6175C12.6921 14.6497 12.653 14.6939 12.6271 14.7458L11.4255 17.149C11.369 17.262 11.2536 17.3333 11.1273 17.3333H10.3333C10.1492 17.3333 10 17.1841 10 17V16.041Z" fill="white"/>
</g>
</svg>
