<svg width="28" height="20" viewBox="0 0 28 20" fill="none" xmlns="http://www.w3.org/2000/svg">
<rect x="0.25" y="0.25" width="27.5" height="19.5" rx="1.75" fill="white" stroke="#F5F5F5" stroke-width="0.5"/>
<mask id="mask0" mask-type="alpha" maskUnits="userSpaceOnUse" x="0" y="0" width="28" height="20">
<rect x="0.25" y="0.25" width="27.5" height="19.5" rx="1.75" fill="white" stroke="white" stroke-width="0.5"/>
</mask>
<g mask="url(#mask0)">
<path fill-rule="evenodd" clip-rule="evenodd" d="M0 8H12V0H0V8Z" fill="#083D7A"/>
<path fill-rule="evenodd" clip-rule="evenodd" d="M16 20H28V12H16V20Z" fill="#083D7A"/>
<path fill-rule="evenodd" clip-rule="evenodd" d="M0 20H12V12H0V20Z" fill="#DF1E35"/>
<path fill-rule="evenodd" clip-rule="evenodd" d="M16 8H28V0H16V8Z" fill="#DF1E35"/>
<mask id="path-7-inside-1" fill="white">
<path fill-rule="evenodd" clip-rule="evenodd" d="M12.5858 8.58579C11.8047 9.36684 11.8047 10.6332 12.5858 11.4142C13.3668 12.1953 14.6332 12.1953 15.4142 11.4142C16.1953 10.6332 16.1953 9.36683 15.4142 8.58579"/>
</mask>
<path d="M12.1144 8.11438C11.073 9.15578 11.073 10.8442 12.1144 11.8856L13.0572 10.9428C12.5365 10.4221 12.5365 9.57789 13.0572 9.05719L12.1144 8.11438ZM12.1144 11.8856C13.1558 12.927 14.8442 12.927 15.8856 11.8856L14.9428 10.9428C14.4221 11.4635 13.5779 11.4635 13.0572 10.9428L12.1144 11.8856ZM15.8856 11.8856C16.927 10.8442 16.927 9.15578 15.8856 8.11438L14.9428 9.05719C15.4635 9.57789 15.4635 10.4221 14.9428 10.9428L15.8856 11.8856Z" fill="#0F6D1A" mask="url(#path-7-inside-1)"/>
<path fill-rule="evenodd" clip-rule="evenodd" d="M14 10.6667C14.3682 10.6667 14.6667 10.3682 14.6667 10C14.6667 9.63182 14.3682 9.33334 14 9.33334C13.6318 9.33334 13.3333 9.63182 13.3333 10C13.3333 10.3682 13.6318 10.6667 14 10.6667Z" fill="#042F60"/>
</g>
</svg>
