<svg width="28" height="20" viewBox="0 0 28 20" fill="none" xmlns="http://www.w3.org/2000/svg">
<rect width="28" height="20" rx="2" fill="white"/>
<mask id="mask0" mask-type="alpha" maskUnits="userSpaceOnUse" x="0" y="0" width="28" height="20">
<rect width="28" height="20" rx="2" fill="white"/>
</mask>
<g mask="url(#mask0)">
<rect width="28" height="20" fill="#043CAE"/>
<path fill-rule="evenodd" clip-rule="evenodd" d="M13.0572 4.27612L14 3.99998L14.9428 4.27612L14.6667 3.33331L14.9428 2.3905L14 2.66665L13.0572 2.3905L13.3333 3.33331L13.0572 4.27612ZM13.0572 17.6095L14 17.3333L14.9428 17.6095L14.6667 16.6666L14.9428 15.7238L14 16L13.0572 15.7238L13.3333 16.6666L13.0572 17.6095ZM20.6667 10.6666L19.7239 10.9428L20 9.99998L19.7239 9.05717L20.6667 9.33331L21.6095 9.05717L21.3333 9.99998L21.6095 10.9428L20.6667 10.6666ZM6.39052 10.9428L7.33333 10.6666L8.27614 10.9428L7.99999 9.99998L8.27614 9.05717L7.33333 9.33331L6.39052 9.05717L6.66666 9.99998L6.39052 10.9428ZM19.7735 7.33331L18.8307 7.60945L19.1068 6.66665L18.8307 5.72384L19.7735 5.99998L20.7163 5.72384L20.4402 6.66665L20.7163 7.60945L19.7735 7.33331ZM7.28368 14.2761L8.22649 14L9.1693 14.2761L8.89316 13.3333L9.1693 12.3905L8.22649 12.6666L7.28368 12.3905L7.55982 13.3333L7.28368 14.2761ZM17.3333 4.89314L16.3905 5.16929L16.6667 4.22648L16.3905 3.28367L17.3333 3.55981L18.2761 3.28367L18 4.22648L18.2761 5.16929L17.3333 4.89314ZM9.72385 16.7163L10.6667 16.4401L11.6095 16.7163L11.3333 15.7735L11.6095 14.8307L10.6667 15.1068L9.72385 14.8307L9.99999 15.7735L9.72385 16.7163ZM19.7735 14L18.8307 14.2761L19.1068 13.3333L18.8307 12.3905L19.7735 12.6666L20.7163 12.3905L20.4402 13.3333L20.7163 14.2761L19.7735 14ZM7.28368 7.60945L8.22649 7.33331L9.1693 7.60945L8.89316 6.66665L9.1693 5.72384L8.22649 5.99998L7.28368 5.72384L7.55982 6.66665L7.28368 7.60945ZM17.3333 16.4401L16.3905 16.7163L16.6667 15.7735L16.3905 14.8307L17.3333 15.1068L18.2761 14.8307L18 15.7735L18.2761 16.7163L17.3333 16.4401ZM9.72385 5.16929L10.6667 4.89314L11.6095 5.16929L11.3333 4.22648L11.6095 3.28367L10.6667 3.55981L9.72385 3.28367L9.99999 4.22648L9.72385 5.16929Z" fill="#FFD429"/>
</g>
</svg>
