<svg width="28" height="20" viewBox="0 0 28 20" fill="none" xmlns="http://www.w3.org/2000/svg">
<rect x="0.25" y="0.25" width="27.5" height="19.5" rx="1.75" fill="white" stroke="#F5F5F5" stroke-width="0.5"/>
<mask id="mask0" mask-type="alpha" maskUnits="userSpaceOnUse" x="0" y="0" width="28" height="20">
<rect x="0.25" y="0.25" width="27.5" height="19.5" rx="1.75" fill="white" stroke="white" stroke-width="0.5"/>
</mask>
<g mask="url(#mask0)">
<path fill-rule="evenodd" clip-rule="evenodd" d="M0 5.33333H28V0H0V5.33333Z" fill="#F03340"/>
<path fill-rule="evenodd" clip-rule="evenodd" d="M0 20H28V14.6667H0V20Z" fill="#F03340"/>
<path fill-rule="evenodd" clip-rule="evenodd" d="M12.9428 12.3905C13.1585 12.1749 13.1585 11.8252 12.9428 11.6095L12.8661 11.5328C12.7424 11.4091 12.5628 11.3593 12.3931 11.4018L12.0138 11.4966C11.5701 11.6075 11.2948 11.0289 11.6606 10.7546L12.0033 10.4975C12.2158 10.3382 12.1031 10 11.8375 10C11.5458 10 11.453 9.60685 11.7139 9.47641L12.2861 9.19029C12.547 9.05986 12.4542 8.66669 12.1625 8.66669C11.8969 8.66669 11.7842 8.32855 11.9967 8.16918L13.6 6.96669C13.837 6.78891 14.163 6.78891 14.4 6.96669L16.0033 8.16918C16.2158 8.32855 16.1031 8.66669 15.8375 8.66669C15.5458 8.66669 15.453 9.05986 15.7139 9.19029L16.2861 9.47641C16.547 9.60685 16.4542 10 16.1625 10C15.8969 10 15.7842 10.3382 15.9967 10.4975L16.3394 10.7546C16.7052 11.029 16.4299 11.6075 15.9862 11.4966L15.6069 11.4018C15.4372 11.3593 15.2576 11.4091 15.1339 11.5328L15.0572 11.6095C14.8415 11.8252 14.8415 12.1749 15.0572 12.3905C15.4051 12.7385 15.1587 13.3334 14.6667 13.3334H13.3333C12.8413 13.3334 12.5949 12.7385 12.9428 12.3905Z" fill="#1FC065"/>
</g>
</svg>
