<svg width="28" height="20" viewBox="0 0 28 20" fill="none" xmlns="http://www.w3.org/2000/svg">
<rect x="0.25" y="0.25" width="27.5" height="19.5" rx="1.75" fill="white" stroke="#F5F5F5" stroke-width="0.5"/>
<mask id="mask0" mask-type="alpha" maskUnits="userSpaceOnUse" x="0" y="0" width="28" height="20">
<rect x="0.25" y="0.25" width="27.5" height="19.5" rx="1.75" fill="white" stroke="white" stroke-width="0.5"/>
</mask>
<g mask="url(#mask0)">
<path fill-rule="evenodd" clip-rule="evenodd" d="M0 10.6667H28V0H0V10.6667Z" fill="#E12237"/>
<path fill-rule="evenodd" clip-rule="evenodd" d="M6.66666 9.33337C7.61177 9.33337 8.48032 9.0056 9.16484 8.45752C8.80223 8.59277 8.40974 8.66671 7.99999 8.66671C6.15904 8.66671 4.66666 7.17432 4.66666 5.33337C4.66666 3.49242 6.15904 2.00004 7.99999 2.00004C8.40974 2.00004 8.80223 2.07397 9.16484 2.20923C8.48032 1.66115 7.61177 1.33337 6.66666 1.33337C4.45752 1.33337 2.66666 3.12423 2.66666 5.33337C2.66666 7.54251 4.45752 9.33337 6.66666 9.33337ZM7.99999 4.66671C7.99999 5.0349 7.70151 5.33337 7.33332 5.33337C6.96513 5.33337 6.66666 5.0349 6.66666 4.66671C6.66666 4.29852 6.96513 4.00004 7.33332 4.00004C7.70151 4.00004 7.99999 4.29852 7.99999 4.66671ZM8.66666 8.00004C9.03485 8.00004 9.33332 7.70156 9.33332 7.33337C9.33332 6.96518 9.03485 6.66671 8.66666 6.66671C8.29847 6.66671 7.99999 6.96518 7.99999 7.33337C7.99999 7.70156 8.29847 8.00004 8.66666 8.00004ZM12 7.33337C12 7.70156 11.7015 8.00004 11.3333 8.00004C10.9651 8.00004 10.6667 7.70156 10.6667 7.33337C10.6667 6.96518 10.9651 6.66671 11.3333 6.66671C11.7015 6.66671 12 6.96518 12 7.33337ZM12.6667 5.33337C13.0348 5.33337 13.3333 5.0349 13.3333 4.66671C13.3333 4.29852 13.0348 4.00004 12.6667 4.00004C12.2985 4.00004 12 4.29852 12 4.66671C12 5.0349 12.2985 5.33337 12.6667 5.33337ZM10.6667 2.66671C10.6667 3.0349 10.3682 3.33337 9.99999 3.33337C9.6318 3.33337 9.33332 3.0349 9.33332 2.66671C9.33332 2.29852 9.6318 2.00004 9.99999 2.00004C10.3682 2.00004 10.6667 2.29852 10.6667 2.66671Z" fill="white"/>
</g>
</svg>
