<svg width="28" height="20" viewBox="0 0 28 20" fill="none" xmlns="http://www.w3.org/2000/svg">
<rect x="0.25" y="0.25" width="27.5" height="19.5" rx="1.75" fill="white" stroke="#F5F5F5" stroke-width="0.5"/>
<mask id="mask0" mask-type="alpha" maskUnits="userSpaceOnUse" x="0" y="0" width="28" height="20">
<rect x="0.25" y="0.25" width="27.5" height="19.5" rx="1.75" fill="white" stroke="white" stroke-width="0.5"/>
</mask>
<g mask="url(#mask0)">
<path fill-rule="evenodd" clip-rule="evenodd" d="M0 13.3333H28V6.66663H0V13.3333Z" fill="#0C47B7"/>
<path fill-rule="evenodd" clip-rule="evenodd" d="M0 20H28V13.3334H0V20Z" fill="#E53B35"/>
<path d="M6.94971 3.33333C5.87505 3.33333 4.99249 4.1826 4.95119 5.25647L4.69194 11.9969C4.66847 12.6073 4.92515 13.1948 5.38888 13.5923L8.26456 16.0572C9.2632 16.9132 10.7368 16.9132 11.7355 16.0572L14.6111 13.5923C15.0749 13.1948 15.3315 12.6073 15.3081 11.9969L15.0488 5.25647C15.0075 4.1826 14.125 3.33333 13.0503 3.33333H6.94971Z" fill="#F73744" stroke="white" stroke-width="1.33333"/>
<mask id="mask1" mask-type="alpha" maskUnits="userSpaceOnUse" x="4" y="2" width="12" height="16">
<path d="M6.94971 3.33333C5.87505 3.33333 4.99249 4.1826 4.95119 5.25647L4.69194 11.9969C4.66847 12.6073 4.92515 13.1948 5.38888 13.5923L8.26456 16.0572C9.2632 16.9132 10.7368 16.9132 11.7355 16.0572L14.6111 13.5923C15.0749 13.1948 15.3315 12.6073 15.3081 11.9969L15.0488 5.25647C15.0075 4.1826 14.125 3.33333 13.0503 3.33333H6.94971Z" fill="white" stroke="white" stroke-width="1.33333"/>
</mask>
<g mask="url(#mask1)">
<path fill-rule="evenodd" clip-rule="evenodd" d="M9.33331 11C9.33331 10.8159 9.18407 10.6667 8.99998 10.6667H7.66665C7.48255 10.6667 7.33331 10.5175 7.33331 10.3334V9.66671C7.33331 9.48261 7.48255 9.33337 7.66665 9.33337H8.99998C9.18407 9.33337 9.33331 9.18414 9.33331 9.00004V8.33337C9.33331 8.14928 9.18407 8.00004 8.99998 8.00004H8.33331C8.14922 8.00004 7.99998 7.8508 7.99998 7.66671V7.00004C7.99998 6.81595 8.14922 6.66671 8.33331 6.66671H8.99998C9.18407 6.66671 9.33331 6.51747 9.33331 6.33337V5.66671C9.33331 5.48261 9.48255 5.33337 9.66665 5.33337H10.3333C10.5174 5.33337 10.6666 5.48261 10.6666 5.66671V6.33337C10.6666 6.51747 10.8159 6.66671 11 6.66671H11.6666C11.8507 6.66671 12 6.81595 12 7.00004V7.66671C12 7.8508 11.8507 8.00004 11.6666 8.00004H11C10.8159 8.00004 10.6666 8.14928 10.6666 8.33337V9.00004C10.6666 9.18414 10.8159 9.33337 11 9.33337H12.3333C12.5174 9.33337 12.6666 9.48261 12.6666 9.66671V10.3334C12.6666 10.5175 12.5174 10.6667 12.3333 10.6667H11C10.8159 10.6667 10.6666 10.8159 10.6666 11V13C10.6666 13.1841 10.5174 13.3334 10.3333 13.3334H9.66665C9.48255 13.3334 9.33331 13.1841 9.33331 13V11Z" fill="white"/>
<path fill-rule="evenodd" clip-rule="evenodd" d="M11.2035 13.4254C10.9889 12.9766 10.5307 12.6666 10 12.6666C9.46934 12.6666 9.01109 12.9766 8.79647 13.4254C7.17545 13.6808 6 14.4384 6 15.3333C6 16.4379 7.79086 17.3333 10 17.3333C12.2091 17.3333 14 16.4379 14 15.3333C14 14.4384 12.8246 13.6808 11.2035 13.4254Z" fill="#1251A1"/>
</g>
</g>
</svg>
