<svg width="28" height="20" viewBox="0 0 28 20" fill="none" xmlns="http://www.w3.org/2000/svg">
<rect width="28" height="20" rx="2" fill="white"/>
<mask id="mask0" mask-type="alpha" maskUnits="userSpaceOnUse" x="0" y="0" width="28" height="20">
<rect width="28" height="20" rx="2" fill="white"/>
</mask>
<g mask="url(#mask0)">
<path fill-rule="evenodd" clip-rule="evenodd" d="M0 20H28V13.3334H0V20Z" fill="#2ACB41"/>
<path fill-rule="evenodd" clip-rule="evenodd" d="M0 6.66667H28V0H0V6.66667Z" fill="#2ACB41"/>
<path fill-rule="evenodd" clip-rule="evenodd" d="M0 13.3333H28V6.66663H0V13.3333Z" fill="#FDD043"/>
<path fill-rule="evenodd" clip-rule="evenodd" d="M0 0L10.6667 10L0 20V0Z" fill="#E71E43"/>
<path fill-rule="evenodd" clip-rule="evenodd" d="M14.6667 11.0934L13.0992 12.1574L13.6268 10.3379L12.1305 9.176L14.024 9.11552L14.6667 7.33337L15.3093 9.11552L17.2028 9.176L15.7065 10.3379L16.2341 12.1574L14.6667 11.0934Z" fill="#262626"/>
<path fill-rule="evenodd" clip-rule="evenodd" d="M21.3334 11.0934L19.7659 12.1574L20.2935 10.3379L18.7972 9.176L20.6907 9.11552L21.3334 7.33337L21.976 9.11552L23.8695 9.176L22.3732 10.3379L22.9008 12.1574L21.3334 11.0934Z" fill="#262626"/>
</g>
</svg>
