<svg width="28" height="20" viewBox="0 0 28 20" fill="none" xmlns="http://www.w3.org/2000/svg">
<rect width="28" height="20" rx="2" fill="white"/>
<mask id="mask0" mask-type="alpha" maskUnits="userSpaceOnUse" x="0" y="0" width="28" height="20">
<rect width="28" height="20" rx="2" fill="white"/>
</mask>
<g mask="url(#mask0)">
<rect width="28" height="20" fill="#E92434"/>
<path fill-rule="evenodd" clip-rule="evenodd" d="M19.0208 10.7683L17.796 12.2533L17.8795 10.3302L16.0887 9.6242L17.9434 9.10927L18.0615 7.18796L19.1244 8.79283L20.9881 8.31139L19.7902 9.81819L20.8241 11.4419L19.0208 10.7683Z" fill="white"/>
<path fill-rule="evenodd" clip-rule="evenodd" d="M17.4028 13.6841C16.3049 15.0935 14.5916 16 12.6667 16C9.35298 16 6.66669 13.3137 6.66669 10C6.66669 6.68629 9.35298 4 12.6667 4C14.5916 4 16.3049 4.90649 17.4028 6.31588C16.5556 5.70011 15.4903 5.33333 14.3334 5.33333C11.5719 5.33333 9.33335 7.42267 9.33335 10C9.33335 12.5773 11.5719 14.6667 14.3334 14.6667C15.4903 14.6667 16.5556 14.2999 17.4028 13.6841Z" fill="white"/>
</g>
</svg>
