<svg width="28" height="20" viewBox="0 0 28 20" fill="none" xmlns="http://www.w3.org/2000/svg">
<rect x="0.25" y="0.25" width="27.5" height="19.5" rx="1.75" fill="white" stroke="#F5F5F5" stroke-width="0.5"/>
<mask id="mask0" mask-type="alpha" maskUnits="userSpaceOnUse" x="0" y="0" width="28" height="20">
<rect x="0.25" y="0.25" width="27.5" height="19.5" rx="1.75" fill="white" stroke="white" stroke-width="0.5"/>
</mask>
<g mask="url(#mask0)">
<path fill-rule="evenodd" clip-rule="evenodd" d="M28 2.66663H13.3333V5.33329H28V2.66663ZM13.3333 7.99996V10.6666H28V7.99996H13.3333ZM13.3333 13.3333L0 13.3333V16H28V13.3333H13.3333ZM0 20V18.6666H28V20H0Z" fill="#0E4DC5"/>
<path fill-rule="evenodd" clip-rule="evenodd" d="M6.66666 9.32136L5.77657 10.65L5.55111 9.06674L4.1727 9.87762L4.65652 8.35333L3.06278 8.48583L4.16006 7.32241L2.66666 6.7503L4.16006 6.17818L3.06278 5.01476L4.65652 5.14727L4.1727 3.62297L5.55111 4.43385L5.77657 2.85059L6.66666 4.17924L7.55674 2.85059L7.7822 4.43385L9.16062 3.62297L8.67679 5.14727L10.2705 5.01476L9.17326 6.17818L10.6667 6.7503L9.17326 7.32241L10.2705 8.48583L8.67679 8.35333L9.16062 9.87762L7.7822 9.06674L7.55674 10.65L6.66666 9.32136ZM6.66666 9.29575C8.07247 9.29575 9.21211 8.15611 9.21211 6.7503C9.21211 5.34448 8.07247 4.20484 6.66666 4.20484C5.26084 4.20484 4.1212 5.34448 4.1212 6.7503C4.1212 8.15611 5.26084 9.29575 6.66666 9.29575ZM8.66666 6.66672C8.66666 7.77129 7.77123 8.66672 6.66666 8.66672C5.56209 8.66672 4.66666 7.77129 4.66666 6.66672C4.66666 5.56215 5.56209 4.66672 6.66666 4.66672C7.77123 4.66672 8.66666 5.56215 8.66666 6.66672Z" fill="#FED443"/>
</g>
</svg>
