<svg width="27" height="27" viewBox="0 0 27 27" fill="none" xmlns="http://www.w3.org/2000/svg">
<path d="M14.7076 7.67813C14.5916 7.62012 14.465 7.59375 14.3438 7.59375C14.1539 7.59375 13.9693 7.65703 13.8164 7.77832L10.3781 10.5469H7.59375C7.12969 10.5469 6.75 10.9266 6.75 11.3906V15.6094C6.75 16.0734 7.12969 16.4531 7.59375 16.4531H10.3781L13.8164 19.2217C13.9693 19.343 14.1592 19.4062 14.3438 19.4062C14.465 19.4062 14.5916 19.3799 14.7076 19.3219C15.0029 19.1795 15.1875 18.8842 15.1875 18.5625V8.4375C15.1875 8.11055 15.0029 7.81523 14.7076 7.67813ZM18.6891 9.6293C18.4465 9.38145 18.051 9.37617 17.8031 9.62402C17.5553 9.87188 17.5553 10.2727 17.7979 10.5205C18.573 11.3115 19.0002 12.3715 19.0002 13.5053C19.0002 14.6338 18.573 15.6938 17.7979 16.49C17.5553 16.7379 17.5553 17.1387 17.8031 17.3865C17.9244 17.5078 18.0826 17.5711 18.2408 17.5711C18.4043 17.5711 18.5625 17.5078 18.6891 17.3813C19.6963 16.3477 20.25 14.9766 20.25 13.5105H20.2395C20.2395 12.034 19.6963 10.6576 18.6891 9.6293Z" fill="white"/>
</svg>
