<svg width="20" height="20" viewBox="0 0 20 20" fill="none" xmlns="http://www.w3.org/2000/svg">
<path d="M10 1.875C5.51172 1.875 1.875 5.51172 1.875 10C1.875 14.4883 5.51172 18.125 10 18.125C14.4883 18.125 18.125 14.4883 18.125 10C18.125 5.51172 14.4883 1.875 10 1.875ZM9.83203 13.75C9.37109 13.75 8.99609 13.3984 8.99609 12.9453C8.99609 12.4961 9.37109 12.1406 9.83203 12.1406C10.2969 12.1406 10.6719 12.4922 10.6719 12.9453C10.6719 13.3984 10.3008 13.75 9.83203 13.75ZM11.4023 9.96484C10.7227 10.3594 10.4922 10.6484 10.4922 11.1484V11.457H9.13672L9.125 11.1211C9.05859 10.3164 9.33984 9.81641 10.0469 9.40234C10.707 9.00781 10.9844 8.75781 10.9844 8.27344C10.9844 7.78906 10.5156 7.43359 9.93359 7.43359C9.34375 7.43359 8.91797 7.81641 8.88672 8.39453H7.5C7.52734 7.13672 8.45703 6.24609 10.0273 6.24609C11.4922 6.24609 12.5 7.05859 12.5 8.22656C12.5 9.00391 12.125 9.53906 11.4023 9.96484Z" fill="#DEE3EA"/>
</svg>
