<svg width="20" height="20" viewBox="0 0 20 20" fill="none" xmlns="http://www.w3.org/2000/svg">
<path d="M16.1707 10.8125C16.2121 10.5689 16.2121 10.2844 16.2121 9.99999C16.2121 9.71554 16.1707 9.47194 16.1707 9.18749L17.9155 7.84694C18.0819 7.72515 18.1233 7.52206 17.9987 7.3189L16.3366 4.51562C16.2535 4.35296 16.0043 4.27206 15.8379 4.35296L13.7603 5.1655C13.3448 4.84058 12.8465 4.55608 12.3478 4.35296L12.0569 2.19995C12.0155 2.03769 11.8491 1.87503 11.6413 1.87503H8.3172C8.10947 1.87503 7.9431 2.03769 7.90169 2.19995L7.56935 4.35296C7.07064 4.55608 6.61373 4.84054 6.15642 5.1655L4.07884 4.35296C3.87107 4.27206 3.6633 4.35296 3.58013 4.51562L1.91806 7.31894C1.83529 7.48116 1.87662 7.72515 2.00122 7.84698L3.78798 9.18749C3.78798 9.47194 3.74658 9.71554 3.74658 9.99999C3.74658 10.2844 3.78798 10.528 3.78798 10.8125L2.04314 12.153C1.87673 12.2748 1.8354 12.4779 1.95994 12.6811L3.62201 15.4844C3.70521 15.647 3.95435 15.7279 4.12072 15.647L6.19833 14.8345C6.61384 15.1594 7.11216 15.4439 7.61083 15.647L7.94318 17.8C7.98494 18.0032 8.15091 18.1249 8.35869 18.1249H11.6828C11.8906 18.1249 12.057 17.9623 12.0984 17.8L12.4311 15.647C12.9294 15.4439 13.3867 15.1594 13.8436 14.8345L15.9212 15.647C16.129 15.7279 16.3367 15.647 16.4199 15.4844L18.082 12.681C18.1652 12.5188 18.1234 12.2748 17.9988 12.153L16.1707 10.8125ZM9.97931 12.8437C8.35865 12.8437 7.07072 11.5846 7.07072 9.99999C7.07072 8.41542 8.35865 7.15624 9.97931 7.15624C11.6 7.15624 12.8879 8.41542 12.8879 9.99999C12.8879 11.5846 11.6 12.8437 9.97931 12.8437Z" fill="#DEE3EA"/>
</svg>
